G04 EAGLE Gerber RS-274X export*
G75*
%MOMM*%
%FSLAX34Y34*%
%LPD*%
%INBottom Copper*%
%IPPOS*%
%AMOC8*
5,1,8,0,0,1.08239X$1,22.5*%
G01*
%ADD10C,1.905000*%
%ADD11R,2.000000X2.000000*%
%ADD12C,0.756400*%
%ADD13C,0.300000*%
%ADD14C,0.200000*%
%ADD15C,0.500000*%
%ADD16C,0.152400*%
%ADD17C,0.250000*%
%ADD18C,1.000000*%

G36*
X420022Y2544D02*
X420022Y2544D01*
X420060Y2543D01*
X424236Y2872D01*
X424242Y2873D01*
X424247Y2873D01*
X424412Y2907D01*
X432356Y5488D01*
X432388Y5504D01*
X432422Y5513D01*
X432568Y5596D01*
X439326Y10506D01*
X439351Y10531D01*
X439381Y10550D01*
X439494Y10674D01*
X444404Y17432D01*
X444420Y17464D01*
X444443Y17491D01*
X444512Y17644D01*
X447093Y25588D01*
X447094Y25594D01*
X447097Y25599D01*
X447128Y25764D01*
X447457Y29940D01*
X447455Y29962D01*
X447459Y30000D01*
X447459Y950000D01*
X447456Y950022D01*
X447457Y950060D01*
X447128Y954236D01*
X447127Y954242D01*
X447127Y954247D01*
X447093Y954412D01*
X444512Y962356D01*
X444496Y962388D01*
X444487Y962422D01*
X444404Y962568D01*
X439494Y969326D01*
X439469Y969351D01*
X439450Y969381D01*
X439326Y969494D01*
X432568Y974404D01*
X432536Y974420D01*
X432509Y974443D01*
X432356Y974512D01*
X424412Y977093D01*
X424406Y977094D01*
X424401Y977097D01*
X424236Y977128D01*
X420060Y977457D01*
X420038Y977455D01*
X420000Y977459D01*
X30000Y977459D01*
X29978Y977456D01*
X29940Y977457D01*
X25764Y977128D01*
X25758Y977127D01*
X25753Y977127D01*
X25588Y977093D01*
X17644Y974512D01*
X17612Y974496D01*
X17578Y974487D01*
X17432Y974404D01*
X10674Y969494D01*
X10649Y969469D01*
X10619Y969450D01*
X10506Y969326D01*
X5596Y962568D01*
X5580Y962536D01*
X5557Y962509D01*
X5488Y962356D01*
X2907Y954412D01*
X2906Y954406D01*
X2903Y954401D01*
X2872Y954236D01*
X2543Y950060D01*
X2545Y950038D01*
X2541Y950000D01*
X2541Y30000D01*
X2544Y29978D01*
X2543Y29940D01*
X2872Y25764D01*
X2873Y25758D01*
X2873Y25753D01*
X2907Y25588D01*
X5488Y17644D01*
X5504Y17612D01*
X5513Y17578D01*
X5596Y17432D01*
X10506Y10674D01*
X10531Y10649D01*
X10550Y10619D01*
X10674Y10506D01*
X17432Y5596D01*
X17464Y5580D01*
X17491Y5557D01*
X17644Y5488D01*
X25588Y2907D01*
X25594Y2906D01*
X25599Y2903D01*
X25764Y2872D01*
X29940Y2543D01*
X29962Y2545D01*
X30000Y2541D01*
X420000Y2541D01*
X420022Y2544D01*
G37*
%LPC*%
G36*
X293742Y306677D02*
X293742Y306677D01*
X291418Y307640D01*
X289640Y309418D01*
X289345Y310129D01*
X289284Y310229D01*
X289224Y310329D01*
X289219Y310333D01*
X289216Y310338D01*
X289126Y310413D01*
X289037Y310489D01*
X289031Y310491D01*
X289026Y310495D01*
X288918Y310537D01*
X288809Y310581D01*
X288801Y310582D01*
X288797Y310583D01*
X288778Y310584D01*
X288642Y310599D01*
X240006Y310599D01*
X226599Y324006D01*
X226599Y404690D01*
X226585Y404780D01*
X226577Y404871D01*
X226565Y404901D01*
X226560Y404933D01*
X226517Y405014D01*
X226481Y405098D01*
X226455Y405130D01*
X226444Y405150D01*
X226421Y405173D01*
X226376Y405229D01*
X211798Y419807D01*
X211703Y419875D01*
X211609Y419945D01*
X211603Y419947D01*
X211598Y419950D01*
X211487Y419985D01*
X211376Y420021D01*
X211369Y420021D01*
X211363Y420023D01*
X211247Y420020D01*
X211130Y420018D01*
X211122Y420016D01*
X211117Y420016D01*
X211100Y420010D01*
X210969Y419972D01*
X210258Y419677D01*
X207742Y419677D01*
X205418Y420640D01*
X203640Y422418D01*
X202677Y424742D01*
X202677Y427198D01*
X202663Y427288D01*
X202655Y427379D01*
X202643Y427409D01*
X202638Y427441D01*
X202595Y427521D01*
X202559Y427605D01*
X202533Y427637D01*
X202522Y427658D01*
X202499Y427680D01*
X202454Y427736D01*
X176599Y453591D01*
X176599Y515144D01*
X176585Y515234D01*
X176577Y515325D01*
X176565Y515354D01*
X176560Y515386D01*
X176517Y515467D01*
X176481Y515551D01*
X176455Y515583D01*
X176444Y515604D01*
X176421Y515626D01*
X176376Y515682D01*
X174640Y517418D01*
X174138Y518629D01*
X174076Y518729D01*
X174017Y518829D01*
X174012Y518833D01*
X174009Y518838D01*
X173918Y518913D01*
X173830Y518989D01*
X173824Y518991D01*
X173819Y518995D01*
X173711Y519037D01*
X173602Y519081D01*
X173594Y519082D01*
X173590Y519083D01*
X173571Y519084D01*
X173435Y519099D01*
X83213Y519099D01*
X72099Y530213D01*
X72099Y591897D01*
X72085Y591987D01*
X72077Y592078D01*
X72065Y592108D01*
X72060Y592140D01*
X72017Y592221D01*
X71981Y592305D01*
X71955Y592337D01*
X71944Y592357D01*
X71921Y592380D01*
X71876Y592436D01*
X47099Y617213D01*
X47099Y752435D01*
X47080Y752550D01*
X47063Y752666D01*
X47061Y752672D01*
X47060Y752678D01*
X47005Y752780D01*
X46952Y752885D01*
X46947Y752890D01*
X46944Y752895D01*
X46860Y752975D01*
X46776Y753057D01*
X46770Y753061D01*
X46766Y753064D01*
X46749Y753072D01*
X46629Y753138D01*
X45418Y753640D01*
X43878Y755180D01*
X43820Y755222D01*
X43768Y755271D01*
X43721Y755293D01*
X43679Y755324D01*
X43610Y755345D01*
X43545Y755375D01*
X43493Y755381D01*
X43443Y755396D01*
X43372Y755394D01*
X43301Y755402D01*
X43250Y755391D01*
X43198Y755390D01*
X43130Y755365D01*
X43060Y755350D01*
X43015Y755323D01*
X42967Y755305D01*
X42911Y755260D01*
X42849Y755224D01*
X42815Y755184D01*
X42775Y755151D01*
X42736Y755091D01*
X42689Y755037D01*
X42670Y754988D01*
X42642Y754945D01*
X42624Y754875D01*
X42597Y754808D01*
X42589Y754737D01*
X42581Y754706D01*
X42583Y754683D01*
X42579Y754642D01*
X42579Y612425D01*
X42593Y612335D01*
X42601Y612244D01*
X42613Y612214D01*
X42618Y612182D01*
X42661Y612101D01*
X42697Y612017D01*
X42723Y611985D01*
X42734Y611965D01*
X42757Y611942D01*
X42802Y611886D01*
X68901Y585787D01*
X68901Y441103D01*
X68915Y441013D01*
X68923Y440922D01*
X68935Y440892D01*
X68940Y440860D01*
X68983Y440779D01*
X69019Y440695D01*
X69045Y440663D01*
X69056Y440643D01*
X69079Y440620D01*
X69124Y440564D01*
X77564Y432124D01*
X77638Y432071D01*
X77708Y432011D01*
X77738Y431999D01*
X77764Y431980D01*
X77851Y431953D01*
X77936Y431919D01*
X77977Y431915D01*
X77999Y431908D01*
X78031Y431909D01*
X78103Y431901D01*
X185787Y431901D01*
X187124Y430564D01*
X206702Y410986D01*
X206797Y410918D01*
X206891Y410848D01*
X206897Y410846D01*
X206902Y410843D01*
X207013Y410808D01*
X207124Y410772D01*
X207131Y410772D01*
X207137Y410770D01*
X207253Y410773D01*
X207370Y410774D01*
X207378Y410777D01*
X207383Y410777D01*
X207400Y410783D01*
X207531Y410821D01*
X208742Y411323D01*
X211258Y411323D01*
X213582Y410360D01*
X215360Y408582D01*
X216323Y406258D01*
X216323Y403742D01*
X215360Y401418D01*
X213582Y399640D01*
X211258Y398677D01*
X208742Y398677D01*
X206418Y399640D01*
X204640Y401418D01*
X203677Y403742D01*
X203677Y406258D01*
X204179Y407469D01*
X204206Y407582D01*
X204234Y407696D01*
X204234Y407702D01*
X204235Y407708D01*
X204224Y407824D01*
X204215Y407941D01*
X204213Y407947D01*
X204212Y407953D01*
X204164Y408061D01*
X204119Y408167D01*
X204114Y408173D01*
X204112Y408178D01*
X204099Y408192D01*
X204014Y408298D01*
X184436Y427876D01*
X184362Y427929D01*
X184292Y427989D01*
X184262Y428001D01*
X184236Y428020D01*
X184149Y428047D01*
X184064Y428081D01*
X184023Y428085D01*
X184001Y428092D01*
X183969Y428091D01*
X183897Y428099D01*
X76213Y428099D01*
X65099Y439213D01*
X65099Y583897D01*
X65085Y583987D01*
X65077Y584078D01*
X65065Y584108D01*
X65060Y584140D01*
X65017Y584221D01*
X64981Y584305D01*
X64955Y584337D01*
X64944Y584357D01*
X64921Y584380D01*
X64876Y584436D01*
X39200Y610112D01*
X39142Y610154D01*
X39090Y610203D01*
X39043Y610225D01*
X39001Y610255D01*
X38932Y610276D01*
X38867Y610307D01*
X38815Y610312D01*
X38765Y610328D01*
X38694Y610326D01*
X38623Y610334D01*
X38572Y610323D01*
X38520Y610321D01*
X38452Y610297D01*
X38382Y610281D01*
X38337Y610255D01*
X38289Y610237D01*
X38233Y610192D01*
X38171Y610155D01*
X38137Y610116D01*
X38097Y610083D01*
X38058Y610023D01*
X38011Y609968D01*
X37992Y609920D01*
X37964Y609876D01*
X37946Y609807D01*
X37919Y609740D01*
X37911Y609669D01*
X37903Y609638D01*
X37905Y609614D01*
X37901Y609573D01*
X37901Y604103D01*
X37915Y604013D01*
X37923Y603922D01*
X37935Y603892D01*
X37940Y603860D01*
X37983Y603779D01*
X38019Y603695D01*
X38045Y603663D01*
X38056Y603643D01*
X38079Y603620D01*
X38124Y603564D01*
X61901Y579787D01*
X61901Y428103D01*
X61915Y428013D01*
X61923Y427922D01*
X61935Y427892D01*
X61940Y427860D01*
X61983Y427779D01*
X62019Y427695D01*
X62045Y427663D01*
X62056Y427643D01*
X62079Y427620D01*
X62100Y427593D01*
X62103Y427589D01*
X62106Y427586D01*
X62124Y427564D01*
X65564Y424124D01*
X65638Y424071D01*
X65708Y424011D01*
X65738Y423999D01*
X65764Y423980D01*
X65851Y423953D01*
X65936Y423919D01*
X65977Y423915D01*
X65999Y423908D01*
X66031Y423909D01*
X66103Y423901D01*
X143787Y423901D01*
X156702Y410986D01*
X156796Y410919D01*
X156891Y410848D01*
X156897Y410846D01*
X156902Y410843D01*
X157012Y410809D01*
X157124Y410772D01*
X157131Y410772D01*
X157137Y410770D01*
X157253Y410773D01*
X157370Y410774D01*
X157378Y410777D01*
X157383Y410777D01*
X157400Y410783D01*
X157531Y410821D01*
X158742Y411323D01*
X161258Y411323D01*
X163582Y410360D01*
X165360Y408582D01*
X166323Y406258D01*
X166323Y403742D01*
X165360Y401418D01*
X163582Y399640D01*
X161258Y398677D01*
X158742Y398677D01*
X156418Y399640D01*
X154640Y401418D01*
X153677Y403742D01*
X153677Y406258D01*
X154179Y407469D01*
X154205Y407582D01*
X154234Y407696D01*
X154234Y407702D01*
X154235Y407708D01*
X154224Y407825D01*
X154215Y407941D01*
X154212Y407947D01*
X154212Y407953D01*
X154164Y408060D01*
X154119Y408167D01*
X154114Y408173D01*
X154112Y408178D01*
X154099Y408191D01*
X154014Y408298D01*
X142436Y419876D01*
X142362Y419929D01*
X142292Y419989D01*
X142262Y420001D01*
X142236Y420020D01*
X142149Y420047D01*
X142064Y420081D01*
X142023Y420085D01*
X142001Y420092D01*
X141969Y420091D01*
X141897Y420099D01*
X64213Y420099D01*
X58099Y426213D01*
X58099Y577897D01*
X58085Y577987D01*
X58077Y578078D01*
X58065Y578108D01*
X58060Y578140D01*
X58017Y578221D01*
X57981Y578305D01*
X57955Y578337D01*
X57944Y578357D01*
X57921Y578380D01*
X57876Y578436D01*
X34099Y602213D01*
X34099Y800787D01*
X44213Y810901D01*
X139286Y810901D01*
X139376Y810915D01*
X139467Y810923D01*
X139496Y810935D01*
X139528Y810940D01*
X139609Y810983D01*
X139693Y811019D01*
X139725Y811045D01*
X139746Y811056D01*
X139768Y811079D01*
X139824Y811124D01*
X142271Y813571D01*
X146507Y815326D01*
X151093Y815326D01*
X155329Y813571D01*
X158571Y810329D01*
X160326Y806093D01*
X160326Y801507D01*
X158571Y797271D01*
X155329Y794029D01*
X151093Y792274D01*
X146507Y792274D01*
X142271Y794029D01*
X139029Y797271D01*
X137274Y801507D01*
X137274Y806110D01*
X137285Y806133D01*
X137294Y806210D01*
X137311Y806286D01*
X137307Y806332D01*
X137312Y806377D01*
X137296Y806453D01*
X137288Y806531D01*
X137270Y806573D01*
X137260Y806618D01*
X137220Y806685D01*
X137188Y806756D01*
X137157Y806790D01*
X137134Y806829D01*
X137075Y806880D01*
X137022Y806937D01*
X136982Y806959D01*
X136947Y806989D01*
X136875Y807018D01*
X136807Y807055D01*
X136761Y807064D01*
X136719Y807081D01*
X136583Y807096D01*
X136564Y807099D01*
X136559Y807098D01*
X136552Y807099D01*
X46103Y807099D01*
X46013Y807085D01*
X45922Y807077D01*
X45892Y807065D01*
X45860Y807060D01*
X45779Y807017D01*
X45695Y806981D01*
X45663Y806955D01*
X45643Y806944D01*
X45620Y806921D01*
X45564Y806876D01*
X38124Y799436D01*
X38071Y799362D01*
X38011Y799292D01*
X37999Y799262D01*
X37980Y799236D01*
X37953Y799149D01*
X37919Y799064D01*
X37915Y799023D01*
X37908Y799001D01*
X37909Y798969D01*
X37901Y798897D01*
X37901Y792781D01*
X37912Y792711D01*
X37914Y792639D01*
X37932Y792590D01*
X37940Y792539D01*
X37974Y792475D01*
X37999Y792408D01*
X38031Y792367D01*
X38056Y792321D01*
X38108Y792272D01*
X38152Y792216D01*
X38196Y792188D01*
X38234Y792152D01*
X38299Y792122D01*
X38359Y792083D01*
X38410Y792070D01*
X38457Y792048D01*
X38528Y792040D01*
X38598Y792023D01*
X38650Y792027D01*
X38701Y792021D01*
X38772Y792036D01*
X38843Y792042D01*
X38891Y792062D01*
X38942Y792073D01*
X39003Y792110D01*
X39069Y792138D01*
X39125Y792183D01*
X39153Y792200D01*
X39168Y792217D01*
X39200Y792243D01*
X40114Y793157D01*
X44180Y797223D01*
X63219Y797223D01*
X63309Y797237D01*
X63400Y797245D01*
X63430Y797257D01*
X63462Y797262D01*
X63543Y797305D01*
X63627Y797341D01*
X63659Y797367D01*
X63679Y797378D01*
X63702Y797401D01*
X63758Y797446D01*
X64213Y797901D01*
X131987Y797901D01*
X141520Y788368D01*
X141599Y788311D01*
X141658Y788261D01*
X141678Y788253D01*
X141708Y788230D01*
X141714Y788228D01*
X141719Y788225D01*
X141830Y788191D01*
X141842Y788187D01*
X141886Y788169D01*
X141902Y788167D01*
X141942Y788154D01*
X141949Y788154D01*
X141954Y788152D01*
X142021Y788154D01*
X142053Y788151D01*
X142071Y788151D01*
X142102Y788156D01*
X142188Y788157D01*
X142195Y788159D01*
X142200Y788159D01*
X142218Y788165D01*
X142294Y788187D01*
X142314Y788190D01*
X142324Y788196D01*
X142349Y788203D01*
X146507Y789926D01*
X151093Y789926D01*
X155329Y788171D01*
X158571Y784929D01*
X160326Y780693D01*
X160326Y776107D01*
X158571Y771871D01*
X155329Y768629D01*
X151093Y766874D01*
X146507Y766874D01*
X142271Y768629D01*
X139029Y771871D01*
X137274Y776107D01*
X137274Y780693D01*
X138997Y784851D01*
X139005Y784887D01*
X139011Y784901D01*
X139014Y784925D01*
X139023Y784964D01*
X139052Y785078D01*
X139051Y785084D01*
X139053Y785090D01*
X139042Y785207D01*
X139033Y785323D01*
X139030Y785329D01*
X139030Y785335D01*
X138982Y785443D01*
X138936Y785549D01*
X138932Y785555D01*
X138930Y785560D01*
X138917Y785574D01*
X138832Y785680D01*
X130636Y793876D01*
X130562Y793929D01*
X130492Y793989D01*
X130462Y794001D01*
X130436Y794020D01*
X130349Y794047D01*
X130264Y794081D01*
X130223Y794085D01*
X130201Y794092D01*
X130169Y794091D01*
X130097Y794099D01*
X66103Y794099D01*
X66013Y794085D01*
X65922Y794077D01*
X65892Y794065D01*
X65860Y794060D01*
X65779Y794017D01*
X65695Y793981D01*
X65663Y793955D01*
X65643Y793944D01*
X65620Y793921D01*
X65564Y793876D01*
X65109Y793421D01*
X53358Y793421D01*
X53288Y793410D01*
X53216Y793408D01*
X53167Y793390D01*
X53115Y793382D01*
X53052Y793348D01*
X52985Y793323D01*
X52944Y793291D01*
X52898Y793266D01*
X52849Y793215D01*
X52793Y793170D01*
X52765Y793126D01*
X52729Y793088D01*
X52699Y793023D01*
X52660Y792963D01*
X52647Y792912D01*
X52625Y792865D01*
X52617Y792794D01*
X52600Y792724D01*
X52604Y792672D01*
X52598Y792621D01*
X52613Y792550D01*
X52619Y792479D01*
X52639Y792431D01*
X52650Y792380D01*
X52687Y792319D01*
X52715Y792253D01*
X52760Y792197D01*
X52776Y792169D01*
X52794Y792154D01*
X52820Y792122D01*
X53360Y791582D01*
X53655Y790871D01*
X53716Y790771D01*
X53776Y790671D01*
X53781Y790667D01*
X53784Y790662D01*
X53874Y790587D01*
X53963Y790511D01*
X53969Y790509D01*
X53974Y790505D01*
X54082Y790463D01*
X54191Y790419D01*
X54199Y790418D01*
X54203Y790417D01*
X54222Y790416D01*
X54358Y790401D01*
X90994Y790401D01*
X110401Y770994D01*
X110401Y727358D01*
X110420Y727243D01*
X110437Y727127D01*
X110439Y727121D01*
X110440Y727115D01*
X110495Y727013D01*
X110548Y726908D01*
X110553Y726903D01*
X110556Y726898D01*
X110640Y726818D01*
X110724Y726735D01*
X110730Y726732D01*
X110734Y726728D01*
X110751Y726721D01*
X110871Y726655D01*
X111582Y726360D01*
X113360Y724582D01*
X114323Y722258D01*
X114323Y719742D01*
X113360Y717418D01*
X111582Y715640D01*
X110871Y715345D01*
X110772Y715284D01*
X110671Y715224D01*
X110667Y715219D01*
X110662Y715216D01*
X110587Y715126D01*
X110511Y715037D01*
X110509Y715031D01*
X110505Y715026D01*
X110463Y714918D01*
X110419Y714809D01*
X110418Y714801D01*
X110417Y714797D01*
X110416Y714778D01*
X110401Y714642D01*
X110401Y634310D01*
X110415Y634220D01*
X110423Y634129D01*
X110435Y634099D01*
X110440Y634067D01*
X110483Y633986D01*
X110519Y633902D01*
X110545Y633870D01*
X110556Y633850D01*
X110579Y633827D01*
X110624Y633771D01*
X134771Y609624D01*
X134845Y609571D01*
X134915Y609511D01*
X134945Y609499D01*
X134971Y609480D01*
X135058Y609453D01*
X135143Y609419D01*
X135184Y609415D01*
X135206Y609408D01*
X135238Y609409D01*
X135310Y609401D01*
X280890Y609401D01*
X280980Y609415D01*
X281071Y609423D01*
X281101Y609435D01*
X281133Y609440D01*
X281214Y609483D01*
X281298Y609519D01*
X281330Y609545D01*
X281350Y609556D01*
X281373Y609579D01*
X281429Y609624D01*
X291025Y619220D01*
X291092Y619314D01*
X291162Y619408D01*
X291164Y619414D01*
X291168Y619419D01*
X291202Y619530D01*
X291239Y619642D01*
X291239Y619648D01*
X291240Y619654D01*
X291237Y619771D01*
X291236Y619888D01*
X291234Y619895D01*
X291234Y619900D01*
X291228Y619918D01*
X291190Y620049D01*
X289674Y623707D01*
X289674Y628293D01*
X291429Y632529D01*
X294671Y635771D01*
X298907Y637526D01*
X303493Y637526D01*
X307729Y635771D01*
X310971Y632529D01*
X312726Y628293D01*
X312726Y623707D01*
X310971Y619471D01*
X307729Y616229D01*
X303493Y614474D01*
X298907Y614474D01*
X295249Y615990D01*
X295136Y616016D01*
X295022Y616045D01*
X295016Y616044D01*
X295010Y616046D01*
X294893Y616035D01*
X294777Y616026D01*
X294771Y616023D01*
X294765Y616023D01*
X294657Y615975D01*
X294551Y615929D01*
X294545Y615925D01*
X294540Y615923D01*
X294526Y615910D01*
X294420Y615825D01*
X283194Y604599D01*
X183162Y604599D01*
X183142Y604596D01*
X183123Y604598D01*
X183021Y604576D01*
X182919Y604560D01*
X182902Y604550D01*
X182882Y604546D01*
X182793Y604493D01*
X182702Y604444D01*
X182688Y604430D01*
X182671Y604420D01*
X182604Y604341D01*
X182532Y604266D01*
X182524Y604248D01*
X182511Y604233D01*
X182472Y604137D01*
X182429Y604043D01*
X182427Y604023D01*
X182419Y604005D01*
X182401Y603838D01*
X182401Y555424D01*
X182404Y555404D01*
X182402Y555385D01*
X182424Y555283D01*
X182440Y555181D01*
X182450Y555164D01*
X182454Y555144D01*
X182507Y555055D01*
X182556Y554964D01*
X182570Y554950D01*
X182580Y554933D01*
X182659Y554866D01*
X182734Y554794D01*
X182752Y554786D01*
X182767Y554773D01*
X182863Y554734D01*
X182957Y554691D01*
X182977Y554689D01*
X182995Y554681D01*
X183162Y554663D01*
X187558Y554663D01*
X187628Y554674D01*
X187700Y554676D01*
X187749Y554694D01*
X187801Y554702D01*
X187864Y554736D01*
X187931Y554761D01*
X187972Y554793D01*
X188018Y554818D01*
X188067Y554870D01*
X188123Y554914D01*
X188151Y554958D01*
X188187Y554996D01*
X188217Y555061D01*
X188256Y555121D01*
X188269Y555172D01*
X188291Y555219D01*
X188299Y555290D01*
X188316Y555360D01*
X188312Y555412D01*
X188318Y555463D01*
X188303Y555534D01*
X188297Y555605D01*
X188277Y555653D01*
X188266Y555704D01*
X188229Y555765D01*
X188201Y555831D01*
X188156Y555887D01*
X188140Y555915D01*
X188122Y555930D01*
X188096Y555962D01*
X186640Y557418D01*
X185677Y559742D01*
X185677Y562258D01*
X186640Y564582D01*
X188418Y566360D01*
X190742Y567323D01*
X193258Y567323D01*
X195582Y566360D01*
X197360Y564582D01*
X197758Y563621D01*
X197820Y563521D01*
X197880Y563421D01*
X197884Y563417D01*
X197888Y563412D01*
X197978Y563337D01*
X198067Y563261D01*
X198072Y563259D01*
X198077Y563255D01*
X198186Y563213D01*
X198295Y563169D01*
X198302Y563168D01*
X198307Y563167D01*
X198325Y563166D01*
X198461Y563151D01*
X201794Y563151D01*
X201884Y563165D01*
X201975Y563173D01*
X202005Y563185D01*
X202037Y563190D01*
X202117Y563233D01*
X202201Y563269D01*
X202233Y563295D01*
X202254Y563306D01*
X202276Y563329D01*
X202332Y563374D01*
X209910Y570952D01*
X209979Y571047D01*
X210048Y571141D01*
X210050Y571146D01*
X210054Y571152D01*
X210088Y571263D01*
X210124Y571374D01*
X210124Y571381D01*
X210126Y571387D01*
X210123Y571503D01*
X210122Y571620D01*
X210120Y571628D01*
X210120Y571633D01*
X210113Y571650D01*
X210075Y571781D01*
X209677Y572742D01*
X209677Y575258D01*
X210640Y577582D01*
X212418Y579360D01*
X214742Y580323D01*
X217258Y580323D01*
X219582Y579360D01*
X221360Y577582D01*
X222323Y575258D01*
X222323Y572742D01*
X221360Y570418D01*
X219582Y568640D01*
X217258Y567677D01*
X214742Y567677D01*
X213781Y568075D01*
X213668Y568102D01*
X213554Y568131D01*
X213548Y568130D01*
X213542Y568131D01*
X213426Y568120D01*
X213309Y568111D01*
X213303Y568109D01*
X213297Y568108D01*
X213190Y568061D01*
X213083Y568015D01*
X213077Y568010D01*
X213072Y568008D01*
X213059Y567996D01*
X212952Y567910D01*
X205374Y560332D01*
X203891Y558849D01*
X198461Y558849D01*
X198347Y558830D01*
X198230Y558813D01*
X198225Y558811D01*
X198219Y558810D01*
X198116Y558755D01*
X198011Y558702D01*
X198007Y558697D01*
X198001Y558694D01*
X197921Y558610D01*
X197839Y558526D01*
X197835Y558520D01*
X197832Y558516D01*
X197824Y558499D01*
X197758Y558379D01*
X197360Y557418D01*
X195904Y555962D01*
X195862Y555904D01*
X195813Y555852D01*
X195791Y555805D01*
X195760Y555763D01*
X195739Y555694D01*
X195709Y555629D01*
X195703Y555577D01*
X195688Y555527D01*
X195690Y555456D01*
X195682Y555385D01*
X195693Y555334D01*
X195694Y555282D01*
X195719Y555214D01*
X195734Y555144D01*
X195761Y555099D01*
X195779Y555051D01*
X195824Y554995D01*
X195860Y554933D01*
X195900Y554899D01*
X195933Y554859D01*
X195993Y554820D01*
X196047Y554773D01*
X196096Y554754D01*
X196139Y554726D01*
X196209Y554708D01*
X196276Y554681D01*
X196347Y554673D01*
X196378Y554665D01*
X196401Y554667D01*
X196442Y554663D01*
X213996Y554663D01*
X214086Y554677D01*
X214177Y554685D01*
X214207Y554697D01*
X214239Y554702D01*
X214319Y554745D01*
X214403Y554781D01*
X214435Y554807D01*
X214456Y554818D01*
X214478Y554841D01*
X214534Y554886D01*
X219311Y559663D01*
X252934Y559663D01*
X253024Y559677D01*
X253115Y559685D01*
X253144Y559697D01*
X253176Y559702D01*
X253257Y559745D01*
X253341Y559781D01*
X253373Y559807D01*
X253394Y559818D01*
X253401Y559825D01*
X255742Y560795D01*
X258258Y560795D01*
X260582Y559832D01*
X262360Y558054D01*
X263323Y555730D01*
X263323Y553214D01*
X262360Y550890D01*
X260582Y549112D01*
X258258Y548149D01*
X255742Y548149D01*
X253418Y549112D01*
X251640Y550890D01*
X250677Y553214D01*
X250677Y555576D01*
X250674Y555596D01*
X250676Y555615D01*
X250654Y555717D01*
X250638Y555819D01*
X250628Y555836D01*
X250624Y555856D01*
X250571Y555945D01*
X250522Y556036D01*
X250508Y556050D01*
X250498Y556067D01*
X250419Y556134D01*
X250344Y556206D01*
X250326Y556214D01*
X250311Y556227D01*
X250215Y556266D01*
X250121Y556309D01*
X250101Y556311D01*
X250083Y556319D01*
X249916Y556337D01*
X221004Y556337D01*
X220914Y556323D01*
X220823Y556315D01*
X220793Y556303D01*
X220761Y556298D01*
X220681Y556255D01*
X220597Y556219D01*
X220565Y556193D01*
X220544Y556182D01*
X220522Y556159D01*
X220466Y556114D01*
X215689Y551337D01*
X206358Y551337D01*
X206288Y551326D01*
X206216Y551324D01*
X206167Y551306D01*
X206115Y551298D01*
X206052Y551264D01*
X205985Y551239D01*
X205944Y551207D01*
X205898Y551182D01*
X205849Y551131D01*
X205793Y551086D01*
X205765Y551042D01*
X205729Y551004D01*
X205699Y550939D01*
X205660Y550879D01*
X205647Y550828D01*
X205625Y550781D01*
X205617Y550710D01*
X205600Y550640D01*
X205604Y550588D01*
X205598Y550537D01*
X205613Y550466D01*
X205619Y550395D01*
X205639Y550347D01*
X205650Y550296D01*
X205687Y550235D01*
X205715Y550169D01*
X205760Y550113D01*
X205776Y550085D01*
X205794Y550070D01*
X205820Y550038D01*
X206360Y549498D01*
X207323Y547174D01*
X207323Y544658D01*
X206360Y542334D01*
X204582Y540556D01*
X202258Y539593D01*
X199742Y539593D01*
X197418Y540556D01*
X195640Y542334D01*
X194677Y544658D01*
X194677Y547174D01*
X195640Y549498D01*
X196180Y550038D01*
X196222Y550096D01*
X196271Y550148D01*
X196293Y550195D01*
X196324Y550237D01*
X196345Y550306D01*
X196375Y550371D01*
X196381Y550423D01*
X196396Y550473D01*
X196394Y550544D01*
X196402Y550615D01*
X196391Y550666D01*
X196390Y550718D01*
X196365Y550786D01*
X196350Y550856D01*
X196323Y550901D01*
X196305Y550949D01*
X196260Y551005D01*
X196224Y551067D01*
X196184Y551101D01*
X196151Y551141D01*
X196091Y551180D01*
X196037Y551227D01*
X195988Y551246D01*
X195945Y551274D01*
X195875Y551292D01*
X195808Y551319D01*
X195737Y551327D01*
X195706Y551335D01*
X195683Y551333D01*
X195642Y551337D01*
X183162Y551337D01*
X183142Y551334D01*
X183123Y551336D01*
X183021Y551314D01*
X182919Y551298D01*
X182902Y551288D01*
X182882Y551284D01*
X182793Y551231D01*
X182702Y551182D01*
X182688Y551168D01*
X182671Y551158D01*
X182604Y551079D01*
X182532Y551004D01*
X182524Y550986D01*
X182511Y550971D01*
X182472Y550875D01*
X182429Y550781D01*
X182427Y550761D01*
X182419Y550743D01*
X182401Y550576D01*
X182401Y538358D01*
X182420Y538243D01*
X182437Y538127D01*
X182439Y538121D01*
X182440Y538115D01*
X182495Y538013D01*
X182548Y537908D01*
X182553Y537903D01*
X182556Y537898D01*
X182640Y537818D01*
X182724Y537735D01*
X182730Y537732D01*
X182734Y537728D01*
X182751Y537721D01*
X182871Y537655D01*
X183582Y537360D01*
X185360Y535582D01*
X186323Y533258D01*
X186323Y530742D01*
X185360Y528418D01*
X183980Y527038D01*
X183968Y527022D01*
X183953Y527010D01*
X183897Y526922D01*
X183836Y526839D01*
X183831Y526820D01*
X183820Y526803D01*
X183795Y526702D01*
X183764Y526603D01*
X183765Y526584D01*
X183760Y526564D01*
X183768Y526461D01*
X183770Y526358D01*
X183777Y526339D01*
X183779Y526319D01*
X183819Y526224D01*
X183855Y526127D01*
X183867Y526111D01*
X183875Y526093D01*
X183980Y525962D01*
X185360Y524582D01*
X186323Y522258D01*
X186323Y519742D01*
X186028Y519031D01*
X186002Y518918D01*
X185973Y518804D01*
X185974Y518798D01*
X185972Y518792D01*
X185983Y518675D01*
X185992Y518559D01*
X185995Y518553D01*
X185995Y518547D01*
X186043Y518440D01*
X186088Y518333D01*
X186093Y518327D01*
X186095Y518322D01*
X186108Y518309D01*
X186193Y518202D01*
X192771Y511624D01*
X192845Y511571D01*
X192915Y511511D01*
X192945Y511499D01*
X192971Y511480D01*
X193058Y511453D01*
X193143Y511419D01*
X193184Y511415D01*
X193206Y511408D01*
X193238Y511409D01*
X193310Y511401D01*
X278690Y511401D01*
X278780Y511415D01*
X278871Y511423D01*
X278901Y511435D01*
X278933Y511440D01*
X279014Y511483D01*
X279098Y511519D01*
X279130Y511545D01*
X279150Y511556D01*
X279173Y511579D01*
X279229Y511624D01*
X320376Y552771D01*
X320429Y552845D01*
X320489Y552915D01*
X320501Y552945D01*
X320520Y552971D01*
X320547Y553058D01*
X320581Y553143D01*
X320585Y553184D01*
X320592Y553206D01*
X320591Y553238D01*
X320599Y553310D01*
X320599Y686642D01*
X320580Y686757D01*
X320563Y686873D01*
X320561Y686879D01*
X320560Y686885D01*
X320505Y686987D01*
X320452Y687092D01*
X320447Y687097D01*
X320444Y687102D01*
X320360Y687182D01*
X320276Y687265D01*
X320270Y687268D01*
X320266Y687272D01*
X320249Y687279D01*
X320129Y687345D01*
X319418Y687640D01*
X317640Y689418D01*
X316677Y691742D01*
X316677Y694258D01*
X317640Y696582D01*
X319418Y698360D01*
X321742Y699323D01*
X324258Y699323D01*
X326582Y698360D01*
X328360Y696582D01*
X329323Y694258D01*
X329323Y691742D01*
X328360Y689418D01*
X326582Y687640D01*
X325871Y687345D01*
X325771Y687284D01*
X325671Y687224D01*
X325667Y687219D01*
X325662Y687216D01*
X325587Y687126D01*
X325511Y687037D01*
X325509Y687031D01*
X325505Y687026D01*
X325463Y686918D01*
X325419Y686809D01*
X325418Y686801D01*
X325417Y686797D01*
X325416Y686778D01*
X325401Y686642D01*
X325401Y551006D01*
X280994Y506599D01*
X191006Y506599D01*
X184700Y512905D01*
X184642Y512946D01*
X184590Y512996D01*
X184543Y513018D01*
X184501Y513048D01*
X184432Y513069D01*
X184367Y513099D01*
X184315Y513105D01*
X184265Y513121D01*
X184194Y513119D01*
X184123Y513127D01*
X184072Y513115D01*
X184020Y513114D01*
X183952Y513090D01*
X183882Y513074D01*
X183837Y513048D01*
X183789Y513030D01*
X183733Y512985D01*
X183671Y512948D01*
X183637Y512909D01*
X183597Y512876D01*
X183558Y512816D01*
X183511Y512761D01*
X183492Y512713D01*
X183464Y512669D01*
X183446Y512600D01*
X183419Y512533D01*
X183411Y512462D01*
X183403Y512431D01*
X183405Y512407D01*
X183401Y512366D01*
X183401Y456724D01*
X183415Y456634D01*
X183423Y456543D01*
X183435Y456513D01*
X183440Y456481D01*
X183483Y456401D01*
X183519Y456317D01*
X183545Y456285D01*
X183556Y456264D01*
X183579Y456242D01*
X183624Y456186D01*
X207264Y432546D01*
X207338Y432493D01*
X207407Y432433D01*
X207437Y432421D01*
X207463Y432402D01*
X207550Y432375D01*
X207635Y432341D01*
X207676Y432337D01*
X207698Y432330D01*
X207731Y432331D01*
X207802Y432323D01*
X210258Y432323D01*
X212582Y431360D01*
X214360Y429582D01*
X215323Y427258D01*
X215323Y424742D01*
X215028Y424031D01*
X215002Y423918D01*
X214973Y423804D01*
X214974Y423798D01*
X214972Y423792D01*
X214983Y423675D01*
X214992Y423559D01*
X214995Y423553D01*
X214995Y423547D01*
X215043Y423440D01*
X215088Y423333D01*
X215093Y423327D01*
X215095Y423322D01*
X215108Y423309D01*
X215193Y423202D01*
X231401Y406994D01*
X231401Y326310D01*
X231415Y326220D01*
X231423Y326129D01*
X231435Y326099D01*
X231440Y326067D01*
X231483Y325986D01*
X231519Y325902D01*
X231545Y325870D01*
X231556Y325850D01*
X231579Y325827D01*
X231624Y325771D01*
X241771Y315624D01*
X241845Y315571D01*
X241915Y315511D01*
X241945Y315499D01*
X241971Y315480D01*
X242058Y315453D01*
X242143Y315419D01*
X242184Y315415D01*
X242206Y315408D01*
X242238Y315409D01*
X242310Y315401D01*
X288642Y315401D01*
X288757Y315420D01*
X288873Y315437D01*
X288879Y315439D01*
X288885Y315440D01*
X288987Y315495D01*
X289092Y315548D01*
X289097Y315553D01*
X289102Y315556D01*
X289182Y315640D01*
X289265Y315724D01*
X289268Y315730D01*
X289272Y315734D01*
X289279Y315751D01*
X289345Y315871D01*
X289640Y316582D01*
X291418Y318360D01*
X293742Y319323D01*
X296258Y319323D01*
X298582Y318360D01*
X300360Y316582D01*
X301323Y314258D01*
X301323Y311742D01*
X300360Y309418D01*
X298582Y307640D01*
X296258Y306677D01*
X293742Y306677D01*
G37*
%LPD*%
G36*
X173550Y522920D02*
X173550Y522920D01*
X173666Y522937D01*
X173672Y522939D01*
X173678Y522940D01*
X173780Y522995D01*
X173885Y523048D01*
X173890Y523053D01*
X173895Y523056D01*
X173975Y523140D01*
X174057Y523224D01*
X174061Y523230D01*
X174064Y523234D01*
X174072Y523251D01*
X174138Y523371D01*
X174640Y524582D01*
X176020Y525962D01*
X176032Y525978D01*
X176047Y525990D01*
X176103Y526078D01*
X176164Y526161D01*
X176169Y526180D01*
X176180Y526197D01*
X176206Y526298D01*
X176236Y526397D01*
X176235Y526416D01*
X176240Y526436D01*
X176232Y526539D01*
X176230Y526642D01*
X176223Y526661D01*
X176221Y526681D01*
X176181Y526776D01*
X176145Y526873D01*
X176133Y526889D01*
X176125Y526907D01*
X176020Y527038D01*
X174640Y528418D01*
X173677Y530742D01*
X173677Y533258D01*
X174640Y535582D01*
X176418Y537360D01*
X177129Y537655D01*
X177229Y537716D01*
X177329Y537776D01*
X177333Y537781D01*
X177338Y537784D01*
X177413Y537874D01*
X177489Y537963D01*
X177491Y537969D01*
X177495Y537974D01*
X177537Y538082D01*
X177581Y538191D01*
X177582Y538199D01*
X177583Y538203D01*
X177584Y538222D01*
X177599Y538358D01*
X177599Y603838D01*
X177596Y603858D01*
X177598Y603877D01*
X177576Y603979D01*
X177560Y604081D01*
X177550Y604098D01*
X177546Y604118D01*
X177493Y604207D01*
X177444Y604298D01*
X177430Y604312D01*
X177420Y604329D01*
X177341Y604396D01*
X177266Y604468D01*
X177248Y604476D01*
X177233Y604489D01*
X177137Y604528D01*
X177043Y604571D01*
X177023Y604573D01*
X177005Y604581D01*
X176838Y604599D01*
X133006Y604599D01*
X131376Y606229D01*
X107229Y630376D01*
X107228Y630376D01*
X105599Y632006D01*
X105599Y714642D01*
X105581Y714757D01*
X105563Y714873D01*
X105561Y714879D01*
X105560Y714885D01*
X105505Y714988D01*
X105452Y715092D01*
X105447Y715097D01*
X105444Y715102D01*
X105359Y715183D01*
X105276Y715265D01*
X105270Y715268D01*
X105266Y715272D01*
X105249Y715280D01*
X105129Y715345D01*
X104418Y715640D01*
X102640Y717418D01*
X101677Y719742D01*
X101677Y722258D01*
X102640Y724582D01*
X104418Y726360D01*
X105129Y726655D01*
X105229Y726716D01*
X105329Y726776D01*
X105333Y726781D01*
X105338Y726784D01*
X105413Y726874D01*
X105489Y726963D01*
X105491Y726969D01*
X105495Y726974D01*
X105537Y727082D01*
X105581Y727191D01*
X105582Y727199D01*
X105583Y727203D01*
X105584Y727222D01*
X105599Y727358D01*
X105599Y768690D01*
X105585Y768780D01*
X105577Y768871D01*
X105565Y768901D01*
X105560Y768933D01*
X105517Y769014D01*
X105481Y769098D01*
X105455Y769130D01*
X105444Y769150D01*
X105421Y769173D01*
X105376Y769229D01*
X89229Y785376D01*
X89155Y785429D01*
X89085Y785489D01*
X89055Y785501D01*
X89029Y785520D01*
X88942Y785547D01*
X88857Y785581D01*
X88816Y785585D01*
X88794Y785592D01*
X88762Y785591D01*
X88690Y785599D01*
X87180Y785599D01*
X87110Y785588D01*
X87038Y785586D01*
X86989Y785568D01*
X86937Y785560D01*
X86874Y785526D01*
X86807Y785501D01*
X86766Y785469D01*
X86720Y785444D01*
X86671Y785392D01*
X86615Y785348D01*
X86587Y785304D01*
X86551Y785266D01*
X86521Y785201D01*
X86482Y785141D01*
X86469Y785090D01*
X86447Y785043D01*
X86439Y784972D01*
X86422Y784902D01*
X86426Y784850D01*
X86420Y784799D01*
X86435Y784728D01*
X86441Y784657D01*
X86461Y784609D01*
X86472Y784558D01*
X86509Y784497D01*
X86537Y784431D01*
X86582Y784375D01*
X86598Y784347D01*
X86616Y784332D01*
X86642Y784300D01*
X87360Y783582D01*
X88323Y781258D01*
X88323Y778742D01*
X87360Y776418D01*
X85582Y774640D01*
X83258Y773677D01*
X80742Y773677D01*
X78418Y774640D01*
X76640Y776418D01*
X76138Y777629D01*
X76076Y777729D01*
X76017Y777829D01*
X76012Y777833D01*
X76009Y777838D01*
X75918Y777913D01*
X75830Y777989D01*
X75824Y777991D01*
X75819Y777995D01*
X75711Y778037D01*
X75602Y778081D01*
X75594Y778082D01*
X75590Y778083D01*
X75571Y778084D01*
X75435Y778099D01*
X71103Y778099D01*
X71013Y778085D01*
X70922Y778077D01*
X70892Y778065D01*
X70860Y778060D01*
X70779Y778017D01*
X70695Y777981D01*
X70663Y777955D01*
X70643Y777944D01*
X70620Y777921D01*
X70564Y777876D01*
X54986Y762298D01*
X54918Y762203D01*
X54848Y762109D01*
X54846Y762103D01*
X54843Y762098D01*
X54808Y761987D01*
X54772Y761876D01*
X54772Y761869D01*
X54770Y761863D01*
X54773Y761747D01*
X54774Y761630D01*
X54777Y761622D01*
X54777Y761617D01*
X54783Y761600D01*
X54821Y761469D01*
X55323Y760258D01*
X55323Y757742D01*
X54360Y755418D01*
X52582Y753640D01*
X51371Y753138D01*
X51271Y753076D01*
X51171Y753017D01*
X51167Y753012D01*
X51162Y753009D01*
X51087Y752918D01*
X51011Y752830D01*
X51009Y752824D01*
X51005Y752819D01*
X50963Y752711D01*
X50919Y752602D01*
X50918Y752594D01*
X50917Y752590D01*
X50916Y752571D01*
X50901Y752435D01*
X50901Y625680D01*
X50912Y625610D01*
X50914Y625538D01*
X50932Y625489D01*
X50940Y625437D01*
X50974Y625374D01*
X50999Y625307D01*
X51031Y625266D01*
X51056Y625220D01*
X51108Y625171D01*
X51152Y625115D01*
X51196Y625087D01*
X51234Y625051D01*
X51299Y625021D01*
X51359Y624982D01*
X51410Y624969D01*
X51457Y624947D01*
X51528Y624939D01*
X51598Y624922D01*
X51650Y624926D01*
X51701Y624920D01*
X51772Y624935D01*
X51843Y624941D01*
X51891Y624961D01*
X51942Y624972D01*
X52003Y625009D01*
X52069Y625037D01*
X52125Y625082D01*
X52153Y625098D01*
X52168Y625116D01*
X52200Y625142D01*
X53418Y626360D01*
X55742Y627323D01*
X58258Y627323D01*
X60582Y626360D01*
X62360Y624582D01*
X63323Y622258D01*
X63323Y619742D01*
X62360Y617418D01*
X60582Y615640D01*
X58258Y614677D01*
X56849Y614677D01*
X56778Y614666D01*
X56706Y614664D01*
X56657Y614646D01*
X56606Y614638D01*
X56542Y614604D01*
X56475Y614579D01*
X56434Y614547D01*
X56388Y614522D01*
X56339Y614470D01*
X56283Y614426D01*
X56255Y614382D01*
X56219Y614344D01*
X56189Y614279D01*
X56150Y614219D01*
X56137Y614168D01*
X56115Y614121D01*
X56108Y614050D01*
X56090Y613980D01*
X56094Y613928D01*
X56088Y613877D01*
X56104Y613806D01*
X56109Y613735D01*
X56130Y613687D01*
X56141Y613636D01*
X56177Y613575D01*
X56205Y613509D01*
X56250Y613453D01*
X56267Y613425D01*
X56285Y613410D01*
X56310Y613378D01*
X74564Y595124D01*
X75901Y593787D01*
X75901Y532103D01*
X75915Y532013D01*
X75923Y531922D01*
X75935Y531892D01*
X75940Y531860D01*
X75983Y531779D01*
X76019Y531695D01*
X76045Y531663D01*
X76056Y531643D01*
X76079Y531620D01*
X76124Y531564D01*
X84564Y523124D01*
X84638Y523071D01*
X84708Y523011D01*
X84738Y522999D01*
X84764Y522980D01*
X84851Y522953D01*
X84936Y522919D01*
X84977Y522915D01*
X84999Y522908D01*
X85031Y522909D01*
X85103Y522901D01*
X173435Y522901D01*
X173550Y522920D01*
G37*
%LPC*%
G36*
X395109Y121849D02*
X395109Y121849D01*
X393626Y123332D01*
X318048Y198910D01*
X317953Y198978D01*
X317859Y199048D01*
X317853Y199050D01*
X317848Y199054D01*
X317737Y199088D01*
X317626Y199124D01*
X317619Y199124D01*
X317613Y199126D01*
X317497Y199123D01*
X317380Y199122D01*
X317372Y199120D01*
X317367Y199120D01*
X317350Y199113D01*
X317219Y199075D01*
X316258Y198677D01*
X313742Y198677D01*
X311418Y199640D01*
X309640Y201418D01*
X308677Y203742D01*
X308677Y206258D01*
X309640Y208582D01*
X311418Y210360D01*
X313742Y211323D01*
X316258Y211323D01*
X318582Y210360D01*
X320360Y208582D01*
X321323Y206258D01*
X321323Y203742D01*
X320925Y202781D01*
X320898Y202668D01*
X320869Y202554D01*
X320870Y202548D01*
X320869Y202542D01*
X320880Y202426D01*
X320889Y202309D01*
X320891Y202303D01*
X320892Y202297D01*
X320939Y202190D01*
X320985Y202083D01*
X320990Y202077D01*
X320992Y202072D01*
X321004Y202059D01*
X321090Y201952D01*
X396668Y126374D01*
X396742Y126321D01*
X396811Y126261D01*
X396841Y126249D01*
X396868Y126230D01*
X396955Y126203D01*
X397039Y126169D01*
X397080Y126165D01*
X397103Y126158D01*
X397135Y126159D01*
X397206Y126151D01*
X427194Y126151D01*
X427284Y126165D01*
X427375Y126173D01*
X427405Y126185D01*
X427437Y126190D01*
X427517Y126233D01*
X427601Y126269D01*
X427633Y126295D01*
X427654Y126306D01*
X427676Y126329D01*
X427732Y126374D01*
X440326Y138968D01*
X440379Y139042D01*
X440439Y139111D01*
X440451Y139141D01*
X440470Y139168D01*
X440497Y139255D01*
X440531Y139339D01*
X440535Y139380D01*
X440542Y139403D01*
X440541Y139435D01*
X440549Y139506D01*
X440549Y688694D01*
X440535Y688784D01*
X440527Y688875D01*
X440515Y688905D01*
X440510Y688937D01*
X440467Y689017D01*
X440431Y689101D01*
X440405Y689133D01*
X440394Y689154D01*
X440371Y689176D01*
X440326Y689232D01*
X391807Y737751D01*
X391733Y737804D01*
X391664Y737864D01*
X391634Y737876D01*
X391607Y737895D01*
X391520Y737922D01*
X391436Y737956D01*
X391395Y737960D01*
X391372Y737967D01*
X391340Y737966D01*
X391269Y737974D01*
X345497Y737974D01*
X345470Y738001D01*
X345396Y738054D01*
X345327Y738114D01*
X345297Y738126D01*
X345270Y738145D01*
X345183Y738172D01*
X345099Y738206D01*
X345058Y738210D01*
X345035Y738217D01*
X345003Y738216D01*
X344932Y738224D01*
X308713Y738224D01*
X308643Y738213D01*
X308571Y738211D01*
X308522Y738193D01*
X308471Y738185D01*
X308407Y738151D01*
X308340Y738126D01*
X308299Y738094D01*
X308253Y738069D01*
X308204Y738017D01*
X308148Y737973D01*
X308120Y737929D01*
X308084Y737891D01*
X308054Y737826D01*
X308015Y737766D01*
X308002Y737715D01*
X307980Y737668D01*
X307972Y737597D01*
X307955Y737527D01*
X307959Y737475D01*
X307953Y737424D01*
X307968Y737353D01*
X307974Y737282D01*
X307994Y737234D01*
X308005Y737183D01*
X308042Y737122D01*
X308070Y737056D01*
X308115Y737000D01*
X308132Y736972D01*
X308149Y736957D01*
X308175Y736925D01*
X310971Y734129D01*
X312726Y729893D01*
X312726Y725307D01*
X310971Y721071D01*
X307825Y717925D01*
X307783Y717867D01*
X307734Y717815D01*
X307712Y717768D01*
X307682Y717726D01*
X307660Y717657D01*
X307630Y717592D01*
X307625Y717540D01*
X307609Y717490D01*
X307611Y717419D01*
X307603Y717348D01*
X307614Y717297D01*
X307616Y717245D01*
X307640Y717177D01*
X307655Y717107D01*
X307682Y717062D01*
X307700Y717014D01*
X307745Y716958D01*
X307782Y716896D01*
X307821Y716862D01*
X307854Y716822D01*
X307914Y716783D01*
X307968Y716736D01*
X308017Y716717D01*
X308061Y716689D01*
X308130Y716671D01*
X308197Y716644D01*
X308268Y716636D01*
X308299Y716628D01*
X308322Y716630D01*
X308363Y716626D01*
X344932Y716626D01*
X345022Y716640D01*
X345113Y716648D01*
X345143Y716660D01*
X345175Y716665D01*
X345255Y716708D01*
X345339Y716744D01*
X345371Y716770D01*
X345392Y716781D01*
X345414Y716804D01*
X345470Y716849D01*
X345497Y716876D01*
X394366Y716876D01*
X436751Y674491D01*
X436751Y143109D01*
X428391Y134749D01*
X402209Y134749D01*
X400726Y136232D01*
X338048Y198910D01*
X337953Y198978D01*
X337859Y199048D01*
X337853Y199050D01*
X337848Y199054D01*
X337737Y199088D01*
X337626Y199124D01*
X337619Y199124D01*
X337613Y199126D01*
X337497Y199123D01*
X337380Y199122D01*
X337372Y199120D01*
X337367Y199120D01*
X337350Y199113D01*
X337219Y199075D01*
X336258Y198677D01*
X333742Y198677D01*
X331418Y199640D01*
X329640Y201418D01*
X328677Y203742D01*
X328677Y206258D01*
X329640Y208582D01*
X331418Y210360D01*
X333742Y211323D01*
X336258Y211323D01*
X338582Y210360D01*
X340360Y208582D01*
X341323Y206258D01*
X341323Y203742D01*
X340925Y202781D01*
X340898Y202668D01*
X340869Y202554D01*
X340870Y202548D01*
X340869Y202542D01*
X340880Y202426D01*
X340889Y202309D01*
X340891Y202303D01*
X340892Y202297D01*
X340939Y202190D01*
X340985Y202083D01*
X340990Y202077D01*
X340992Y202072D01*
X341004Y202059D01*
X341090Y201952D01*
X403768Y139274D01*
X403842Y139221D01*
X403911Y139161D01*
X403941Y139149D01*
X403968Y139130D01*
X404055Y139103D01*
X404139Y139069D01*
X404180Y139065D01*
X404203Y139058D01*
X404235Y139059D01*
X404306Y139051D01*
X426294Y139051D01*
X426384Y139065D01*
X426475Y139073D01*
X426505Y139085D01*
X426537Y139090D01*
X426617Y139133D01*
X426701Y139169D01*
X426733Y139195D01*
X426754Y139206D01*
X426776Y139229D01*
X426832Y139274D01*
X432226Y144668D01*
X432279Y144742D01*
X432339Y144811D01*
X432351Y144841D01*
X432370Y144868D01*
X432397Y144955D01*
X432431Y145039D01*
X432435Y145080D01*
X432442Y145103D01*
X432441Y145135D01*
X432449Y145206D01*
X432449Y147635D01*
X432434Y147731D01*
X432424Y147828D01*
X432414Y147852D01*
X432410Y147878D01*
X432364Y147964D01*
X432324Y148053D01*
X432307Y148072D01*
X432294Y148095D01*
X432224Y148162D01*
X432158Y148234D01*
X432135Y148246D01*
X432116Y148264D01*
X432028Y148305D01*
X431942Y148352D01*
X431917Y148357D01*
X431893Y148368D01*
X431796Y148379D01*
X431700Y148396D01*
X431674Y148392D01*
X431649Y148395D01*
X431553Y148375D01*
X431457Y148360D01*
X431434Y148349D01*
X431408Y148343D01*
X431325Y148293D01*
X431238Y148249D01*
X431219Y148230D01*
X431197Y148217D01*
X431134Y148143D01*
X431066Y148073D01*
X431050Y148045D01*
X431037Y148030D01*
X431025Y147999D01*
X430985Y147926D01*
X430360Y146418D01*
X428582Y144640D01*
X426258Y143677D01*
X423742Y143677D01*
X421418Y144640D01*
X419640Y146418D01*
X418677Y148742D01*
X418677Y151258D01*
X419640Y153582D01*
X421376Y155318D01*
X421429Y155392D01*
X421489Y155461D01*
X421501Y155492D01*
X421520Y155518D01*
X421547Y155605D01*
X421581Y155690D01*
X421585Y155731D01*
X421592Y155753D01*
X421591Y155785D01*
X421599Y155856D01*
X421599Y213276D01*
X421585Y213366D01*
X421577Y213457D01*
X421565Y213487D01*
X421560Y213519D01*
X421517Y213599D01*
X421481Y213683D01*
X421455Y213715D01*
X421444Y213736D01*
X421421Y213758D01*
X421376Y213814D01*
X368814Y266376D01*
X368740Y266429D01*
X368671Y266489D01*
X368641Y266501D01*
X368615Y266520D01*
X368528Y266547D01*
X368443Y266581D01*
X368402Y266585D01*
X368380Y266592D01*
X368347Y266591D01*
X368276Y266599D01*
X248591Y266599D01*
X201736Y313454D01*
X201662Y313507D01*
X201593Y313567D01*
X201563Y313579D01*
X201537Y313598D01*
X201450Y313625D01*
X201365Y313659D01*
X201324Y313663D01*
X201302Y313670D01*
X201269Y313669D01*
X201198Y313677D01*
X198742Y313677D01*
X196418Y314640D01*
X194640Y316418D01*
X193677Y318742D01*
X193677Y321258D01*
X194640Y323582D01*
X196418Y325360D01*
X198742Y326323D01*
X201258Y326323D01*
X203582Y325360D01*
X205360Y323582D01*
X206323Y321258D01*
X206323Y318802D01*
X206337Y318712D01*
X206345Y318621D01*
X206357Y318591D01*
X206362Y318559D01*
X206405Y318479D01*
X206441Y318395D01*
X206467Y318363D01*
X206478Y318342D01*
X206501Y318320D01*
X206546Y318264D01*
X251186Y273624D01*
X251260Y273571D01*
X251329Y273511D01*
X251359Y273499D01*
X251385Y273480D01*
X251472Y273453D01*
X251557Y273419D01*
X251598Y273415D01*
X251620Y273408D01*
X251653Y273409D01*
X251724Y273401D01*
X371409Y273401D01*
X428401Y216409D01*
X428401Y155856D01*
X428415Y155766D01*
X428423Y155675D01*
X428435Y155646D01*
X428440Y155614D01*
X428483Y155533D01*
X428519Y155449D01*
X428545Y155417D01*
X428556Y155396D01*
X428579Y155374D01*
X428624Y155318D01*
X430360Y153582D01*
X430985Y152074D01*
X431036Y151991D01*
X431082Y151905D01*
X431100Y151887D01*
X431114Y151865D01*
X431190Y151802D01*
X431260Y151736D01*
X431284Y151725D01*
X431304Y151708D01*
X431395Y151673D01*
X431483Y151632D01*
X431509Y151629D01*
X431533Y151620D01*
X431631Y151616D01*
X431727Y151605D01*
X431753Y151610D01*
X431779Y151609D01*
X431873Y151636D01*
X431968Y151657D01*
X431990Y151670D01*
X432015Y151678D01*
X432095Y151733D01*
X432179Y151783D01*
X432196Y151803D01*
X432217Y151818D01*
X432276Y151896D01*
X432339Y151970D01*
X432349Y151994D01*
X432364Y152015D01*
X432394Y152108D01*
X432431Y152198D01*
X432434Y152231D01*
X432440Y152249D01*
X432440Y152282D01*
X432449Y152365D01*
X432449Y672394D01*
X432435Y672484D01*
X432427Y672575D01*
X432415Y672605D01*
X432410Y672637D01*
X432367Y672717D01*
X432331Y672801D01*
X432305Y672833D01*
X432294Y672854D01*
X432271Y672876D01*
X432226Y672932D01*
X392807Y712351D01*
X392733Y712404D01*
X392664Y712464D01*
X392634Y712476D01*
X392607Y712495D01*
X392520Y712522D01*
X392436Y712556D01*
X392395Y712560D01*
X392372Y712567D01*
X392340Y712566D01*
X392269Y712574D01*
X345497Y712574D01*
X345470Y712601D01*
X345396Y712654D01*
X345327Y712714D01*
X345297Y712726D01*
X345270Y712745D01*
X345183Y712772D01*
X345099Y712806D01*
X345058Y712810D01*
X345035Y712817D01*
X345003Y712816D01*
X344932Y712824D01*
X308713Y712824D01*
X308643Y712813D01*
X308571Y712811D01*
X308522Y712793D01*
X308471Y712785D01*
X308407Y712751D01*
X308340Y712726D01*
X308299Y712694D01*
X308253Y712669D01*
X308204Y712617D01*
X308148Y712573D01*
X308120Y712529D01*
X308084Y712491D01*
X308054Y712426D01*
X308015Y712366D01*
X308002Y712315D01*
X307980Y712268D01*
X307972Y712197D01*
X307955Y712127D01*
X307959Y712075D01*
X307953Y712024D01*
X307968Y711953D01*
X307974Y711882D01*
X307994Y711834D01*
X308005Y711783D01*
X308042Y711722D01*
X308070Y711656D01*
X308115Y711600D01*
X308132Y711572D01*
X308149Y711557D01*
X308175Y711525D01*
X310971Y708729D01*
X312726Y704493D01*
X312726Y699907D01*
X310971Y695671D01*
X307729Y692429D01*
X303493Y690674D01*
X298907Y690674D01*
X294671Y692429D01*
X291429Y695671D01*
X289674Y699907D01*
X289674Y704493D01*
X291429Y708729D01*
X294225Y711525D01*
X294267Y711583D01*
X294316Y711635D01*
X294338Y711682D01*
X294368Y711724D01*
X294390Y711793D01*
X294420Y711858D01*
X294425Y711910D01*
X294441Y711960D01*
X294439Y712031D01*
X294447Y712102D01*
X294436Y712153D01*
X294434Y712205D01*
X294410Y712273D01*
X294395Y712343D01*
X294368Y712388D01*
X294350Y712436D01*
X294305Y712492D01*
X294268Y712554D01*
X294229Y712588D01*
X294196Y712628D01*
X294136Y712667D01*
X294082Y712714D01*
X294033Y712733D01*
X293989Y712761D01*
X293920Y712779D01*
X293853Y712806D01*
X293782Y712814D01*
X293751Y712822D01*
X293728Y712820D01*
X293687Y712824D01*
X239228Y712824D01*
X239138Y712810D01*
X239047Y712802D01*
X239017Y712790D01*
X238985Y712785D01*
X238904Y712742D01*
X238820Y712706D01*
X238788Y712680D01*
X238768Y712669D01*
X238745Y712646D01*
X238689Y712601D01*
X200987Y674899D01*
X160997Y674899D01*
X160882Y674880D01*
X160766Y674863D01*
X160760Y674861D01*
X160754Y674860D01*
X160651Y674805D01*
X160547Y674752D01*
X160542Y674747D01*
X160537Y674744D01*
X160457Y674660D01*
X160374Y674576D01*
X160371Y674570D01*
X160367Y674566D01*
X160359Y674549D01*
X160293Y674429D01*
X158571Y670271D01*
X155329Y667029D01*
X151093Y665274D01*
X146507Y665274D01*
X142271Y667029D01*
X139029Y670271D01*
X137274Y674507D01*
X137274Y679093D01*
X139029Y683329D01*
X142271Y686571D01*
X146507Y688326D01*
X151093Y688326D01*
X155329Y686571D01*
X158571Y683329D01*
X160293Y679171D01*
X160355Y679071D01*
X160415Y678971D01*
X160420Y678967D01*
X160423Y678962D01*
X160513Y678887D01*
X160602Y678811D01*
X160608Y678809D01*
X160613Y678805D01*
X160721Y678763D01*
X160830Y678719D01*
X160838Y678718D01*
X160842Y678717D01*
X160860Y678716D01*
X160997Y678701D01*
X199097Y678701D01*
X199187Y678715D01*
X199278Y678723D01*
X199308Y678735D01*
X199340Y678740D01*
X199421Y678783D01*
X199505Y678819D01*
X199537Y678845D01*
X199557Y678856D01*
X199580Y678879D01*
X199636Y678924D01*
X237338Y716626D01*
X294037Y716626D01*
X294107Y716637D01*
X294179Y716639D01*
X294228Y716657D01*
X294279Y716665D01*
X294343Y716699D01*
X294410Y716724D01*
X294451Y716756D01*
X294497Y716781D01*
X294546Y716833D01*
X294602Y716877D01*
X294630Y716921D01*
X294666Y716959D01*
X294696Y717024D01*
X294735Y717084D01*
X294748Y717135D01*
X294770Y717182D01*
X294778Y717253D01*
X294795Y717323D01*
X294791Y717375D01*
X294797Y717426D01*
X294782Y717497D01*
X294776Y717568D01*
X294756Y717616D01*
X294745Y717667D01*
X294708Y717728D01*
X294680Y717794D01*
X294635Y717850D01*
X294618Y717878D01*
X294601Y717893D01*
X294575Y717925D01*
X291429Y721071D01*
X289674Y725307D01*
X289674Y729893D01*
X291429Y734129D01*
X294225Y736925D01*
X294267Y736983D01*
X294316Y737035D01*
X294338Y737082D01*
X294368Y737124D01*
X294390Y737193D01*
X294420Y737258D01*
X294425Y737310D01*
X294441Y737360D01*
X294439Y737431D01*
X294447Y737502D01*
X294436Y737553D01*
X294434Y737605D01*
X294410Y737673D01*
X294395Y737743D01*
X294368Y737788D01*
X294350Y737836D01*
X294305Y737892D01*
X294268Y737954D01*
X294229Y737988D01*
X294196Y738028D01*
X294136Y738067D01*
X294082Y738114D01*
X294033Y738133D01*
X293989Y738161D01*
X293920Y738179D01*
X293853Y738206D01*
X293782Y738214D01*
X293751Y738222D01*
X293728Y738220D01*
X293687Y738224D01*
X247115Y738224D01*
X247024Y738210D01*
X246934Y738202D01*
X246904Y738190D01*
X246872Y738185D01*
X246791Y738142D01*
X246707Y738106D01*
X246675Y738080D01*
X246654Y738069D01*
X246632Y738046D01*
X246576Y738001D01*
X208874Y700299D01*
X160997Y700299D01*
X160882Y700280D01*
X160766Y700263D01*
X160760Y700261D01*
X160754Y700260D01*
X160651Y700205D01*
X160547Y700152D01*
X160542Y700147D01*
X160537Y700144D01*
X160457Y700060D01*
X160374Y699976D01*
X160371Y699970D01*
X160367Y699966D01*
X160359Y699949D01*
X160293Y699829D01*
X158571Y695671D01*
X155329Y692429D01*
X151093Y690674D01*
X146507Y690674D01*
X142271Y692429D01*
X139029Y695671D01*
X137274Y699907D01*
X137274Y704493D01*
X139029Y708729D01*
X142271Y711971D01*
X146507Y713726D01*
X151093Y713726D01*
X155329Y711971D01*
X158571Y708729D01*
X160293Y704571D01*
X160355Y704471D01*
X160415Y704371D01*
X160420Y704367D01*
X160423Y704362D01*
X160513Y704287D01*
X160602Y704211D01*
X160608Y704209D01*
X160613Y704205D01*
X160721Y704163D01*
X160830Y704119D01*
X160838Y704118D01*
X160842Y704117D01*
X160860Y704116D01*
X160997Y704101D01*
X206984Y704101D01*
X207074Y704115D01*
X207165Y704123D01*
X207195Y704135D01*
X207227Y704140D01*
X207308Y704183D01*
X207392Y704219D01*
X207424Y704245D01*
X207444Y704256D01*
X207467Y704279D01*
X207523Y704324D01*
X245225Y742026D01*
X294037Y742026D01*
X294107Y742037D01*
X294179Y742039D01*
X294228Y742057D01*
X294279Y742065D01*
X294343Y742099D01*
X294410Y742124D01*
X294451Y742156D01*
X294497Y742181D01*
X294546Y742233D01*
X294602Y742277D01*
X294630Y742321D01*
X294666Y742359D01*
X294696Y742424D01*
X294735Y742484D01*
X294748Y742535D01*
X294770Y742582D01*
X294778Y742653D01*
X294795Y742723D01*
X294791Y742775D01*
X294797Y742826D01*
X294782Y742897D01*
X294776Y742968D01*
X294756Y743016D01*
X294745Y743067D01*
X294708Y743128D01*
X294680Y743194D01*
X294635Y743250D01*
X294618Y743278D01*
X294601Y743293D01*
X294575Y743325D01*
X291429Y746471D01*
X289674Y750707D01*
X289674Y755293D01*
X291429Y759529D01*
X294671Y762771D01*
X298907Y764526D01*
X303493Y764526D01*
X307729Y762771D01*
X310971Y759529D01*
X312726Y755293D01*
X312726Y750707D01*
X310971Y746471D01*
X307825Y743325D01*
X307783Y743267D01*
X307734Y743215D01*
X307712Y743168D01*
X307682Y743126D01*
X307660Y743057D01*
X307630Y742992D01*
X307625Y742940D01*
X307609Y742890D01*
X307611Y742819D01*
X307603Y742748D01*
X307614Y742697D01*
X307616Y742645D01*
X307640Y742577D01*
X307655Y742507D01*
X307682Y742462D01*
X307700Y742414D01*
X307745Y742358D01*
X307782Y742296D01*
X307821Y742262D01*
X307854Y742222D01*
X307914Y742183D01*
X307968Y742136D01*
X308017Y742117D01*
X308061Y742089D01*
X308130Y742071D01*
X308197Y742044D01*
X308268Y742036D01*
X308299Y742028D01*
X308322Y742030D01*
X308363Y742026D01*
X344932Y742026D01*
X345022Y742040D01*
X345113Y742048D01*
X345143Y742060D01*
X345175Y742065D01*
X345255Y742108D01*
X345339Y742144D01*
X345371Y742170D01*
X345392Y742181D01*
X345414Y742204D01*
X345470Y742249D01*
X345497Y742276D01*
X393366Y742276D01*
X444851Y690791D01*
X444851Y137409D01*
X429291Y121849D01*
X395109Y121849D01*
G37*
%LPD*%
%LPC*%
G36*
X113742Y298677D02*
X113742Y298677D01*
X111418Y299640D01*
X109640Y301418D01*
X108677Y303742D01*
X108677Y306258D01*
X109640Y308582D01*
X111418Y310360D01*
X112629Y310862D01*
X112729Y310924D01*
X112829Y310983D01*
X112833Y310988D01*
X112838Y310991D01*
X112913Y311082D01*
X112989Y311170D01*
X112991Y311176D01*
X112995Y311181D01*
X113037Y311289D01*
X113081Y311398D01*
X113082Y311406D01*
X113083Y311410D01*
X113084Y311429D01*
X113099Y311565D01*
X113099Y318897D01*
X113085Y318987D01*
X113077Y319078D01*
X113065Y319108D01*
X113060Y319140D01*
X113017Y319221D01*
X112981Y319305D01*
X112955Y319337D01*
X112944Y319357D01*
X112921Y319380D01*
X112876Y319436D01*
X98436Y333876D01*
X98362Y333929D01*
X98292Y333989D01*
X98262Y334001D01*
X98236Y334020D01*
X98149Y334047D01*
X98064Y334081D01*
X98023Y334085D01*
X98001Y334092D01*
X97969Y334091D01*
X97897Y334099D01*
X17213Y334099D01*
X8099Y343213D01*
X8099Y903787D01*
X35676Y931364D01*
X36386Y932074D01*
X36443Y932153D01*
X36505Y932228D01*
X36514Y932252D01*
X36529Y932274D01*
X36558Y932367D01*
X36593Y932458D01*
X36594Y932484D01*
X36602Y932509D01*
X36599Y932606D01*
X36603Y932703D01*
X36596Y932729D01*
X36595Y932755D01*
X36562Y932846D01*
X36535Y932940D01*
X36520Y932961D01*
X36511Y932986D01*
X36450Y933062D01*
X36395Y933142D01*
X36374Y933157D01*
X36357Y933178D01*
X36275Y933230D01*
X36197Y933288D01*
X36172Y933297D01*
X36150Y933311D01*
X36056Y933335D01*
X35963Y933365D01*
X35937Y933364D01*
X35912Y933371D01*
X35815Y933363D01*
X35717Y933362D01*
X35686Y933353D01*
X35667Y933352D01*
X35636Y933339D01*
X35556Y933316D01*
X33489Y932459D01*
X26511Y932459D01*
X20064Y935130D01*
X15130Y940064D01*
X12459Y946511D01*
X12459Y953489D01*
X15130Y959936D01*
X20064Y964870D01*
X26511Y967541D01*
X33489Y967541D01*
X39936Y964870D01*
X44870Y959936D01*
X47541Y953489D01*
X47541Y946511D01*
X44870Y940064D01*
X39936Y935130D01*
X37608Y934165D01*
X37525Y934114D01*
X37439Y934068D01*
X37421Y934049D01*
X37399Y934036D01*
X37337Y933961D01*
X37270Y933890D01*
X37259Y933866D01*
X37242Y933846D01*
X37207Y933755D01*
X37166Y933667D01*
X37163Y933641D01*
X37154Y933617D01*
X37150Y933519D01*
X37139Y933423D01*
X37144Y933397D01*
X37143Y933371D01*
X37170Y933277D01*
X37191Y933182D01*
X37205Y933160D01*
X37212Y933135D01*
X37267Y933055D01*
X37317Y932971D01*
X37337Y932954D01*
X37352Y932933D01*
X37430Y932874D01*
X37504Y932811D01*
X37528Y932801D01*
X37549Y932786D01*
X37642Y932756D01*
X37732Y932719D01*
X37765Y932716D01*
X37783Y932710D01*
X37816Y932710D01*
X37899Y932701D01*
X136603Y932701D01*
X136718Y932720D01*
X136834Y932737D01*
X136840Y932739D01*
X136846Y932740D01*
X136949Y932795D01*
X137053Y932848D01*
X137058Y932853D01*
X137063Y932856D01*
X137143Y932940D01*
X137226Y933024D01*
X137229Y933030D01*
X137233Y933034D01*
X137241Y933051D01*
X137307Y933171D01*
X139029Y937329D01*
X142271Y940571D01*
X146507Y942326D01*
X151093Y942326D01*
X155329Y940571D01*
X158571Y937329D01*
X160326Y933093D01*
X160326Y928507D01*
X158571Y924271D01*
X155329Y921029D01*
X151093Y919274D01*
X146507Y919274D01*
X142271Y921029D01*
X139029Y924271D01*
X137307Y928429D01*
X137245Y928529D01*
X137185Y928629D01*
X137180Y928633D01*
X137177Y928638D01*
X137087Y928713D01*
X136998Y928789D01*
X136992Y928791D01*
X136987Y928795D01*
X136879Y928837D01*
X136770Y928881D01*
X136762Y928882D01*
X136758Y928883D01*
X136740Y928884D01*
X136603Y928899D01*
X38903Y928899D01*
X38813Y928885D01*
X38722Y928877D01*
X38692Y928865D01*
X38660Y928860D01*
X38579Y928817D01*
X38495Y928781D01*
X38463Y928755D01*
X38443Y928744D01*
X38420Y928721D01*
X38364Y928676D01*
X12124Y902436D01*
X12071Y902362D01*
X12011Y902292D01*
X11999Y902262D01*
X11980Y902236D01*
X11953Y902149D01*
X11919Y902064D01*
X11915Y902023D01*
X11908Y902001D01*
X11909Y901969D01*
X11901Y901897D01*
X11901Y345103D01*
X11904Y345083D01*
X11902Y345064D01*
X11917Y344994D01*
X11923Y344922D01*
X11935Y344892D01*
X11940Y344860D01*
X11950Y344842D01*
X11954Y344823D01*
X11990Y344763D01*
X12019Y344695D01*
X12045Y344663D01*
X12056Y344643D01*
X12071Y344628D01*
X12080Y344612D01*
X12096Y344598D01*
X12124Y344564D01*
X18564Y338124D01*
X18638Y338071D01*
X18708Y338011D01*
X18738Y337999D01*
X18764Y337980D01*
X18851Y337953D01*
X18936Y337919D01*
X18977Y337915D01*
X18999Y337908D01*
X19031Y337909D01*
X19103Y337901D01*
X99787Y337901D01*
X116901Y320787D01*
X116901Y311565D01*
X116920Y311450D01*
X116937Y311334D01*
X116939Y311328D01*
X116940Y311322D01*
X116995Y311220D01*
X117048Y311115D01*
X117053Y311110D01*
X117056Y311105D01*
X117140Y311025D01*
X117224Y310943D01*
X117230Y310939D01*
X117234Y310936D01*
X117251Y310928D01*
X117371Y310862D01*
X118582Y310360D01*
X120360Y308582D01*
X121323Y306258D01*
X121323Y303742D01*
X120360Y301418D01*
X118582Y299640D01*
X116258Y298677D01*
X113742Y298677D01*
G37*
%LPD*%
%LPC*%
G36*
X133742Y298677D02*
X133742Y298677D01*
X131418Y299640D01*
X129640Y301418D01*
X128677Y303742D01*
X128677Y306258D01*
X129640Y308582D01*
X131418Y310360D01*
X132157Y310666D01*
X132196Y310690D01*
X132239Y310706D01*
X132300Y310755D01*
X132366Y310796D01*
X132396Y310831D01*
X132431Y310860D01*
X132473Y310925D01*
X132523Y310985D01*
X132540Y311028D01*
X132564Y311067D01*
X132583Y311142D01*
X132611Y311215D01*
X132613Y311261D01*
X132624Y311305D01*
X132618Y311383D01*
X132622Y311461D01*
X132609Y311505D01*
X132605Y311550D01*
X132575Y311622D01*
X132553Y311697D01*
X132527Y311735D01*
X132509Y311777D01*
X132424Y311883D01*
X132413Y311899D01*
X132409Y311902D01*
X132404Y311908D01*
X99436Y344876D01*
X99362Y344929D01*
X99292Y344989D01*
X99262Y345001D01*
X99236Y345020D01*
X99149Y345047D01*
X99064Y345081D01*
X99023Y345085D01*
X99001Y345092D01*
X98969Y345091D01*
X98897Y345099D01*
X23213Y345099D01*
X21876Y346436D01*
X15436Y352876D01*
X14099Y354213D01*
X14099Y898787D01*
X38213Y922901D01*
X133987Y922901D01*
X141520Y915368D01*
X141615Y915300D01*
X141708Y915230D01*
X141714Y915228D01*
X141719Y915225D01*
X141831Y915191D01*
X141942Y915154D01*
X141949Y915154D01*
X141954Y915152D01*
X142071Y915155D01*
X142188Y915157D01*
X142195Y915159D01*
X142200Y915159D01*
X142218Y915165D01*
X142349Y915203D01*
X146507Y916926D01*
X151093Y916926D01*
X155329Y915171D01*
X158571Y911929D01*
X160326Y907693D01*
X160326Y903107D01*
X158571Y898871D01*
X155329Y895629D01*
X151093Y893874D01*
X146507Y893874D01*
X142271Y895629D01*
X139029Y898871D01*
X137274Y903107D01*
X137274Y907693D01*
X138997Y911851D01*
X139023Y911964D01*
X139052Y912078D01*
X139051Y912084D01*
X139053Y912090D01*
X139042Y912207D01*
X139033Y912323D01*
X139030Y912329D01*
X139030Y912335D01*
X138982Y912443D01*
X138936Y912549D01*
X138932Y912555D01*
X138930Y912560D01*
X138917Y912574D01*
X138832Y912680D01*
X132636Y918876D01*
X132562Y918929D01*
X132492Y918989D01*
X132462Y919001D01*
X132436Y919020D01*
X132349Y919047D01*
X132264Y919081D01*
X132223Y919085D01*
X132201Y919092D01*
X132169Y919091D01*
X132097Y919099D01*
X67210Y919099D01*
X67114Y919084D01*
X67017Y919074D01*
X66993Y919064D01*
X66967Y919060D01*
X66881Y919014D01*
X66792Y918974D01*
X66773Y918957D01*
X66750Y918944D01*
X66683Y918874D01*
X66611Y918808D01*
X66599Y918785D01*
X66580Y918766D01*
X66539Y918678D01*
X66493Y918592D01*
X66488Y918567D01*
X66477Y918543D01*
X66466Y918446D01*
X66449Y918350D01*
X66453Y918324D01*
X66450Y918299D01*
X66470Y918204D01*
X66485Y918107D01*
X66496Y918084D01*
X66502Y918058D01*
X66552Y917974D01*
X66596Y917888D01*
X66615Y917870D01*
X66628Y917847D01*
X66702Y917784D01*
X66772Y917716D01*
X66800Y917700D01*
X66815Y917687D01*
X66846Y917675D01*
X66848Y917674D01*
X66848Y917673D01*
X66919Y917635D01*
X67582Y917360D01*
X69360Y915582D01*
X70323Y913258D01*
X70323Y910742D01*
X69360Y908418D01*
X67582Y906640D01*
X66871Y906345D01*
X66771Y906284D01*
X66671Y906224D01*
X66667Y906219D01*
X66662Y906216D01*
X66587Y906126D01*
X66511Y906037D01*
X66509Y906031D01*
X66505Y906026D01*
X66463Y905918D01*
X66419Y905809D01*
X66418Y905801D01*
X66417Y905797D01*
X66416Y905778D01*
X66401Y905642D01*
X66401Y884310D01*
X66415Y884220D01*
X66423Y884129D01*
X66435Y884099D01*
X66440Y884067D01*
X66483Y883986D01*
X66519Y883902D01*
X66545Y883870D01*
X66556Y883850D01*
X66579Y883827D01*
X66624Y883771D01*
X82771Y867624D01*
X82845Y867571D01*
X82915Y867511D01*
X82945Y867499D01*
X82971Y867480D01*
X83058Y867453D01*
X83143Y867419D01*
X83184Y867415D01*
X83206Y867408D01*
X83238Y867409D01*
X83310Y867401D01*
X103642Y867401D01*
X103757Y867420D01*
X103873Y867437D01*
X103879Y867439D01*
X103885Y867440D01*
X103987Y867495D01*
X104092Y867548D01*
X104097Y867553D01*
X104102Y867556D01*
X104182Y867640D01*
X104265Y867724D01*
X104268Y867730D01*
X104272Y867734D01*
X104279Y867751D01*
X104345Y867871D01*
X104640Y868582D01*
X106418Y870360D01*
X108742Y871323D01*
X111258Y871323D01*
X113582Y870360D01*
X115360Y868582D01*
X116323Y866258D01*
X116323Y863742D01*
X115360Y861418D01*
X113582Y859640D01*
X111258Y858677D01*
X108742Y858677D01*
X106418Y859640D01*
X104640Y861418D01*
X104345Y862129D01*
X104284Y862229D01*
X104224Y862329D01*
X104219Y862333D01*
X104216Y862338D01*
X104126Y862413D01*
X104037Y862489D01*
X104031Y862491D01*
X104026Y862495D01*
X103918Y862537D01*
X103809Y862581D01*
X103801Y862582D01*
X103797Y862583D01*
X103778Y862584D01*
X103642Y862599D01*
X81006Y862599D01*
X61599Y882006D01*
X61599Y905642D01*
X61580Y905757D01*
X61563Y905873D01*
X61561Y905879D01*
X61560Y905885D01*
X61505Y905987D01*
X61452Y906092D01*
X61447Y906097D01*
X61444Y906102D01*
X61360Y906182D01*
X61276Y906265D01*
X61270Y906268D01*
X61266Y906272D01*
X61249Y906279D01*
X61129Y906345D01*
X60418Y906640D01*
X58640Y908418D01*
X57677Y910742D01*
X57677Y913258D01*
X58640Y915582D01*
X60418Y917360D01*
X61081Y917635D01*
X61164Y917686D01*
X61250Y917732D01*
X61268Y917751D01*
X61290Y917764D01*
X61353Y917839D01*
X61420Y917910D01*
X61431Y917934D01*
X61447Y917954D01*
X61482Y918045D01*
X61523Y918133D01*
X61526Y918159D01*
X61535Y918183D01*
X61540Y918281D01*
X61550Y918377D01*
X61545Y918403D01*
X61546Y918429D01*
X61519Y918523D01*
X61498Y918618D01*
X61485Y918640D01*
X61477Y918665D01*
X61422Y918745D01*
X61372Y918829D01*
X61352Y918846D01*
X61337Y918867D01*
X61259Y918926D01*
X61185Y918989D01*
X61161Y918999D01*
X61140Y919014D01*
X61047Y919044D01*
X60957Y919081D01*
X60924Y919084D01*
X60906Y919090D01*
X60873Y919090D01*
X60790Y919099D01*
X40103Y919099D01*
X40013Y919085D01*
X39922Y919077D01*
X39892Y919065D01*
X39860Y919060D01*
X39779Y919017D01*
X39695Y918981D01*
X39663Y918955D01*
X39643Y918944D01*
X39630Y918932D01*
X39629Y918931D01*
X39617Y918919D01*
X39564Y918876D01*
X18124Y897436D01*
X18071Y897362D01*
X18011Y897292D01*
X17999Y897262D01*
X17980Y897236D01*
X17953Y897149D01*
X17919Y897064D01*
X17915Y897023D01*
X17908Y897001D01*
X17909Y896969D01*
X17901Y896897D01*
X17901Y356103D01*
X17915Y356013D01*
X17923Y355922D01*
X17935Y355892D01*
X17940Y355860D01*
X17983Y355779D01*
X18019Y355695D01*
X18045Y355663D01*
X18056Y355643D01*
X18079Y355620D01*
X18124Y355564D01*
X24564Y349124D01*
X24638Y349071D01*
X24708Y349011D01*
X24738Y348999D01*
X24764Y348980D01*
X24851Y348953D01*
X24936Y348919D01*
X24977Y348915D01*
X24999Y348908D01*
X25031Y348909D01*
X25103Y348901D01*
X100787Y348901D01*
X136901Y312787D01*
X136901Y311565D01*
X136920Y311450D01*
X136937Y311334D01*
X136939Y311328D01*
X136940Y311322D01*
X136995Y311220D01*
X137048Y311115D01*
X137053Y311110D01*
X137056Y311105D01*
X137140Y311025D01*
X137224Y310943D01*
X137230Y310939D01*
X137234Y310936D01*
X137251Y310928D01*
X137371Y310862D01*
X138582Y310360D01*
X140360Y308582D01*
X141323Y306258D01*
X141323Y303742D01*
X140360Y301418D01*
X138582Y299640D01*
X136258Y298677D01*
X133742Y298677D01*
G37*
%LPD*%
%LPC*%
G36*
X108742Y398677D02*
X108742Y398677D01*
X106418Y399640D01*
X104640Y401418D01*
X103677Y403742D01*
X103677Y406258D01*
X104179Y407469D01*
X104206Y407582D01*
X104234Y407696D01*
X104234Y407702D01*
X104235Y407708D01*
X104224Y407824D01*
X104215Y407941D01*
X104213Y407947D01*
X104212Y407953D01*
X104164Y408061D01*
X104119Y408167D01*
X104114Y408173D01*
X104112Y408178D01*
X104099Y408192D01*
X104014Y408298D01*
X99436Y412876D01*
X99362Y412929D01*
X99292Y412989D01*
X99262Y413001D01*
X99236Y413020D01*
X99149Y413047D01*
X99064Y413081D01*
X99023Y413085D01*
X99001Y413092D01*
X98969Y413091D01*
X98897Y413099D01*
X51213Y413099D01*
X28099Y436213D01*
X28099Y820787D01*
X38413Y831101D01*
X136603Y831101D01*
X136718Y831120D01*
X136834Y831137D01*
X136840Y831139D01*
X136846Y831140D01*
X136949Y831195D01*
X137053Y831248D01*
X137058Y831253D01*
X137063Y831256D01*
X137143Y831340D01*
X137226Y831424D01*
X137229Y831430D01*
X137233Y831434D01*
X137241Y831451D01*
X137307Y831571D01*
X139029Y835729D01*
X142271Y838971D01*
X146507Y840726D01*
X151093Y840726D01*
X155329Y838971D01*
X158571Y835729D01*
X160326Y831493D01*
X160326Y826907D01*
X158571Y822671D01*
X155329Y819429D01*
X151093Y817674D01*
X146507Y817674D01*
X142271Y819429D01*
X139029Y822671D01*
X137307Y826829D01*
X137245Y826929D01*
X137185Y827029D01*
X137180Y827033D01*
X137177Y827038D01*
X137087Y827113D01*
X136998Y827189D01*
X136992Y827191D01*
X136987Y827195D01*
X136879Y827237D01*
X136770Y827281D01*
X136762Y827282D01*
X136758Y827283D01*
X136740Y827284D01*
X136603Y827299D01*
X40303Y827299D01*
X40213Y827285D01*
X40122Y827277D01*
X40092Y827265D01*
X40060Y827260D01*
X39979Y827217D01*
X39895Y827181D01*
X39863Y827155D01*
X39843Y827144D01*
X39820Y827121D01*
X39764Y827076D01*
X32124Y819436D01*
X32071Y819362D01*
X32011Y819292D01*
X31999Y819262D01*
X31980Y819236D01*
X31953Y819149D01*
X31919Y819064D01*
X31915Y819023D01*
X31908Y819001D01*
X31909Y818969D01*
X31901Y818897D01*
X31901Y438103D01*
X31915Y438013D01*
X31923Y437922D01*
X31935Y437892D01*
X31940Y437860D01*
X31983Y437779D01*
X32019Y437695D01*
X32045Y437663D01*
X32056Y437643D01*
X32079Y437620D01*
X32124Y437564D01*
X52564Y417124D01*
X52638Y417071D01*
X52708Y417011D01*
X52738Y416999D01*
X52764Y416980D01*
X52851Y416953D01*
X52936Y416919D01*
X52977Y416915D01*
X52999Y416908D01*
X53031Y416909D01*
X53103Y416901D01*
X100787Y416901D01*
X102124Y415564D01*
X106702Y410986D01*
X106797Y410918D01*
X106891Y410848D01*
X106896Y410846D01*
X106902Y410843D01*
X107013Y410808D01*
X107124Y410772D01*
X107131Y410772D01*
X107137Y410770D01*
X107253Y410773D01*
X107370Y410774D01*
X107378Y410777D01*
X107383Y410777D01*
X107400Y410783D01*
X107531Y410821D01*
X108742Y411323D01*
X111258Y411323D01*
X113582Y410360D01*
X115360Y408582D01*
X116323Y406258D01*
X116323Y403742D01*
X115360Y401418D01*
X113582Y399640D01*
X111258Y398677D01*
X108742Y398677D01*
G37*
%LPD*%
%LPC*%
G36*
X58742Y398677D02*
X58742Y398677D01*
X56418Y399640D01*
X54640Y401418D01*
X54138Y402629D01*
X54076Y402729D01*
X54017Y402829D01*
X54012Y402833D01*
X54009Y402838D01*
X53918Y402913D01*
X53830Y402989D01*
X53824Y402991D01*
X53819Y402995D01*
X53711Y403037D01*
X53602Y403081D01*
X53594Y403082D01*
X53590Y403083D01*
X53571Y403084D01*
X53435Y403099D01*
X48213Y403099D01*
X22099Y429213D01*
X22099Y840787D01*
X38213Y856901D01*
X136769Y856901D01*
X136884Y856920D01*
X137000Y856937D01*
X137006Y856939D01*
X137012Y856940D01*
X137114Y856995D01*
X137219Y857048D01*
X137224Y857053D01*
X137229Y857056D01*
X137309Y857140D01*
X137391Y857224D01*
X137395Y857230D01*
X137398Y857234D01*
X137406Y857251D01*
X137472Y857371D01*
X139029Y861129D01*
X142271Y864371D01*
X146507Y866126D01*
X151093Y866126D01*
X155329Y864371D01*
X158571Y861129D01*
X160326Y856893D01*
X160326Y852307D01*
X158571Y848071D01*
X155329Y844829D01*
X151093Y843074D01*
X146507Y843074D01*
X142271Y844829D01*
X139029Y848071D01*
X137274Y852307D01*
X137274Y852338D01*
X137271Y852358D01*
X137273Y852377D01*
X137251Y852479D01*
X137235Y852581D01*
X137225Y852598D01*
X137221Y852618D01*
X137168Y852707D01*
X137119Y852798D01*
X137105Y852812D01*
X137095Y852829D01*
X137016Y852896D01*
X136941Y852968D01*
X136923Y852976D01*
X136908Y852989D01*
X136812Y853028D01*
X136718Y853071D01*
X136698Y853073D01*
X136680Y853081D01*
X136513Y853099D01*
X40103Y853099D01*
X40013Y853085D01*
X39922Y853077D01*
X39892Y853065D01*
X39860Y853060D01*
X39779Y853017D01*
X39695Y852981D01*
X39663Y852955D01*
X39643Y852944D01*
X39620Y852921D01*
X39564Y852876D01*
X26124Y839436D01*
X26071Y839362D01*
X26011Y839292D01*
X25999Y839262D01*
X25980Y839236D01*
X25953Y839149D01*
X25919Y839064D01*
X25915Y839023D01*
X25908Y839001D01*
X25909Y838969D01*
X25901Y838897D01*
X25901Y431103D01*
X25903Y431092D01*
X25902Y431085D01*
X25909Y431050D01*
X25915Y431013D01*
X25923Y430922D01*
X25935Y430892D01*
X25940Y430860D01*
X25983Y430779D01*
X26019Y430695D01*
X26045Y430663D01*
X26056Y430643D01*
X26079Y430620D01*
X26124Y430564D01*
X49564Y407124D01*
X49638Y407071D01*
X49708Y407011D01*
X49738Y406999D01*
X49764Y406980D01*
X49851Y406953D01*
X49936Y406919D01*
X49977Y406915D01*
X49999Y406908D01*
X50031Y406909D01*
X50103Y406901D01*
X53435Y406901D01*
X53550Y406920D01*
X53666Y406937D01*
X53672Y406939D01*
X53678Y406940D01*
X53780Y406995D01*
X53885Y407048D01*
X53890Y407053D01*
X53895Y407056D01*
X53975Y407140D01*
X54057Y407224D01*
X54061Y407230D01*
X54064Y407234D01*
X54072Y407251D01*
X54138Y407371D01*
X54640Y408582D01*
X56418Y410360D01*
X58742Y411323D01*
X61258Y411323D01*
X63582Y410360D01*
X65360Y408582D01*
X66323Y406258D01*
X66323Y403742D01*
X65360Y401418D01*
X63582Y399640D01*
X61258Y398677D01*
X58742Y398677D01*
G37*
%LPD*%
%LPC*%
G36*
X403742Y143677D02*
X403742Y143677D01*
X401418Y144640D01*
X399640Y146418D01*
X398677Y148742D01*
X398677Y151258D01*
X399640Y153582D01*
X401376Y155318D01*
X401429Y155392D01*
X401489Y155461D01*
X401501Y155492D01*
X401520Y155518D01*
X401547Y155605D01*
X401581Y155690D01*
X401585Y155731D01*
X401592Y155753D01*
X401591Y155785D01*
X401599Y155856D01*
X401599Y203276D01*
X401585Y203366D01*
X401577Y203457D01*
X401565Y203487D01*
X401560Y203519D01*
X401517Y203600D01*
X401481Y203683D01*
X401455Y203716D01*
X401444Y203736D01*
X401421Y203758D01*
X401376Y203814D01*
X358814Y246376D01*
X358740Y246429D01*
X358671Y246489D01*
X358641Y246501D01*
X358615Y246520D01*
X358528Y246547D01*
X358443Y246581D01*
X358402Y246585D01*
X358380Y246592D01*
X358347Y246591D01*
X358276Y246599D01*
X218591Y246599D01*
X151736Y313454D01*
X151662Y313507D01*
X151593Y313567D01*
X151563Y313579D01*
X151537Y313598D01*
X151450Y313625D01*
X151365Y313659D01*
X151324Y313663D01*
X151302Y313670D01*
X151269Y313669D01*
X151198Y313677D01*
X148742Y313677D01*
X146418Y314640D01*
X144640Y316418D01*
X143677Y318742D01*
X143677Y321258D01*
X144640Y323582D01*
X146418Y325360D01*
X148742Y326323D01*
X151258Y326323D01*
X153582Y325360D01*
X155360Y323582D01*
X156323Y321258D01*
X156323Y318802D01*
X156337Y318712D01*
X156345Y318621D01*
X156357Y318591D01*
X156362Y318559D01*
X156405Y318479D01*
X156441Y318395D01*
X156467Y318363D01*
X156478Y318342D01*
X156501Y318320D01*
X156546Y318264D01*
X221186Y253624D01*
X221260Y253571D01*
X221329Y253511D01*
X221359Y253499D01*
X221385Y253480D01*
X221472Y253453D01*
X221557Y253419D01*
X221598Y253415D01*
X221620Y253408D01*
X221653Y253409D01*
X221724Y253401D01*
X361409Y253401D01*
X406186Y208624D01*
X408401Y206409D01*
X408401Y155856D01*
X408415Y155766D01*
X408423Y155675D01*
X408435Y155646D01*
X408440Y155614D01*
X408483Y155533D01*
X408519Y155449D01*
X408545Y155417D01*
X408556Y155396D01*
X408579Y155374D01*
X408624Y155318D01*
X410360Y153582D01*
X411323Y151258D01*
X411323Y148742D01*
X410360Y146418D01*
X408582Y144640D01*
X406258Y143677D01*
X403742Y143677D01*
G37*
%LPD*%
%LPC*%
G36*
X93742Y206677D02*
X93742Y206677D01*
X91418Y207640D01*
X89640Y209418D01*
X88677Y211742D01*
X88677Y214258D01*
X89640Y216582D01*
X91418Y218360D01*
X93742Y219323D01*
X96198Y219323D01*
X96288Y219337D01*
X96379Y219345D01*
X96409Y219357D01*
X96441Y219362D01*
X96521Y219405D01*
X96605Y219441D01*
X96637Y219467D01*
X96658Y219478D01*
X96680Y219501D01*
X96736Y219546D01*
X106591Y229401D01*
X340144Y229401D01*
X340234Y229415D01*
X340325Y229423D01*
X340354Y229435D01*
X340386Y229440D01*
X340467Y229483D01*
X340551Y229519D01*
X340583Y229545D01*
X340604Y229556D01*
X340626Y229579D01*
X340682Y229624D01*
X342418Y231360D01*
X344742Y232323D01*
X347258Y232323D01*
X349582Y231360D01*
X351360Y229582D01*
X352323Y227258D01*
X352323Y224742D01*
X351360Y222418D01*
X349582Y220640D01*
X347258Y219677D01*
X344742Y219677D01*
X342418Y220640D01*
X340682Y222376D01*
X340608Y222429D01*
X340539Y222489D01*
X340508Y222501D01*
X340482Y222520D01*
X340395Y222547D01*
X340310Y222581D01*
X340269Y222585D01*
X340247Y222592D01*
X340215Y222591D01*
X340144Y222599D01*
X109724Y222599D01*
X109634Y222585D01*
X109543Y222577D01*
X109513Y222565D01*
X109481Y222560D01*
X109401Y222517D01*
X109317Y222481D01*
X109285Y222455D01*
X109264Y222444D01*
X109242Y222421D01*
X109186Y222376D01*
X101546Y214736D01*
X101493Y214662D01*
X101433Y214593D01*
X101421Y214563D01*
X101402Y214537D01*
X101375Y214450D01*
X101341Y214365D01*
X101337Y214324D01*
X101330Y214302D01*
X101331Y214269D01*
X101323Y214198D01*
X101323Y211742D01*
X100360Y209418D01*
X98582Y207640D01*
X96258Y206677D01*
X93742Y206677D01*
G37*
%LPD*%
%LPC*%
G36*
X73742Y206677D02*
X73742Y206677D01*
X71418Y207640D01*
X69640Y209418D01*
X68677Y211742D01*
X68677Y214258D01*
X69041Y215137D01*
X69056Y215200D01*
X69081Y215261D01*
X69090Y215344D01*
X69097Y215376D01*
X69096Y215395D01*
X69099Y215428D01*
X69099Y296174D01*
X69998Y298343D01*
X94111Y322456D01*
X94149Y322509D01*
X94195Y322556D01*
X94235Y322629D01*
X94254Y322655D01*
X94260Y322674D01*
X94276Y322703D01*
X94640Y323582D01*
X96418Y325360D01*
X98742Y326323D01*
X101258Y326323D01*
X103582Y325360D01*
X105360Y323582D01*
X106323Y321258D01*
X106323Y318742D01*
X105360Y316418D01*
X103582Y314640D01*
X102703Y314276D01*
X102647Y314241D01*
X102587Y314216D01*
X102522Y314164D01*
X102494Y314146D01*
X102481Y314131D01*
X102456Y314111D01*
X81124Y292779D01*
X81071Y292705D01*
X81011Y292635D01*
X80999Y292605D01*
X80980Y292579D01*
X80953Y292492D01*
X80919Y292407D01*
X80915Y292366D01*
X80908Y292344D01*
X80909Y292312D01*
X80901Y292241D01*
X80901Y215428D01*
X80911Y215363D01*
X80912Y215298D01*
X80935Y215218D01*
X80940Y215185D01*
X80950Y215168D01*
X80959Y215137D01*
X81323Y214258D01*
X81323Y211742D01*
X80360Y209418D01*
X78582Y207640D01*
X76258Y206677D01*
X73742Y206677D01*
G37*
%LPD*%
%LPC*%
G36*
X373742Y288677D02*
X373742Y288677D01*
X371418Y289640D01*
X369640Y291418D01*
X368677Y293742D01*
X368677Y296258D01*
X369640Y298582D01*
X371376Y300318D01*
X371429Y300392D01*
X371489Y300461D01*
X371501Y300492D01*
X371520Y300518D01*
X371547Y300605D01*
X371581Y300690D01*
X371585Y300731D01*
X371592Y300753D01*
X371591Y300785D01*
X371599Y300856D01*
X371599Y390276D01*
X371585Y390366D01*
X371577Y390457D01*
X371565Y390487D01*
X371560Y390519D01*
X371517Y390599D01*
X371481Y390683D01*
X371455Y390715D01*
X371444Y390736D01*
X371421Y390758D01*
X371376Y390814D01*
X324736Y437454D01*
X324662Y437507D01*
X324593Y437567D01*
X324563Y437579D01*
X324537Y437598D01*
X324450Y437625D01*
X324365Y437659D01*
X324324Y437663D01*
X324302Y437670D01*
X324269Y437669D01*
X324198Y437677D01*
X321742Y437677D01*
X319418Y438640D01*
X317640Y440418D01*
X316677Y442742D01*
X316677Y445258D01*
X317640Y447582D01*
X319418Y449360D01*
X321742Y450323D01*
X324258Y450323D01*
X326582Y449360D01*
X328360Y447582D01*
X329323Y445258D01*
X329323Y442802D01*
X329337Y442712D01*
X329345Y442621D01*
X329357Y442591D01*
X329362Y442559D01*
X329405Y442479D01*
X329441Y442395D01*
X329467Y442363D01*
X329478Y442342D01*
X329501Y442320D01*
X329546Y442264D01*
X378401Y393409D01*
X378401Y300856D01*
X378415Y300766D01*
X378423Y300675D01*
X378435Y300646D01*
X378440Y300614D01*
X378483Y300533D01*
X378519Y300449D01*
X378545Y300417D01*
X378556Y300396D01*
X378579Y300374D01*
X378624Y300318D01*
X380360Y298582D01*
X381323Y296258D01*
X381323Y293742D01*
X380360Y291418D01*
X378582Y289640D01*
X376258Y288677D01*
X373742Y288677D01*
G37*
%LPD*%
%LPC*%
G36*
X416511Y932459D02*
X416511Y932459D01*
X410064Y935130D01*
X405130Y940064D01*
X402459Y946511D01*
X402459Y953489D01*
X405130Y959936D01*
X410064Y964870D01*
X416511Y967541D01*
X423489Y967541D01*
X429936Y964870D01*
X434870Y959936D01*
X437541Y953489D01*
X437541Y946511D01*
X434870Y940064D01*
X429936Y935130D01*
X423489Y932459D01*
X416511Y932459D01*
G37*
%LPD*%
%LPC*%
G36*
X26511Y12459D02*
X26511Y12459D01*
X20064Y15130D01*
X15130Y20064D01*
X12459Y26511D01*
X12459Y33489D01*
X15130Y39936D01*
X20064Y44870D01*
X26511Y47541D01*
X33489Y47541D01*
X39936Y44870D01*
X44870Y39936D01*
X47541Y33489D01*
X47541Y26511D01*
X44870Y20064D01*
X39936Y15130D01*
X33489Y12459D01*
X26511Y12459D01*
G37*
%LPD*%
%LPC*%
G36*
X416511Y12459D02*
X416511Y12459D01*
X410064Y15130D01*
X405130Y20064D01*
X402459Y26511D01*
X402459Y33489D01*
X405130Y39936D01*
X410064Y44870D01*
X416511Y47541D01*
X423489Y47541D01*
X429936Y44870D01*
X434870Y39936D01*
X437541Y33489D01*
X437541Y26511D01*
X434870Y20064D01*
X429936Y15130D01*
X423489Y12459D01*
X416511Y12459D01*
G37*
%LPD*%
%LPC*%
G36*
X146507Y614474D02*
X146507Y614474D01*
X142271Y616229D01*
X139029Y619471D01*
X137514Y623129D01*
X137452Y623229D01*
X137392Y623329D01*
X137387Y623333D01*
X137384Y623338D01*
X137294Y623413D01*
X137205Y623489D01*
X137199Y623491D01*
X137195Y623495D01*
X137087Y623537D01*
X136977Y623581D01*
X136970Y623582D01*
X136965Y623583D01*
X136947Y623584D01*
X136810Y623599D01*
X133006Y623599D01*
X125599Y631006D01*
X125599Y668642D01*
X125597Y668659D01*
X125598Y668674D01*
X125581Y668752D01*
X125580Y668757D01*
X125563Y668873D01*
X125561Y668879D01*
X125560Y668885D01*
X125547Y668908D01*
X125546Y668914D01*
X125528Y668945D01*
X125505Y668987D01*
X125452Y669092D01*
X125447Y669097D01*
X125444Y669102D01*
X125360Y669182D01*
X125276Y669265D01*
X125270Y669268D01*
X125266Y669272D01*
X125249Y669279D01*
X125129Y669345D01*
X124418Y669640D01*
X122640Y671418D01*
X121677Y673742D01*
X121677Y676258D01*
X122640Y678582D01*
X124418Y680360D01*
X126742Y681323D01*
X129258Y681323D01*
X131582Y680360D01*
X133360Y678582D01*
X134323Y676258D01*
X134323Y673742D01*
X133360Y671418D01*
X131582Y669640D01*
X130871Y669345D01*
X130771Y669284D01*
X130671Y669224D01*
X130667Y669219D01*
X130662Y669216D01*
X130587Y669126D01*
X130538Y669068D01*
X130532Y669063D01*
X130532Y669061D01*
X130511Y669037D01*
X130509Y669031D01*
X130505Y669026D01*
X130463Y668918D01*
X130449Y668883D01*
X130429Y668839D01*
X130428Y668830D01*
X130419Y668809D01*
X130418Y668801D01*
X130417Y668797D01*
X130416Y668778D01*
X130401Y668642D01*
X130401Y633310D01*
X130415Y633220D01*
X130423Y633129D01*
X130435Y633099D01*
X130440Y633067D01*
X130483Y632986D01*
X130519Y632902D01*
X130545Y632870D01*
X130556Y632850D01*
X130579Y632827D01*
X130624Y632771D01*
X134771Y628624D01*
X134845Y628571D01*
X134915Y628511D01*
X134945Y628499D01*
X134971Y628480D01*
X135058Y628453D01*
X135143Y628419D01*
X135184Y628415D01*
X135206Y628408D01*
X135238Y628409D01*
X135310Y628401D01*
X136810Y628401D01*
X136925Y628420D01*
X137041Y628437D01*
X137047Y628439D01*
X137053Y628440D01*
X137156Y628495D01*
X137261Y628548D01*
X137265Y628553D01*
X137271Y628556D01*
X137350Y628640D01*
X137433Y628724D01*
X137436Y628730D01*
X137440Y628734D01*
X137448Y628751D01*
X137514Y628871D01*
X139029Y632529D01*
X142271Y635771D01*
X146507Y637526D01*
X151093Y637526D01*
X155329Y635771D01*
X158571Y632529D01*
X160326Y628293D01*
X160326Y623707D01*
X158571Y619471D01*
X155329Y616229D01*
X151093Y614474D01*
X146507Y614474D01*
G37*
%LPD*%
%LPC*%
G36*
X146507Y868474D02*
X146507Y868474D01*
X142271Y870229D01*
X139029Y873471D01*
X137514Y877129D01*
X137452Y877229D01*
X137392Y877329D01*
X137387Y877333D01*
X137384Y877338D01*
X137294Y877413D01*
X137205Y877489D01*
X137199Y877491D01*
X137195Y877495D01*
X137087Y877537D01*
X136977Y877581D01*
X136970Y877582D01*
X136965Y877583D01*
X136947Y877584D01*
X136810Y877599D01*
X116358Y877599D01*
X116243Y877580D01*
X116127Y877563D01*
X116121Y877561D01*
X116115Y877560D01*
X116013Y877505D01*
X115908Y877452D01*
X115903Y877447D01*
X115898Y877444D01*
X115818Y877360D01*
X115735Y877276D01*
X115732Y877270D01*
X115728Y877266D01*
X115721Y877249D01*
X115655Y877129D01*
X115360Y876418D01*
X113582Y874640D01*
X111258Y873677D01*
X108742Y873677D01*
X106418Y874640D01*
X104640Y876418D01*
X103677Y878742D01*
X103677Y881258D01*
X104640Y883582D01*
X106418Y885360D01*
X108742Y886323D01*
X111258Y886323D01*
X113582Y885360D01*
X115360Y883582D01*
X115655Y882871D01*
X115716Y882771D01*
X115776Y882671D01*
X115781Y882667D01*
X115784Y882662D01*
X115874Y882587D01*
X115963Y882511D01*
X115969Y882509D01*
X115974Y882505D01*
X116082Y882463D01*
X116191Y882419D01*
X116199Y882418D01*
X116203Y882417D01*
X116222Y882416D01*
X116358Y882401D01*
X136810Y882401D01*
X136925Y882420D01*
X137041Y882437D01*
X137047Y882439D01*
X137053Y882440D01*
X137156Y882495D01*
X137261Y882548D01*
X137265Y882553D01*
X137271Y882556D01*
X137350Y882640D01*
X137433Y882724D01*
X137436Y882730D01*
X137440Y882734D01*
X137448Y882751D01*
X137514Y882871D01*
X139029Y886529D01*
X142271Y889771D01*
X146507Y891526D01*
X151093Y891526D01*
X155329Y889771D01*
X158571Y886529D01*
X160326Y882293D01*
X160326Y877707D01*
X158571Y873471D01*
X155329Y870229D01*
X151093Y868474D01*
X146507Y868474D01*
G37*
%LPD*%
%LPC*%
G36*
X301671Y323999D02*
X301671Y323999D01*
X300499Y325171D01*
X300499Y346829D01*
X301671Y348001D01*
X323329Y348001D01*
X324501Y346829D01*
X324501Y325171D01*
X323329Y323999D01*
X301671Y323999D01*
G37*
%LPD*%
%LPC*%
G36*
X333942Y33677D02*
X333942Y33677D01*
X331618Y34640D01*
X329840Y36418D01*
X328877Y38742D01*
X328877Y39619D01*
X328863Y39709D01*
X328855Y39800D01*
X328843Y39830D01*
X328838Y39862D01*
X328795Y39943D01*
X328759Y40027D01*
X328733Y40059D01*
X328722Y40080D01*
X328699Y40102D01*
X328654Y40158D01*
X317236Y51576D01*
X317162Y51629D01*
X317092Y51689D01*
X317062Y51701D01*
X317036Y51720D01*
X316949Y51747D01*
X316864Y51781D01*
X316823Y51785D01*
X316801Y51792D01*
X316769Y51791D01*
X316697Y51799D01*
X257524Y51799D01*
X257409Y51780D01*
X257293Y51763D01*
X257287Y51761D01*
X257281Y51760D01*
X257178Y51705D01*
X257073Y51652D01*
X257069Y51647D01*
X257063Y51644D01*
X256984Y51560D01*
X256901Y51476D01*
X256898Y51470D01*
X256894Y51466D01*
X256886Y51449D01*
X256820Y51329D01*
X256360Y50218D01*
X254582Y48440D01*
X252258Y47477D01*
X249742Y47477D01*
X247418Y48440D01*
X245640Y50218D01*
X244677Y52542D01*
X244677Y55058D01*
X245640Y57382D01*
X247418Y59160D01*
X249742Y60123D01*
X252258Y60123D01*
X254582Y59160D01*
X256360Y57382D01*
X256903Y56071D01*
X256965Y55971D01*
X257025Y55871D01*
X257029Y55867D01*
X257033Y55862D01*
X257122Y55787D01*
X257212Y55711D01*
X257217Y55709D01*
X257222Y55705D01*
X257330Y55663D01*
X257440Y55619D01*
X257447Y55618D01*
X257452Y55617D01*
X257470Y55616D01*
X257606Y55601D01*
X318587Y55601D01*
X319924Y54264D01*
X329685Y44503D01*
X329701Y44492D01*
X329714Y44476D01*
X329801Y44420D01*
X329885Y44360D01*
X329904Y44354D01*
X329920Y44343D01*
X330021Y44318D01*
X330120Y44287D01*
X330140Y44288D01*
X330159Y44283D01*
X330262Y44291D01*
X330366Y44294D01*
X330384Y44300D01*
X330404Y44302D01*
X330499Y44342D01*
X330597Y44378D01*
X330612Y44391D01*
X330631Y44398D01*
X330761Y44503D01*
X331618Y45360D01*
X333942Y46323D01*
X336458Y46323D01*
X338782Y45360D01*
X340560Y43582D01*
X341523Y41258D01*
X341523Y38742D01*
X340560Y36418D01*
X338782Y34640D01*
X336458Y33677D01*
X333942Y33677D01*
G37*
%LPD*%
%LPC*%
G36*
X298907Y817674D02*
X298907Y817674D01*
X294671Y819429D01*
X291429Y822671D01*
X289674Y826907D01*
X289674Y831493D01*
X291429Y835729D01*
X294671Y838971D01*
X298907Y840726D01*
X303493Y840726D01*
X307729Y838971D01*
X310971Y835729D01*
X312726Y831493D01*
X312726Y826907D01*
X310971Y822671D01*
X307729Y819429D01*
X303493Y817674D01*
X298907Y817674D01*
G37*
%LPD*%
%LPC*%
G36*
X298907Y792274D02*
X298907Y792274D01*
X294671Y794029D01*
X291429Y797271D01*
X289674Y801507D01*
X289674Y806093D01*
X291429Y810329D01*
X294671Y813571D01*
X298907Y815326D01*
X303493Y815326D01*
X307729Y813571D01*
X310971Y810329D01*
X312726Y806093D01*
X312726Y801507D01*
X310971Y797271D01*
X307729Y794029D01*
X303493Y792274D01*
X298907Y792274D01*
G37*
%LPD*%
%LPC*%
G36*
X298907Y944674D02*
X298907Y944674D01*
X294671Y946429D01*
X291429Y949671D01*
X289674Y953907D01*
X289674Y958493D01*
X291429Y962729D01*
X294671Y965971D01*
X298907Y967726D01*
X303493Y967726D01*
X307729Y965971D01*
X310971Y962729D01*
X312726Y958493D01*
X312726Y953907D01*
X310971Y949671D01*
X307729Y946429D01*
X303493Y944674D01*
X298907Y944674D01*
G37*
%LPD*%
%LPC*%
G36*
X298907Y766874D02*
X298907Y766874D01*
X294671Y768629D01*
X291429Y771871D01*
X289674Y776107D01*
X289674Y780693D01*
X291429Y784929D01*
X294671Y788171D01*
X298907Y789926D01*
X303493Y789926D01*
X307729Y788171D01*
X310971Y784929D01*
X312726Y780693D01*
X312726Y776107D01*
X310971Y771871D01*
X307729Y768629D01*
X303493Y766874D01*
X298907Y766874D01*
G37*
%LPD*%
%LPC*%
G36*
X298907Y893874D02*
X298907Y893874D01*
X294671Y895629D01*
X291429Y898871D01*
X289674Y903107D01*
X289674Y907693D01*
X291429Y911929D01*
X294671Y915171D01*
X298907Y916926D01*
X303493Y916926D01*
X307729Y915171D01*
X310971Y911929D01*
X312726Y907693D01*
X312726Y903107D01*
X310971Y898871D01*
X307729Y895629D01*
X303493Y893874D01*
X298907Y893874D01*
G37*
%LPD*%
%LPC*%
G36*
X171907Y614474D02*
X171907Y614474D01*
X167671Y616229D01*
X164429Y619471D01*
X162674Y623707D01*
X162674Y628293D01*
X164429Y632529D01*
X167671Y635771D01*
X171907Y637526D01*
X176493Y637526D01*
X180729Y635771D01*
X183971Y632529D01*
X185726Y628293D01*
X185726Y623707D01*
X183971Y619471D01*
X180729Y616229D01*
X176493Y614474D01*
X171907Y614474D01*
G37*
%LPD*%
%LPC*%
G36*
X146507Y741474D02*
X146507Y741474D01*
X142271Y743229D01*
X139029Y746471D01*
X137274Y750707D01*
X137274Y755293D01*
X139029Y759529D01*
X142271Y762771D01*
X146507Y764526D01*
X151093Y764526D01*
X155329Y762771D01*
X158571Y759529D01*
X160326Y755293D01*
X160326Y750707D01*
X158571Y746471D01*
X155329Y743229D01*
X151093Y741474D01*
X146507Y741474D01*
G37*
%LPD*%
%LPC*%
G36*
X298907Y919274D02*
X298907Y919274D01*
X294671Y921029D01*
X291429Y924271D01*
X289674Y928507D01*
X289674Y933093D01*
X291429Y937329D01*
X294671Y940571D01*
X298907Y942326D01*
X303493Y942326D01*
X307729Y940571D01*
X310971Y937329D01*
X312726Y933093D01*
X312726Y928507D01*
X310971Y924271D01*
X307729Y921029D01*
X303493Y919274D01*
X298907Y919274D01*
G37*
%LPD*%
%LPC*%
G36*
X273507Y614474D02*
X273507Y614474D01*
X269271Y616229D01*
X266029Y619471D01*
X264274Y623707D01*
X264274Y628293D01*
X266029Y632529D01*
X269271Y635771D01*
X273507Y637526D01*
X278093Y637526D01*
X282329Y635771D01*
X285571Y632529D01*
X287326Y628293D01*
X287326Y623707D01*
X285571Y619471D01*
X282329Y616229D01*
X278093Y614474D01*
X273507Y614474D01*
G37*
%LPD*%
%LPC*%
G36*
X146507Y716074D02*
X146507Y716074D01*
X142271Y717829D01*
X139029Y721071D01*
X137274Y725307D01*
X137274Y729893D01*
X139029Y734129D01*
X142271Y737371D01*
X146507Y739126D01*
X151093Y739126D01*
X155329Y737371D01*
X158571Y734129D01*
X160326Y729893D01*
X160326Y725307D01*
X158571Y721071D01*
X155329Y717829D01*
X151093Y716074D01*
X146507Y716074D01*
G37*
%LPD*%
%LPC*%
G36*
X298907Y843074D02*
X298907Y843074D01*
X294671Y844829D01*
X291429Y848071D01*
X289674Y852307D01*
X289674Y856893D01*
X291429Y861129D01*
X294671Y864371D01*
X298907Y866126D01*
X303493Y866126D01*
X307729Y864371D01*
X310971Y861129D01*
X312726Y856893D01*
X312726Y852307D01*
X310971Y848071D01*
X307729Y844829D01*
X303493Y843074D01*
X298907Y843074D01*
G37*
%LPD*%
%LPC*%
G36*
X298907Y665274D02*
X298907Y665274D01*
X294671Y667029D01*
X291429Y670271D01*
X289674Y674507D01*
X289674Y679093D01*
X291429Y683329D01*
X294671Y686571D01*
X298907Y688326D01*
X303493Y688326D01*
X307729Y686571D01*
X310971Y683329D01*
X312726Y679093D01*
X312726Y674507D01*
X310971Y670271D01*
X307729Y667029D01*
X303493Y665274D01*
X298907Y665274D01*
G37*
%LPD*%
%LPC*%
G36*
X298907Y868474D02*
X298907Y868474D01*
X294671Y870229D01*
X291429Y873471D01*
X289674Y877707D01*
X289674Y882293D01*
X291429Y886529D01*
X294671Y889771D01*
X298907Y891526D01*
X303493Y891526D01*
X307729Y889771D01*
X310971Y886529D01*
X312726Y882293D01*
X312726Y877707D01*
X310971Y873471D01*
X307729Y870229D01*
X303493Y868474D01*
X298907Y868474D01*
G37*
%LPD*%
%LPC*%
G36*
X298907Y639874D02*
X298907Y639874D01*
X294671Y641629D01*
X291429Y644871D01*
X289674Y649107D01*
X289674Y653693D01*
X291429Y657929D01*
X294671Y661171D01*
X298907Y662926D01*
X303493Y662926D01*
X307729Y661171D01*
X310971Y657929D01*
X312726Y653693D01*
X312726Y649107D01*
X310971Y644871D01*
X307729Y641629D01*
X303493Y639874D01*
X298907Y639874D01*
G37*
%LPD*%
%LPC*%
G36*
X146507Y639874D02*
X146507Y639874D01*
X142271Y641629D01*
X139029Y644871D01*
X137274Y649107D01*
X137274Y653693D01*
X139029Y657929D01*
X142271Y661171D01*
X146507Y662926D01*
X151093Y662926D01*
X155329Y661171D01*
X158571Y657929D01*
X160326Y653693D01*
X160326Y649107D01*
X158571Y644871D01*
X155329Y641629D01*
X151093Y639874D01*
X146507Y639874D01*
G37*
%LPD*%
%LPC*%
G36*
X197307Y614474D02*
X197307Y614474D01*
X193071Y616229D01*
X189829Y619471D01*
X188074Y623707D01*
X188074Y628293D01*
X189829Y632529D01*
X193071Y635771D01*
X197307Y637526D01*
X201893Y637526D01*
X206129Y635771D01*
X209371Y632529D01*
X211126Y628293D01*
X211126Y623707D01*
X209371Y619471D01*
X206129Y616229D01*
X201893Y614474D01*
X197307Y614474D01*
G37*
%LPD*%
%LPC*%
G36*
X222707Y614474D02*
X222707Y614474D01*
X218471Y616229D01*
X215229Y619471D01*
X213474Y623707D01*
X213474Y628293D01*
X215229Y632529D01*
X218471Y635771D01*
X222707Y637526D01*
X227293Y637526D01*
X231529Y635771D01*
X234771Y632529D01*
X236526Y628293D01*
X236526Y623707D01*
X234771Y619471D01*
X231529Y616229D01*
X227293Y614474D01*
X222707Y614474D01*
G37*
%LPD*%
%LPC*%
G36*
X248107Y614474D02*
X248107Y614474D01*
X243871Y616229D01*
X240629Y619471D01*
X238874Y623707D01*
X238874Y628293D01*
X240629Y632529D01*
X243871Y635771D01*
X248107Y637526D01*
X252693Y637526D01*
X256929Y635771D01*
X260171Y632529D01*
X261926Y628293D01*
X261926Y623707D01*
X260171Y619471D01*
X256929Y616229D01*
X252693Y614474D01*
X248107Y614474D01*
G37*
%LPD*%
G36*
X43450Y762613D02*
X43450Y762613D01*
X43521Y762619D01*
X43569Y762639D01*
X43620Y762650D01*
X43681Y762687D01*
X43747Y762715D01*
X43803Y762760D01*
X43831Y762776D01*
X43846Y762794D01*
X43878Y762820D01*
X45418Y764360D01*
X47742Y765323D01*
X50258Y765323D01*
X51469Y764821D01*
X51582Y764794D01*
X51696Y764766D01*
X51702Y764766D01*
X51708Y764765D01*
X51824Y764776D01*
X51941Y764785D01*
X51947Y764787D01*
X51953Y764788D01*
X52061Y764836D01*
X52167Y764881D01*
X52173Y764886D01*
X52178Y764888D01*
X52192Y764901D01*
X52298Y764986D01*
X67876Y780564D01*
X69213Y781901D01*
X75435Y781901D01*
X75550Y781920D01*
X75666Y781937D01*
X75672Y781939D01*
X75678Y781940D01*
X75780Y781995D01*
X75885Y782048D01*
X75890Y782053D01*
X75895Y782056D01*
X75975Y782140D01*
X76057Y782224D01*
X76061Y782230D01*
X76064Y782234D01*
X76072Y782251D01*
X76138Y782371D01*
X76640Y783582D01*
X77358Y784300D01*
X77400Y784358D01*
X77449Y784410D01*
X77471Y784457D01*
X77502Y784499D01*
X77523Y784568D01*
X77553Y784633D01*
X77559Y784685D01*
X77574Y784735D01*
X77572Y784806D01*
X77580Y784877D01*
X77569Y784928D01*
X77568Y784980D01*
X77543Y785048D01*
X77528Y785118D01*
X77501Y785163D01*
X77483Y785211D01*
X77438Y785267D01*
X77402Y785329D01*
X77362Y785363D01*
X77329Y785403D01*
X77269Y785442D01*
X77215Y785489D01*
X77166Y785508D01*
X77123Y785536D01*
X77053Y785554D01*
X76986Y785581D01*
X76915Y785589D01*
X76884Y785597D01*
X76861Y785595D01*
X76820Y785599D01*
X54358Y785599D01*
X54243Y785580D01*
X54127Y785563D01*
X54121Y785561D01*
X54115Y785560D01*
X54013Y785505D01*
X53908Y785452D01*
X53903Y785447D01*
X53898Y785444D01*
X53818Y785360D01*
X53735Y785276D01*
X53732Y785270D01*
X53728Y785266D01*
X53721Y785249D01*
X53655Y785129D01*
X53360Y784418D01*
X51582Y782640D01*
X49258Y781677D01*
X46742Y781677D01*
X44418Y782640D01*
X43878Y783180D01*
X43820Y783222D01*
X43768Y783271D01*
X43721Y783293D01*
X43679Y783324D01*
X43610Y783345D01*
X43545Y783375D01*
X43493Y783381D01*
X43443Y783396D01*
X43372Y783394D01*
X43301Y783402D01*
X43250Y783391D01*
X43198Y783390D01*
X43130Y783365D01*
X43060Y783350D01*
X43015Y783323D01*
X42967Y783305D01*
X42911Y783260D01*
X42849Y783224D01*
X42815Y783184D01*
X42775Y783151D01*
X42736Y783091D01*
X42689Y783037D01*
X42670Y782988D01*
X42642Y782945D01*
X42624Y782875D01*
X42597Y782808D01*
X42589Y782737D01*
X42581Y782706D01*
X42583Y782683D01*
X42579Y782642D01*
X42579Y763358D01*
X42590Y763288D01*
X42592Y763216D01*
X42610Y763167D01*
X42618Y763115D01*
X42652Y763052D01*
X42677Y762985D01*
X42709Y762944D01*
X42734Y762898D01*
X42786Y762849D01*
X42830Y762793D01*
X42874Y762765D01*
X42912Y762729D01*
X42977Y762699D01*
X43037Y762660D01*
X43088Y762647D01*
X43135Y762625D01*
X43206Y762617D01*
X43276Y762600D01*
X43328Y762604D01*
X43379Y762598D01*
X43450Y762613D01*
G37*
%LPC*%
G36*
X84742Y727677D02*
X84742Y727677D01*
X82418Y728640D01*
X80640Y730418D01*
X79677Y732742D01*
X79677Y735258D01*
X80640Y737582D01*
X82520Y739462D01*
X82532Y739478D01*
X82547Y739490D01*
X82603Y739578D01*
X82664Y739661D01*
X82669Y739680D01*
X82680Y739697D01*
X82706Y739798D01*
X82736Y739897D01*
X82735Y739916D01*
X82740Y739936D01*
X82732Y740039D01*
X82730Y740142D01*
X82723Y740161D01*
X82721Y740181D01*
X82681Y740276D01*
X82645Y740373D01*
X82633Y740389D01*
X82625Y740407D01*
X82520Y740538D01*
X80640Y742418D01*
X79677Y744742D01*
X79677Y747258D01*
X80640Y749582D01*
X82418Y751360D01*
X84742Y752323D01*
X87258Y752323D01*
X89582Y751360D01*
X91360Y749582D01*
X92323Y747258D01*
X92323Y744742D01*
X91360Y742418D01*
X89480Y740538D01*
X89468Y740522D01*
X89453Y740510D01*
X89397Y740422D01*
X89336Y740339D01*
X89331Y740320D01*
X89320Y740303D01*
X89295Y740202D01*
X89264Y740103D01*
X89265Y740084D01*
X89260Y740064D01*
X89268Y739961D01*
X89270Y739858D01*
X89277Y739839D01*
X89279Y739819D01*
X89319Y739724D01*
X89355Y739627D01*
X89367Y739611D01*
X89375Y739593D01*
X89480Y739462D01*
X91360Y737582D01*
X92323Y735258D01*
X92323Y732742D01*
X91360Y730418D01*
X89582Y728640D01*
X87258Y727677D01*
X84742Y727677D01*
G37*
%LPD*%
%LPC*%
G36*
X39450Y472209D02*
X39450Y472209D01*
X36770Y473319D01*
X34719Y475370D01*
X33609Y478050D01*
X33609Y480950D01*
X34719Y483630D01*
X36770Y485681D01*
X39450Y486791D01*
X42350Y486791D01*
X45030Y485681D01*
X47081Y483630D01*
X48191Y480950D01*
X48191Y478050D01*
X47081Y475370D01*
X45030Y473319D01*
X42350Y472209D01*
X39450Y472209D01*
G37*
%LPD*%
%LPC*%
G36*
X39450Y540209D02*
X39450Y540209D01*
X36770Y541319D01*
X34719Y543370D01*
X33609Y546050D01*
X33609Y548950D01*
X34719Y551630D01*
X36770Y553681D01*
X39450Y554791D01*
X42350Y554791D01*
X45030Y553681D01*
X47081Y551630D01*
X48191Y548950D01*
X48191Y546050D01*
X47081Y543370D01*
X45030Y541319D01*
X42350Y540209D01*
X39450Y540209D01*
G37*
%LPD*%
%LPC*%
G36*
X139042Y491677D02*
X139042Y491677D01*
X136718Y492640D01*
X134940Y494418D01*
X133977Y496742D01*
X133977Y499258D01*
X134940Y501582D01*
X136718Y503360D01*
X139042Y504323D01*
X141558Y504323D01*
X143882Y503360D01*
X145660Y501582D01*
X146623Y499258D01*
X146623Y496742D01*
X145660Y494418D01*
X143882Y492640D01*
X141558Y491677D01*
X139042Y491677D01*
G37*
%LPD*%
%LPC*%
G36*
X71742Y603677D02*
X71742Y603677D01*
X69418Y604640D01*
X67640Y606418D01*
X66677Y608742D01*
X66677Y611258D01*
X67640Y613582D01*
X69418Y615360D01*
X71742Y616323D01*
X74258Y616323D01*
X76582Y615360D01*
X78360Y613582D01*
X79323Y611258D01*
X79323Y608742D01*
X78360Y606418D01*
X76582Y604640D01*
X74258Y603677D01*
X71742Y603677D01*
G37*
%LPD*%
%LPC*%
G36*
X134342Y438777D02*
X134342Y438777D01*
X132018Y439740D01*
X130240Y441518D01*
X129277Y443842D01*
X129277Y446358D01*
X130240Y448682D01*
X132018Y450460D01*
X134342Y451423D01*
X136858Y451423D01*
X139182Y450460D01*
X140960Y448682D01*
X141923Y446358D01*
X141923Y443842D01*
X140960Y441518D01*
X139182Y439740D01*
X136858Y438777D01*
X134342Y438777D01*
G37*
%LPD*%
%LPC*%
G36*
X313042Y33677D02*
X313042Y33677D01*
X310718Y34640D01*
X308940Y36418D01*
X307977Y38742D01*
X307977Y41258D01*
X308940Y43582D01*
X310718Y45360D01*
X313042Y46323D01*
X315558Y46323D01*
X317882Y45360D01*
X319660Y43582D01*
X320623Y41258D01*
X320623Y38742D01*
X319660Y36418D01*
X317882Y34640D01*
X315558Y33677D01*
X313042Y33677D01*
G37*
%LPD*%
%LPC*%
G36*
X319742Y824677D02*
X319742Y824677D01*
X317418Y825640D01*
X315640Y827418D01*
X314677Y829742D01*
X314677Y832258D01*
X315640Y834582D01*
X317418Y836360D01*
X319742Y837323D01*
X322258Y837323D01*
X324582Y836360D01*
X326360Y834582D01*
X327323Y832258D01*
X327323Y829742D01*
X326360Y827418D01*
X324582Y825640D01*
X322258Y824677D01*
X319742Y824677D01*
G37*
%LPD*%
%LPC*%
G36*
X133842Y110077D02*
X133842Y110077D01*
X131518Y111040D01*
X129740Y112818D01*
X128777Y115142D01*
X128777Y117658D01*
X129740Y119982D01*
X131518Y121760D01*
X133842Y122723D01*
X136358Y122723D01*
X138682Y121760D01*
X140460Y119982D01*
X141423Y117658D01*
X141423Y115142D01*
X140460Y112818D01*
X138682Y111040D01*
X136358Y110077D01*
X133842Y110077D01*
G37*
%LPD*%
%LPC*%
G36*
X126742Y724677D02*
X126742Y724677D01*
X124418Y725640D01*
X122640Y727418D01*
X121677Y729742D01*
X121677Y732258D01*
X122640Y734582D01*
X124418Y736360D01*
X126742Y737323D01*
X129258Y737323D01*
X131582Y736360D01*
X133360Y734582D01*
X134323Y732258D01*
X134323Y729742D01*
X133360Y727418D01*
X131582Y725640D01*
X129258Y724677D01*
X126742Y724677D01*
G37*
%LPD*%
%LPC*%
G36*
X223742Y153677D02*
X223742Y153677D01*
X221418Y154640D01*
X219640Y156418D01*
X218677Y158742D01*
X218677Y161258D01*
X219640Y163582D01*
X221418Y165360D01*
X223742Y166323D01*
X226258Y166323D01*
X228582Y165360D01*
X230360Y163582D01*
X231323Y161258D01*
X231323Y158742D01*
X230360Y156418D01*
X228582Y154640D01*
X226258Y153677D01*
X223742Y153677D01*
G37*
%LPD*%
%LPC*%
G36*
X133742Y197677D02*
X133742Y197677D01*
X131418Y198640D01*
X129640Y200418D01*
X128677Y202742D01*
X128677Y205258D01*
X129640Y207582D01*
X131418Y209360D01*
X133742Y210323D01*
X136258Y210323D01*
X138582Y209360D01*
X140360Y207582D01*
X141323Y205258D01*
X141323Y202742D01*
X140360Y200418D01*
X138582Y198640D01*
X136258Y197677D01*
X133742Y197677D01*
G37*
%LPD*%
%LPC*%
G36*
X153742Y197677D02*
X153742Y197677D01*
X151418Y198640D01*
X149640Y200418D01*
X148677Y202742D01*
X148677Y205258D01*
X149640Y207582D01*
X151418Y209360D01*
X153742Y210323D01*
X156258Y210323D01*
X158582Y209360D01*
X160360Y207582D01*
X161323Y205258D01*
X161323Y202742D01*
X160360Y200418D01*
X158582Y198640D01*
X156258Y197677D01*
X153742Y197677D01*
G37*
%LPD*%
%LPC*%
G36*
X381742Y899677D02*
X381742Y899677D01*
X379418Y900640D01*
X377640Y902418D01*
X376677Y904742D01*
X376677Y907258D01*
X377640Y909582D01*
X379418Y911360D01*
X381742Y912323D01*
X384258Y912323D01*
X386582Y911360D01*
X388360Y909582D01*
X389323Y907258D01*
X389323Y904742D01*
X388360Y902418D01*
X386582Y900640D01*
X384258Y899677D01*
X381742Y899677D01*
G37*
%LPD*%
%LPC*%
G36*
X249742Y31077D02*
X249742Y31077D01*
X247418Y32040D01*
X245640Y33818D01*
X244677Y36142D01*
X244677Y38658D01*
X245640Y40982D01*
X247418Y42760D01*
X249742Y43723D01*
X252258Y43723D01*
X254582Y42760D01*
X256360Y40982D01*
X257323Y38658D01*
X257323Y36142D01*
X256360Y33818D01*
X254582Y32040D01*
X252258Y31077D01*
X249742Y31077D01*
G37*
%LPD*%
%LPC*%
G36*
X349023Y337523D02*
X349023Y337523D01*
X349023Y348541D01*
X357834Y348541D01*
X358481Y348368D01*
X359060Y348033D01*
X359533Y347560D01*
X359868Y346981D01*
X360041Y346334D01*
X360041Y337523D01*
X349023Y337523D01*
G37*
%LPD*%
%LPC*%
G36*
X334959Y337523D02*
X334959Y337523D01*
X334959Y346334D01*
X335132Y346981D01*
X335467Y347560D01*
X335940Y348033D01*
X336519Y348368D01*
X337166Y348541D01*
X345977Y348541D01*
X345977Y337523D01*
X334959Y337523D01*
G37*
%LPD*%
%LPC*%
G36*
X349023Y323459D02*
X349023Y323459D01*
X349023Y334477D01*
X360041Y334477D01*
X360041Y325666D01*
X359868Y325019D01*
X359533Y324440D01*
X359060Y323967D01*
X358481Y323632D01*
X357834Y323459D01*
X349023Y323459D01*
G37*
%LPD*%
%LPC*%
G36*
X337166Y323459D02*
X337166Y323459D01*
X336519Y323632D01*
X335940Y323967D01*
X335467Y324440D01*
X335132Y325019D01*
X334959Y325666D01*
X334959Y334477D01*
X345977Y334477D01*
X345977Y323459D01*
X337166Y323459D01*
G37*
%LPD*%
%LPC*%
G36*
X150323Y957723D02*
X150323Y957723D01*
X150323Y968175D01*
X151625Y967969D01*
X153432Y967382D01*
X155124Y966520D01*
X156660Y965403D01*
X158003Y964060D01*
X159120Y962524D01*
X159982Y960832D01*
X160569Y959025D01*
X160775Y957723D01*
X150323Y957723D01*
G37*
%LPD*%
%LPC*%
G36*
X136825Y957723D02*
X136825Y957723D01*
X137031Y959025D01*
X137618Y960832D01*
X138480Y962524D01*
X139597Y964060D01*
X140940Y965403D01*
X142476Y966520D01*
X144168Y967382D01*
X145975Y967969D01*
X147277Y968175D01*
X147277Y957723D01*
X136825Y957723D01*
G37*
%LPD*%
%LPC*%
G36*
X150323Y954677D02*
X150323Y954677D01*
X160775Y954677D01*
X160569Y953375D01*
X159982Y951568D01*
X159120Y949876D01*
X158003Y948340D01*
X156660Y946997D01*
X155124Y945880D01*
X153432Y945018D01*
X151625Y944431D01*
X150323Y944225D01*
X150323Y954677D01*
G37*
%LPD*%
%LPC*%
G36*
X145975Y944431D02*
X145975Y944431D01*
X144168Y945018D01*
X142476Y945880D01*
X140940Y946997D01*
X139597Y948340D01*
X138480Y949876D01*
X137618Y951568D01*
X137031Y953375D01*
X136825Y954677D01*
X147277Y954677D01*
X147277Y944225D01*
X145975Y944431D01*
G37*
%LPD*%
%LPC*%
G36*
X347499Y335999D02*
X347499Y335999D01*
X347499Y336001D01*
X347501Y336001D01*
X347501Y335999D01*
X347499Y335999D01*
G37*
%LPD*%
%LPC*%
G36*
X148799Y956199D02*
X148799Y956199D01*
X148799Y956201D01*
X148801Y956201D01*
X148801Y956199D01*
X148799Y956199D01*
G37*
%LPD*%
D10*
X148800Y956200D03*
X148800Y930800D03*
X148800Y880000D03*
X148800Y905400D03*
X148800Y854600D03*
X148800Y829200D03*
X148800Y778400D03*
X148800Y803800D03*
X148800Y753000D03*
X148800Y727600D03*
X148800Y676800D03*
X148800Y702200D03*
X148800Y626000D03*
X148800Y651400D03*
X301200Y956200D03*
X301200Y930800D03*
X301200Y880000D03*
X301200Y905400D03*
X301200Y854600D03*
X301200Y829200D03*
X301200Y778400D03*
X301200Y803800D03*
X301200Y753000D03*
X301200Y727600D03*
X301200Y676800D03*
X301200Y702200D03*
X301200Y626000D03*
X301200Y651400D03*
X174200Y626000D03*
X199600Y626000D03*
X225000Y626000D03*
X250400Y626000D03*
X275800Y626000D03*
D11*
X312500Y336000D03*
X347500Y336000D03*
D12*
X51000Y912000D03*
X62678Y734000D03*
X56000Y780000D03*
X86000Y757000D03*
X385100Y862100D03*
X256000Y354600D03*
X93800Y25000D03*
X225000Y15000D03*
X245000Y15000D03*
X225000Y60000D03*
X199600Y35000D03*
X313600Y485100D03*
X335600Y584100D03*
X383900Y702200D03*
X68900Y697500D03*
X65700Y646800D03*
X302200Y602700D03*
X205200Y490600D03*
X270200Y425900D03*
X415100Y315300D03*
X64000Y912000D03*
X110000Y865000D03*
D13*
X82000Y865000D01*
X64000Y883000D01*
X64000Y912000D01*
D12*
X82000Y780000D03*
X49000Y759000D03*
D14*
X70000Y780000D01*
X82000Y780000D01*
X49000Y759000D02*
X49000Y618000D01*
D12*
X180000Y521000D03*
D14*
X84000Y521000D01*
X74000Y593000D02*
X49000Y618000D01*
X74000Y531000D02*
X84000Y521000D01*
X74000Y531000D02*
X74000Y593000D01*
D12*
X321000Y831000D03*
X323000Y693000D03*
X209000Y426000D03*
D15*
X180000Y455000D01*
X180000Y521000D01*
D12*
X295000Y313000D03*
D13*
X241000Y313000D01*
X229000Y406000D02*
X209000Y426000D01*
X229000Y325000D02*
X241000Y313000D01*
X229000Y325000D02*
X229000Y406000D01*
X323000Y552000D02*
X323000Y693000D01*
X323000Y552000D02*
X280000Y509000D01*
X192000Y509000D01*
X180000Y521000D01*
D12*
X86000Y746000D03*
X48000Y788000D03*
D13*
X90000Y788000D01*
X108000Y770000D01*
D12*
X108000Y721000D03*
D13*
X108000Y770000D01*
X108000Y633000D02*
X134000Y607000D01*
X180000Y607000D01*
X282200Y607000D01*
X301200Y626000D01*
D12*
X180000Y532000D03*
D13*
X180000Y553000D01*
X180000Y607000D01*
X108000Y633000D02*
X108000Y721000D01*
D12*
X257000Y554472D03*
D16*
X253472Y558000D01*
X220000Y558000D02*
X215000Y553000D01*
X180000Y553000D01*
X220000Y558000D02*
X253472Y558000D01*
D12*
X201000Y545916D03*
X57000Y621000D03*
X314300Y40000D03*
X251000Y37400D03*
X95000Y213000D03*
D15*
X108000Y226000D01*
X346000Y226000D01*
D12*
X346000Y226000D03*
X73000Y610000D03*
X335200Y40000D03*
X251000Y53800D03*
D14*
X331500Y40000D02*
X335200Y40000D01*
X331500Y40000D02*
X317800Y53700D01*
X251000Y53800D02*
X251000Y53700D01*
X317800Y53700D01*
D12*
X216000Y574000D03*
X192000Y561000D03*
D17*
X203000Y561000D02*
X216000Y574000D01*
X203000Y561000D02*
X192000Y561000D01*
D12*
X128000Y675000D03*
D13*
X128000Y632000D01*
X134000Y626000D02*
X148800Y626000D01*
X134000Y626000D02*
X128000Y632000D01*
D12*
X128000Y731000D03*
X86000Y734000D03*
X110000Y880000D03*
D13*
X148800Y880000D01*
D12*
X383000Y906000D03*
X60000Y405000D03*
D14*
X49000Y405000D01*
X24000Y430000D01*
X24000Y840000D01*
X39000Y855000D01*
X148400Y855000D01*
X148800Y854600D01*
D12*
X160000Y405000D03*
D14*
X143000Y422000D01*
X65000Y422000D01*
X60000Y427000D01*
X60000Y579000D02*
X36000Y603000D01*
X36000Y800000D01*
X45000Y809000D01*
X143600Y809000D01*
X148800Y803800D01*
X60000Y579000D02*
X60000Y427000D01*
D12*
X150000Y320000D03*
X405000Y150000D03*
D15*
X220000Y250000D02*
X150000Y320000D01*
X220000Y250000D02*
X360000Y250000D01*
X405000Y205000D01*
X405000Y150000D01*
D12*
X110000Y405000D03*
D14*
X100000Y415000D01*
X52000Y415000D01*
X30000Y437000D01*
X30000Y820000D01*
X39200Y829200D02*
X148800Y829200D01*
X39200Y829200D02*
X30000Y820000D01*
D12*
X75000Y213000D03*
X100000Y320000D03*
D18*
X75000Y295000D02*
X75000Y213000D01*
X75000Y295000D02*
X100000Y320000D01*
D12*
X210000Y405000D03*
D14*
X185000Y430000D01*
X77000Y430000D01*
X67000Y440000D01*
X40678Y791033D02*
X44967Y795322D01*
X64322Y795322D02*
X65000Y796000D01*
X64322Y795322D02*
X44967Y795322D01*
X40678Y791033D02*
X40678Y611322D01*
X65000Y796000D02*
X131200Y796000D01*
X148800Y778400D01*
X67000Y585000D02*
X67000Y440000D01*
X67000Y585000D02*
X40678Y611322D01*
D12*
X200000Y320000D03*
X425000Y150000D03*
D15*
X250000Y270000D02*
X200000Y320000D01*
X250000Y270000D02*
X370000Y270000D01*
X425000Y215000D01*
X425000Y150000D01*
D12*
X135100Y116400D03*
X135000Y204000D03*
X155000Y204000D03*
X115000Y305000D03*
D14*
X115000Y320000D01*
X99000Y336000D02*
X18000Y336000D01*
X10000Y344000D01*
X10000Y903000D01*
X99000Y336000D02*
X115000Y320000D01*
X10000Y903000D02*
X37800Y930800D01*
X148800Y930800D01*
D12*
X135000Y305000D03*
D14*
X135000Y312000D01*
X24000Y347000D02*
X16000Y355000D01*
X16000Y898000D01*
X39000Y921000D01*
X133200Y921000D01*
X148800Y905400D01*
X100000Y347000D02*
X135000Y312000D01*
X100000Y347000D02*
X24000Y347000D01*
D12*
X315000Y205000D03*
D17*
X396000Y124000D01*
X428400Y124000D01*
X442700Y138300D01*
D14*
X346388Y740125D02*
X246012Y740125D01*
X208087Y702200D02*
X148800Y702200D01*
X208087Y702200D02*
X246012Y740125D01*
D17*
X346388Y740125D02*
X392475Y740125D01*
X442700Y689900D02*
X442700Y138300D01*
X442700Y689900D02*
X392475Y740125D01*
D12*
X335000Y205000D03*
D17*
X403100Y136900D01*
X427500Y136900D01*
X434600Y144000D01*
X434600Y673600D01*
D14*
X200200Y676800D02*
X148800Y676800D01*
X238125Y714725D02*
X346388Y714725D01*
X238125Y714725D02*
X200200Y676800D01*
D17*
X346388Y714725D02*
X393475Y714725D01*
X434600Y673600D01*
D12*
X140300Y498000D03*
X323000Y444000D03*
X375000Y295000D03*
D15*
X375000Y392000D01*
X323000Y444000D01*
D12*
X135600Y445100D03*
X225000Y160000D03*
M02*
