G04 EAGLE Gerber RS-274X export*
G75*
%MOMM*%
%FSLAX34Y34*%
%LPD*%
%INCopper Layer 15*%
%IPPOS*%
%AMOC8*
5,1,8,0,0,1.08239X$1,22.5*%
G01*
%ADD10C,1.524000*%
%ADD11C,1.650000*%
%ADD12C,0.756400*%
%ADD13C,0.250000*%
%ADD14C,0.200000*%
%ADD15C,0.300000*%

G36*
X207851Y2552D02*
X207851Y2552D01*
X207922Y2554D01*
X207971Y2572D01*
X208023Y2580D01*
X208086Y2614D01*
X208153Y2639D01*
X208194Y2671D01*
X208240Y2696D01*
X208289Y2748D01*
X208345Y2792D01*
X208374Y2836D01*
X208409Y2874D01*
X208440Y2939D01*
X208478Y2999D01*
X208491Y3050D01*
X208513Y3097D01*
X208521Y3168D01*
X208538Y3238D01*
X208534Y3290D01*
X208540Y3341D01*
X208525Y3412D01*
X208519Y3483D01*
X208499Y3531D01*
X208488Y3582D01*
X208451Y3643D01*
X208423Y3709D01*
X208378Y3765D01*
X208362Y3793D01*
X208344Y3808D01*
X208318Y3840D01*
X208226Y3932D01*
X132949Y79209D01*
X132949Y109939D01*
X132930Y110053D01*
X132913Y110170D01*
X132911Y110175D01*
X132910Y110181D01*
X132855Y110284D01*
X132802Y110389D01*
X132797Y110393D01*
X132794Y110399D01*
X132710Y110479D01*
X132626Y110561D01*
X132620Y110565D01*
X132616Y110568D01*
X132599Y110576D01*
X132479Y110642D01*
X131518Y111040D01*
X129740Y112818D01*
X128777Y115142D01*
X128777Y117658D01*
X129740Y119982D01*
X131518Y121760D01*
X133842Y122723D01*
X136358Y122723D01*
X138682Y121760D01*
X140460Y119982D01*
X141423Y117658D01*
X141423Y115142D01*
X140460Y112818D01*
X138682Y111040D01*
X137721Y110642D01*
X137621Y110580D01*
X137521Y110520D01*
X137517Y110516D01*
X137512Y110512D01*
X137437Y110422D01*
X137361Y110333D01*
X137359Y110328D01*
X137355Y110323D01*
X137313Y110214D01*
X137269Y110105D01*
X137268Y110098D01*
X137267Y110093D01*
X137266Y110075D01*
X137251Y109939D01*
X137251Y81306D01*
X137265Y81216D01*
X137273Y81125D01*
X137285Y81095D01*
X137290Y81063D01*
X137333Y80983D01*
X137369Y80899D01*
X137395Y80867D01*
X137406Y80846D01*
X137429Y80824D01*
X137474Y80768D01*
X211268Y6974D01*
X211342Y6921D01*
X211411Y6861D01*
X211441Y6849D01*
X211468Y6830D01*
X211555Y6803D01*
X211639Y6769D01*
X211680Y6765D01*
X211703Y6758D01*
X211735Y6759D01*
X211806Y6751D01*
X348694Y6751D01*
X348784Y6765D01*
X348875Y6773D01*
X348905Y6785D01*
X348937Y6790D01*
X349017Y6833D01*
X349101Y6869D01*
X349133Y6895D01*
X349154Y6906D01*
X349176Y6929D01*
X349232Y6974D01*
X435726Y93468D01*
X435779Y93542D01*
X435839Y93611D01*
X435851Y93641D01*
X435870Y93668D01*
X435897Y93755D01*
X435931Y93839D01*
X435935Y93880D01*
X435942Y93903D01*
X435941Y93935D01*
X435949Y94006D01*
X435949Y205494D01*
X435935Y205584D01*
X435927Y205675D01*
X435915Y205705D01*
X435910Y205737D01*
X435867Y205817D01*
X435831Y205901D01*
X435805Y205933D01*
X435794Y205954D01*
X435771Y205976D01*
X435726Y206032D01*
X344132Y297626D01*
X344058Y297679D01*
X343989Y297739D01*
X343959Y297751D01*
X343932Y297770D01*
X343845Y297797D01*
X343761Y297831D01*
X343720Y297835D01*
X343697Y297842D01*
X343665Y297841D01*
X343594Y297849D01*
X279109Y297849D01*
X237849Y339109D01*
X237849Y450891D01*
X367626Y580668D01*
X367679Y580742D01*
X367739Y580811D01*
X367751Y580841D01*
X367770Y580868D01*
X367797Y580955D01*
X367831Y581039D01*
X367835Y581080D01*
X367842Y581103D01*
X367841Y581135D01*
X367849Y581206D01*
X367849Y808794D01*
X367835Y808884D01*
X367827Y808975D01*
X367815Y809005D01*
X367810Y809037D01*
X367767Y809117D01*
X367731Y809201D01*
X367705Y809233D01*
X367694Y809254D01*
X367671Y809276D01*
X367626Y809332D01*
X324732Y852226D01*
X324658Y852279D01*
X324589Y852339D01*
X324559Y852351D01*
X324532Y852370D01*
X324445Y852397D01*
X324361Y852431D01*
X324320Y852435D01*
X324297Y852442D01*
X324265Y852441D01*
X324194Y852449D01*
X311231Y852449D01*
X311116Y852430D01*
X311000Y852413D01*
X310995Y852411D01*
X310988Y852410D01*
X310886Y852355D01*
X310781Y852302D01*
X310777Y852297D01*
X310771Y852294D01*
X310691Y852210D01*
X310609Y852126D01*
X310605Y852120D01*
X310602Y852116D01*
X310594Y852099D01*
X310528Y851979D01*
X309356Y849150D01*
X306650Y846444D01*
X303114Y844979D01*
X299286Y844979D01*
X295750Y846444D01*
X293044Y849150D01*
X291579Y852686D01*
X291579Y856514D01*
X293044Y860050D01*
X295750Y862756D01*
X299286Y864221D01*
X303114Y864221D01*
X306650Y862756D01*
X309356Y860050D01*
X310528Y857221D01*
X310589Y857121D01*
X310649Y857021D01*
X310654Y857017D01*
X310658Y857012D01*
X310747Y856937D01*
X310836Y856861D01*
X310842Y856859D01*
X310847Y856855D01*
X310955Y856813D01*
X311064Y856769D01*
X311072Y856768D01*
X311077Y856767D01*
X311095Y856766D01*
X311231Y856751D01*
X326291Y856751D01*
X372151Y810891D01*
X372151Y579109D01*
X242374Y449332D01*
X242321Y449258D01*
X242261Y449189D01*
X242249Y449159D01*
X242230Y449132D01*
X242203Y449045D01*
X242169Y448961D01*
X242165Y448920D01*
X242158Y448897D01*
X242159Y448865D01*
X242151Y448794D01*
X242151Y341206D01*
X242165Y341116D01*
X242173Y341025D01*
X242185Y340995D01*
X242190Y340963D01*
X242233Y340883D01*
X242269Y340799D01*
X242295Y340767D01*
X242306Y340746D01*
X242329Y340724D01*
X242374Y340668D01*
X280668Y302374D01*
X280742Y302321D01*
X280811Y302261D01*
X280841Y302249D01*
X280868Y302230D01*
X280955Y302203D01*
X281039Y302169D01*
X281080Y302165D01*
X281103Y302158D01*
X281135Y302159D01*
X281206Y302151D01*
X345691Y302151D01*
X440251Y207591D01*
X440251Y91909D01*
X438768Y90426D01*
X352182Y3840D01*
X352140Y3782D01*
X352091Y3730D01*
X352069Y3683D01*
X352038Y3641D01*
X352017Y3572D01*
X351987Y3507D01*
X351981Y3455D01*
X351966Y3405D01*
X351968Y3334D01*
X351960Y3263D01*
X351971Y3212D01*
X351972Y3160D01*
X351997Y3092D01*
X352012Y3022D01*
X352039Y2978D01*
X352057Y2929D01*
X352102Y2873D01*
X352138Y2811D01*
X352178Y2777D01*
X352210Y2737D01*
X352271Y2698D01*
X352325Y2651D01*
X352374Y2632D01*
X352417Y2604D01*
X352487Y2586D01*
X352553Y2559D01*
X352625Y2551D01*
X352656Y2543D01*
X352679Y2545D01*
X352720Y2541D01*
X420000Y2541D01*
X420022Y2544D01*
X420060Y2543D01*
X424236Y2872D01*
X424242Y2873D01*
X424247Y2873D01*
X424412Y2907D01*
X432356Y5488D01*
X432388Y5504D01*
X432422Y5513D01*
X432568Y5596D01*
X439326Y10506D01*
X439351Y10531D01*
X439381Y10550D01*
X439494Y10674D01*
X444404Y17432D01*
X444420Y17464D01*
X444443Y17491D01*
X444512Y17644D01*
X447093Y25588D01*
X447094Y25594D01*
X447097Y25599D01*
X447128Y25764D01*
X447457Y29940D01*
X447455Y29962D01*
X447459Y30000D01*
X447459Y950000D01*
X447456Y950022D01*
X447457Y950060D01*
X447128Y954236D01*
X447127Y954242D01*
X447127Y954247D01*
X447093Y954412D01*
X444512Y962356D01*
X444496Y962388D01*
X444487Y962422D01*
X444404Y962568D01*
X439494Y969326D01*
X439469Y969351D01*
X439450Y969381D01*
X439326Y969494D01*
X432568Y974404D01*
X432536Y974420D01*
X432509Y974443D01*
X432356Y974512D01*
X424412Y977093D01*
X424406Y977094D01*
X424401Y977097D01*
X424236Y977128D01*
X420060Y977457D01*
X420038Y977455D01*
X420000Y977459D01*
X30000Y977459D01*
X29978Y977456D01*
X29940Y977457D01*
X25764Y977128D01*
X25758Y977127D01*
X25753Y977127D01*
X25588Y977093D01*
X17644Y974512D01*
X17612Y974496D01*
X17578Y974487D01*
X17432Y974404D01*
X10674Y969494D01*
X10649Y969469D01*
X10619Y969450D01*
X10506Y969326D01*
X5596Y962568D01*
X5580Y962536D01*
X5557Y962509D01*
X5488Y962356D01*
X2907Y954412D01*
X2906Y954406D01*
X2903Y954401D01*
X2872Y954236D01*
X2543Y950060D01*
X2545Y950038D01*
X2541Y950000D01*
X2541Y30000D01*
X2544Y29978D01*
X2543Y29940D01*
X2872Y25764D01*
X2873Y25758D01*
X2873Y25753D01*
X2907Y25588D01*
X5488Y17644D01*
X5504Y17612D01*
X5513Y17578D01*
X5596Y17432D01*
X10506Y10674D01*
X10531Y10649D01*
X10550Y10619D01*
X10674Y10506D01*
X17432Y5596D01*
X17464Y5580D01*
X17491Y5557D01*
X17644Y5488D01*
X25588Y2907D01*
X25594Y2906D01*
X25599Y2903D01*
X25764Y2872D01*
X29940Y2543D01*
X29962Y2545D01*
X30000Y2541D01*
X207780Y2541D01*
X207851Y2552D01*
G37*
%LPC*%
G36*
X333942Y33677D02*
X333942Y33677D01*
X331618Y34640D01*
X329840Y36418D01*
X328877Y38742D01*
X328877Y41258D01*
X329840Y43582D01*
X331618Y45360D01*
X333942Y46323D01*
X336458Y46323D01*
X338782Y45360D01*
X340560Y43582D01*
X341062Y42371D01*
X341124Y42271D01*
X341183Y42171D01*
X341188Y42167D01*
X341191Y42162D01*
X341282Y42087D01*
X341370Y42011D01*
X341376Y42009D01*
X341381Y42005D01*
X341489Y41963D01*
X341598Y41919D01*
X341606Y41918D01*
X341610Y41917D01*
X341629Y41916D01*
X341765Y41901D01*
X374897Y41901D01*
X374987Y41915D01*
X375078Y41923D01*
X375108Y41935D01*
X375140Y41940D01*
X375221Y41983D01*
X375305Y42019D01*
X375337Y42045D01*
X375357Y42056D01*
X375380Y42079D01*
X375436Y42124D01*
X387876Y54564D01*
X387924Y54630D01*
X387932Y54639D01*
X387934Y54644D01*
X387989Y54708D01*
X388001Y54738D01*
X388020Y54764D01*
X388047Y54851D01*
X388081Y54936D01*
X388085Y54977D01*
X388092Y54999D01*
X388091Y55031D01*
X388099Y55103D01*
X388099Y238897D01*
X388085Y238987D01*
X388077Y239078D01*
X388065Y239108D01*
X388060Y239140D01*
X388017Y239221D01*
X387981Y239305D01*
X387955Y239337D01*
X387944Y239357D01*
X387921Y239380D01*
X387876Y239436D01*
X349436Y277876D01*
X349362Y277929D01*
X349292Y277989D01*
X349262Y278001D01*
X349236Y278020D01*
X349149Y278047D01*
X349064Y278081D01*
X349023Y278085D01*
X349001Y278092D01*
X348969Y278091D01*
X348897Y278099D01*
X105213Y278099D01*
X80099Y303213D01*
X80099Y599897D01*
X80085Y599987D01*
X80077Y600078D01*
X80065Y600108D01*
X80060Y600140D01*
X80017Y600221D01*
X79981Y600305D01*
X79955Y600337D01*
X79944Y600357D01*
X79921Y600380D01*
X79876Y600436D01*
X76298Y604014D01*
X76204Y604081D01*
X76109Y604152D01*
X76103Y604154D01*
X76098Y604157D01*
X75988Y604191D01*
X75876Y604228D01*
X75869Y604228D01*
X75863Y604230D01*
X75747Y604227D01*
X75630Y604226D01*
X75622Y604223D01*
X75617Y604223D01*
X75600Y604217D01*
X75469Y604179D01*
X74258Y603677D01*
X71742Y603677D01*
X69418Y604640D01*
X67640Y606418D01*
X66677Y608742D01*
X66677Y611258D01*
X67640Y613582D01*
X69418Y615360D01*
X71742Y616323D01*
X74258Y616323D01*
X75469Y615821D01*
X75582Y615795D01*
X75696Y615766D01*
X75702Y615766D01*
X75708Y615765D01*
X75825Y615776D01*
X75941Y615785D01*
X75947Y615788D01*
X75953Y615788D01*
X76060Y615836D01*
X76167Y615881D01*
X76173Y615886D01*
X76178Y615888D01*
X76191Y615901D01*
X76298Y615986D01*
X126213Y665901D01*
X146146Y665901D01*
X146242Y665916D01*
X146339Y665926D01*
X146363Y665936D01*
X146389Y665940D01*
X146475Y665986D01*
X146564Y666026D01*
X146583Y666043D01*
X146606Y666056D01*
X146673Y666126D01*
X146745Y666192D01*
X146757Y666215D01*
X146775Y666234D01*
X146816Y666322D01*
X146863Y666408D01*
X146868Y666433D01*
X146879Y666457D01*
X146890Y666554D01*
X146907Y666650D01*
X146903Y666676D01*
X146906Y666701D01*
X146885Y666797D01*
X146871Y666893D01*
X146859Y666916D01*
X146854Y666942D01*
X146804Y667025D01*
X146760Y667112D01*
X146741Y667131D01*
X146728Y667153D01*
X146654Y667216D01*
X146584Y667284D01*
X146556Y667300D01*
X146541Y667313D01*
X146510Y667325D01*
X146437Y667365D01*
X143350Y668644D01*
X140644Y671350D01*
X139179Y674886D01*
X139179Y678714D01*
X140644Y682250D01*
X143350Y684956D01*
X146886Y686421D01*
X150714Y686421D01*
X154250Y684956D01*
X156956Y682250D01*
X158421Y678714D01*
X158421Y674886D01*
X156956Y671350D01*
X154250Y668644D01*
X151163Y667365D01*
X151080Y667314D01*
X150994Y667268D01*
X150976Y667249D01*
X150954Y667236D01*
X150892Y667161D01*
X150825Y667090D01*
X150814Y667066D01*
X150797Y667046D01*
X150762Y666955D01*
X150721Y666867D01*
X150718Y666841D01*
X150709Y666817D01*
X150705Y666719D01*
X150694Y666623D01*
X150699Y666597D01*
X150698Y666571D01*
X150725Y666477D01*
X150746Y666382D01*
X150760Y666360D01*
X150767Y666335D01*
X150822Y666255D01*
X150872Y666171D01*
X150892Y666154D01*
X150907Y666133D01*
X150985Y666074D01*
X151059Y666011D01*
X151083Y666001D01*
X151104Y665986D01*
X151197Y665956D01*
X151287Y665919D01*
X151320Y665916D01*
X151338Y665910D01*
X151371Y665910D01*
X151454Y665901D01*
X168997Y665901D01*
X169087Y665915D01*
X169178Y665923D01*
X169208Y665935D01*
X169240Y665940D01*
X169321Y665983D01*
X169405Y666019D01*
X169437Y666045D01*
X169458Y666056D01*
X169480Y666079D01*
X169536Y666124D01*
X256976Y753564D01*
X258313Y754901D01*
X291065Y754901D01*
X291180Y754920D01*
X291296Y754937D01*
X291302Y754939D01*
X291308Y754940D01*
X291411Y754995D01*
X291515Y755048D01*
X291520Y755053D01*
X291525Y755056D01*
X291605Y755140D01*
X291688Y755224D01*
X291691Y755230D01*
X291695Y755234D01*
X291703Y755251D01*
X291769Y755371D01*
X293044Y758450D01*
X295750Y761156D01*
X298717Y762385D01*
X298799Y762436D01*
X298885Y762482D01*
X298903Y762501D01*
X298926Y762514D01*
X298988Y762589D01*
X299055Y762660D01*
X299066Y762684D01*
X299082Y762704D01*
X299117Y762795D01*
X299158Y762883D01*
X299161Y762909D01*
X299171Y762933D01*
X299175Y763031D01*
X299185Y763127D01*
X299180Y763153D01*
X299181Y763179D01*
X299154Y763273D01*
X299133Y763368D01*
X299120Y763390D01*
X299112Y763415D01*
X299057Y763495D01*
X299007Y763579D01*
X298987Y763596D01*
X298972Y763617D01*
X298894Y763676D01*
X298820Y763739D01*
X298796Y763749D01*
X298775Y763764D01*
X298682Y763794D01*
X298592Y763831D01*
X298559Y763834D01*
X298541Y763840D01*
X298508Y763840D01*
X298425Y763849D01*
X151575Y763849D01*
X151479Y763834D01*
X151382Y763824D01*
X151358Y763814D01*
X151332Y763810D01*
X151246Y763764D01*
X151157Y763724D01*
X151138Y763707D01*
X151115Y763694D01*
X151048Y763624D01*
X150976Y763558D01*
X150963Y763535D01*
X150945Y763516D01*
X150904Y763428D01*
X150857Y763342D01*
X150853Y763317D01*
X150842Y763293D01*
X150831Y763196D01*
X150814Y763100D01*
X150817Y763074D01*
X150815Y763049D01*
X150835Y762953D01*
X150849Y762857D01*
X150861Y762834D01*
X150867Y762808D01*
X150917Y762725D01*
X150961Y762638D01*
X150980Y762619D01*
X150993Y762597D01*
X151067Y762534D01*
X151136Y762466D01*
X151165Y762450D01*
X151180Y762437D01*
X151211Y762425D01*
X151283Y762385D01*
X154250Y761156D01*
X156956Y758450D01*
X158421Y754914D01*
X158421Y751086D01*
X156956Y747550D01*
X154250Y744844D01*
X150714Y743379D01*
X146886Y743379D01*
X143807Y744655D01*
X143694Y744681D01*
X143580Y744710D01*
X143574Y744709D01*
X143568Y744711D01*
X143451Y744700D01*
X143335Y744691D01*
X143329Y744688D01*
X143323Y744688D01*
X143215Y744640D01*
X143109Y744594D01*
X143103Y744590D01*
X143098Y744588D01*
X143084Y744575D01*
X142978Y744490D01*
X137446Y738958D01*
X137393Y738884D01*
X137333Y738814D01*
X137321Y738784D01*
X137302Y738758D01*
X137275Y738671D01*
X137241Y738586D01*
X137237Y738545D01*
X137230Y738523D01*
X137231Y738491D01*
X137223Y738419D01*
X137223Y727180D01*
X121042Y710999D01*
X25003Y710999D01*
X24913Y710985D01*
X24822Y710977D01*
X24792Y710965D01*
X24760Y710960D01*
X24679Y710917D01*
X24595Y710881D01*
X24563Y710855D01*
X24543Y710844D01*
X24520Y710821D01*
X24464Y710776D01*
X12124Y698436D01*
X12071Y698362D01*
X12011Y698292D01*
X11999Y698262D01*
X11980Y698236D01*
X11953Y698149D01*
X11919Y698064D01*
X11915Y698023D01*
X11908Y698001D01*
X11909Y697969D01*
X11901Y697897D01*
X11901Y232103D01*
X11915Y232013D01*
X11923Y231922D01*
X11935Y231892D01*
X11940Y231860D01*
X11983Y231779D01*
X12019Y231695D01*
X12045Y231663D01*
X12056Y231643D01*
X12079Y231620D01*
X12124Y231564D01*
X18564Y225124D01*
X18638Y225071D01*
X18708Y225011D01*
X18738Y224999D01*
X18764Y224980D01*
X18851Y224953D01*
X18936Y224919D01*
X18977Y224915D01*
X18999Y224908D01*
X19031Y224909D01*
X19103Y224901D01*
X116787Y224901D01*
X118124Y223564D01*
X131702Y209986D01*
X131797Y209918D01*
X131891Y209848D01*
X131897Y209846D01*
X131902Y209843D01*
X132013Y209808D01*
X132124Y209772D01*
X132131Y209772D01*
X132137Y209770D01*
X132253Y209773D01*
X132370Y209774D01*
X132378Y209777D01*
X132383Y209777D01*
X132400Y209783D01*
X132531Y209821D01*
X133742Y210323D01*
X136258Y210323D01*
X138582Y209360D01*
X140360Y207582D01*
X141323Y205258D01*
X141323Y202742D01*
X140360Y200418D01*
X138582Y198640D01*
X136258Y197677D01*
X133742Y197677D01*
X131418Y198640D01*
X129640Y200418D01*
X128677Y202742D01*
X128677Y205258D01*
X129179Y206469D01*
X129206Y206582D01*
X129234Y206696D01*
X129234Y206702D01*
X129235Y206708D01*
X129224Y206824D01*
X129215Y206941D01*
X129213Y206947D01*
X129212Y206953D01*
X129164Y207061D01*
X129119Y207167D01*
X129114Y207173D01*
X129112Y207178D01*
X129099Y207192D01*
X129014Y207298D01*
X115436Y220876D01*
X115362Y220929D01*
X115292Y220989D01*
X115262Y221001D01*
X115236Y221020D01*
X115149Y221047D01*
X115064Y221081D01*
X115023Y221085D01*
X115001Y221092D01*
X114969Y221091D01*
X114897Y221099D01*
X17213Y221099D01*
X8099Y230213D01*
X8099Y699787D01*
X23113Y714801D01*
X103420Y714801D01*
X103490Y714812D01*
X103562Y714814D01*
X103611Y714832D01*
X103663Y714840D01*
X103726Y714874D01*
X103793Y714899D01*
X103834Y714931D01*
X103880Y714956D01*
X103929Y715008D01*
X103985Y715052D01*
X104013Y715096D01*
X104049Y715134D01*
X104079Y715199D01*
X104118Y715259D01*
X104131Y715310D01*
X104153Y715357D01*
X104161Y715428D01*
X104178Y715498D01*
X104174Y715550D01*
X104180Y715601D01*
X104165Y715672D01*
X104159Y715743D01*
X104139Y715791D01*
X104128Y715842D01*
X104091Y715903D01*
X104063Y715969D01*
X104018Y716025D01*
X104002Y716053D01*
X103984Y716068D01*
X103958Y716100D01*
X102640Y717418D01*
X101677Y719742D01*
X101677Y722258D01*
X102640Y724582D01*
X104418Y726360D01*
X106742Y727323D01*
X109258Y727323D01*
X111582Y726360D01*
X113360Y724582D01*
X114323Y722258D01*
X114323Y719742D01*
X113360Y717418D01*
X112042Y716100D01*
X112000Y716042D01*
X111951Y715990D01*
X111929Y715943D01*
X111898Y715901D01*
X111877Y715832D01*
X111847Y715767D01*
X111841Y715715D01*
X111826Y715665D01*
X111828Y715594D01*
X111820Y715523D01*
X111831Y715472D01*
X111832Y715420D01*
X111857Y715352D01*
X111872Y715282D01*
X111899Y715237D01*
X111917Y715189D01*
X111962Y715133D01*
X111998Y715071D01*
X112038Y715037D01*
X112071Y714997D01*
X112131Y714958D01*
X112185Y714911D01*
X112234Y714892D01*
X112277Y714864D01*
X112347Y714846D01*
X112414Y714819D01*
X112485Y714811D01*
X112516Y714803D01*
X112539Y714805D01*
X112580Y714801D01*
X119152Y714801D01*
X119242Y714815D01*
X119333Y714823D01*
X119363Y714835D01*
X119395Y714840D01*
X119476Y714883D01*
X119560Y714919D01*
X119592Y714945D01*
X119612Y714956D01*
X119635Y714979D01*
X119691Y715024D01*
X128045Y723378D01*
X128086Y723436D01*
X128136Y723488D01*
X128158Y723535D01*
X128188Y723577D01*
X128209Y723646D01*
X128239Y723711D01*
X128245Y723763D01*
X128260Y723813D01*
X128259Y723884D01*
X128267Y723955D01*
X128255Y724006D01*
X128254Y724058D01*
X128229Y724126D01*
X128214Y724196D01*
X128188Y724241D01*
X128170Y724289D01*
X128125Y724345D01*
X128088Y724407D01*
X128049Y724441D01*
X128016Y724481D01*
X127956Y724520D01*
X127901Y724567D01*
X127853Y724586D01*
X127809Y724614D01*
X127740Y724632D01*
X127673Y724659D01*
X127602Y724667D01*
X127571Y724675D01*
X127547Y724673D01*
X127506Y724677D01*
X126742Y724677D01*
X124418Y725640D01*
X122640Y727418D01*
X122138Y728629D01*
X122076Y728729D01*
X122017Y728829D01*
X122012Y728833D01*
X122009Y728838D01*
X121918Y728913D01*
X121830Y728989D01*
X121824Y728991D01*
X121819Y728995D01*
X121711Y729037D01*
X121602Y729081D01*
X121594Y729082D01*
X121590Y729083D01*
X121571Y729084D01*
X121435Y729099D01*
X91328Y729099D01*
X91318Y729098D01*
X91309Y729099D01*
X91143Y729077D01*
X90692Y728964D01*
X90666Y728974D01*
X90624Y729001D01*
X90553Y729019D01*
X90484Y729046D01*
X90434Y729049D01*
X90385Y729061D01*
X90312Y729056D01*
X90239Y729060D01*
X90190Y729046D01*
X90140Y729042D01*
X90072Y729014D01*
X90002Y728994D01*
X89960Y728966D01*
X89914Y728946D01*
X89819Y728870D01*
X89798Y728856D01*
X89793Y728849D01*
X89783Y728841D01*
X89582Y728640D01*
X87258Y727677D01*
X84742Y727677D01*
X82418Y728640D01*
X80640Y730418D01*
X79677Y732742D01*
X79677Y735258D01*
X80640Y737582D01*
X82520Y739462D01*
X82532Y739478D01*
X82547Y739490D01*
X82603Y739578D01*
X82664Y739661D01*
X82669Y739680D01*
X82680Y739697D01*
X82705Y739798D01*
X82736Y739897D01*
X82735Y739916D01*
X82740Y739936D01*
X82732Y740039D01*
X82730Y740142D01*
X82723Y740161D01*
X82721Y740181D01*
X82681Y740276D01*
X82645Y740373D01*
X82633Y740389D01*
X82625Y740407D01*
X82520Y740538D01*
X80640Y742418D01*
X79677Y744742D01*
X79677Y747258D01*
X80640Y749582D01*
X82418Y751360D01*
X84742Y752323D01*
X87258Y752323D01*
X89582Y751360D01*
X91360Y749582D01*
X91758Y748621D01*
X91820Y748521D01*
X91880Y748421D01*
X91884Y748417D01*
X91888Y748412D01*
X91978Y748337D01*
X92067Y748261D01*
X92072Y748259D01*
X92077Y748255D01*
X92186Y748213D01*
X92295Y748169D01*
X92302Y748168D01*
X92307Y748167D01*
X92325Y748166D01*
X92461Y748151D01*
X119794Y748151D01*
X119884Y748165D01*
X119975Y748173D01*
X120005Y748185D01*
X120037Y748190D01*
X120117Y748233D01*
X120201Y748269D01*
X120233Y748295D01*
X120254Y748306D01*
X120276Y748329D01*
X120332Y748374D01*
X140109Y768151D01*
X144577Y768151D01*
X144673Y768166D01*
X144770Y768176D01*
X144794Y768186D01*
X144819Y768190D01*
X144905Y768236D01*
X144994Y768276D01*
X145014Y768293D01*
X145037Y768306D01*
X145104Y768376D01*
X145176Y768442D01*
X145188Y768465D01*
X145206Y768484D01*
X145247Y768572D01*
X145294Y768658D01*
X145299Y768683D01*
X145310Y768707D01*
X145321Y768804D01*
X145338Y768900D01*
X145334Y768926D01*
X145337Y768951D01*
X145316Y769047D01*
X145302Y769143D01*
X145290Y769166D01*
X145285Y769192D01*
X145235Y769275D01*
X145191Y769362D01*
X145172Y769381D01*
X145158Y769403D01*
X145085Y769466D01*
X145015Y769534D01*
X144986Y769550D01*
X144972Y769563D01*
X144941Y769575D01*
X144868Y769615D01*
X143350Y770244D01*
X140644Y772950D01*
X139179Y776486D01*
X139179Y780314D01*
X140644Y783850D01*
X143350Y786556D01*
X146886Y788021D01*
X150714Y788021D01*
X154250Y786556D01*
X156956Y783850D01*
X158421Y780314D01*
X158421Y776486D01*
X156956Y772950D01*
X154250Y770244D01*
X152732Y769615D01*
X152649Y769564D01*
X152563Y769518D01*
X152545Y769500D01*
X152523Y769486D01*
X152461Y769410D01*
X152394Y769340D01*
X152383Y769316D01*
X152366Y769296D01*
X152331Y769205D01*
X152290Y769117D01*
X152287Y769091D01*
X152278Y769067D01*
X152274Y768969D01*
X152263Y768873D01*
X152269Y768847D01*
X152268Y768821D01*
X152295Y768727D01*
X152315Y768632D01*
X152329Y768610D01*
X152336Y768585D01*
X152392Y768505D01*
X152442Y768421D01*
X152461Y768404D01*
X152476Y768383D01*
X152554Y768324D01*
X152628Y768261D01*
X152653Y768251D01*
X152674Y768236D01*
X152766Y768206D01*
X152857Y768169D01*
X152889Y768166D01*
X152908Y768160D01*
X152941Y768160D01*
X153023Y768151D01*
X296977Y768151D01*
X297073Y768166D01*
X297170Y768176D01*
X297194Y768186D01*
X297219Y768190D01*
X297305Y768236D01*
X297394Y768276D01*
X297414Y768293D01*
X297437Y768306D01*
X297504Y768376D01*
X297576Y768442D01*
X297588Y768465D01*
X297606Y768484D01*
X297647Y768572D01*
X297694Y768658D01*
X297699Y768683D01*
X297710Y768707D01*
X297721Y768804D01*
X297738Y768900D01*
X297734Y768926D01*
X297737Y768951D01*
X297716Y769047D01*
X297702Y769143D01*
X297690Y769166D01*
X297685Y769192D01*
X297635Y769275D01*
X297591Y769362D01*
X297572Y769381D01*
X297558Y769403D01*
X297485Y769466D01*
X297415Y769534D01*
X297386Y769550D01*
X297372Y769563D01*
X297341Y769575D01*
X297268Y769615D01*
X295750Y770244D01*
X293044Y772950D01*
X291579Y776486D01*
X291579Y780314D01*
X293044Y783850D01*
X295750Y786556D01*
X299286Y788021D01*
X303114Y788021D01*
X306650Y786556D01*
X309356Y783850D01*
X310821Y780314D01*
X310821Y776486D01*
X309356Y772950D01*
X306650Y770244D01*
X305132Y769615D01*
X305049Y769564D01*
X304963Y769518D01*
X304945Y769500D01*
X304923Y769486D01*
X304861Y769410D01*
X304794Y769340D01*
X304783Y769316D01*
X304766Y769296D01*
X304731Y769205D01*
X304690Y769117D01*
X304687Y769091D01*
X304678Y769067D01*
X304674Y768969D01*
X304663Y768873D01*
X304669Y768847D01*
X304668Y768821D01*
X304695Y768727D01*
X304715Y768632D01*
X304729Y768610D01*
X304736Y768585D01*
X304792Y768505D01*
X304842Y768421D01*
X304861Y768404D01*
X304876Y768383D01*
X304954Y768324D01*
X305028Y768261D01*
X305053Y768251D01*
X305074Y768236D01*
X305166Y768206D01*
X305257Y768169D01*
X305289Y768166D01*
X305308Y768160D01*
X305341Y768160D01*
X305423Y768151D01*
X314891Y768151D01*
X323151Y759891D01*
X323151Y711109D01*
X312091Y700049D01*
X311231Y700049D01*
X311116Y700030D01*
X311000Y700013D01*
X310995Y700011D01*
X310988Y700010D01*
X310886Y699955D01*
X310781Y699902D01*
X310777Y699897D01*
X310771Y699894D01*
X310691Y699810D01*
X310609Y699726D01*
X310605Y699720D01*
X310602Y699716D01*
X310594Y699699D01*
X310528Y699579D01*
X309356Y696750D01*
X306650Y694044D01*
X303114Y692579D01*
X299286Y692579D01*
X295750Y694044D01*
X293044Y696750D01*
X291579Y700286D01*
X291579Y704114D01*
X293044Y707650D01*
X295750Y710356D01*
X299286Y711821D01*
X303114Y711821D01*
X306650Y710356D01*
X309356Y707650D01*
X310165Y705696D01*
X310190Y705657D01*
X310205Y705614D01*
X310254Y705553D01*
X310295Y705487D01*
X310330Y705457D01*
X310359Y705421D01*
X310425Y705379D01*
X310485Y705330D01*
X310527Y705313D01*
X310566Y705288D01*
X310642Y705269D01*
X310714Y705242D01*
X310760Y705240D01*
X310805Y705228D01*
X310882Y705234D01*
X310960Y705231D01*
X311004Y705244D01*
X311050Y705248D01*
X311121Y705278D01*
X311196Y705300D01*
X311234Y705326D01*
X311276Y705344D01*
X311383Y705429D01*
X311398Y705440D01*
X311401Y705444D01*
X311407Y705449D01*
X318626Y712668D01*
X318679Y712742D01*
X318739Y712811D01*
X318751Y712841D01*
X318770Y712868D01*
X318797Y712955D01*
X318831Y713039D01*
X318835Y713080D01*
X318842Y713103D01*
X318841Y713135D01*
X318849Y713206D01*
X318849Y757794D01*
X318835Y757884D01*
X318827Y757975D01*
X318815Y758005D01*
X318810Y758037D01*
X318767Y758117D01*
X318731Y758201D01*
X318705Y758233D01*
X318694Y758254D01*
X318671Y758276D01*
X318626Y758332D01*
X313332Y763626D01*
X313258Y763679D01*
X313189Y763739D01*
X313159Y763751D01*
X313132Y763770D01*
X313045Y763797D01*
X312961Y763831D01*
X312920Y763835D01*
X312897Y763842D01*
X312865Y763841D01*
X312794Y763849D01*
X303975Y763849D01*
X303879Y763834D01*
X303782Y763824D01*
X303758Y763814D01*
X303732Y763810D01*
X303646Y763764D01*
X303557Y763724D01*
X303538Y763707D01*
X303515Y763694D01*
X303448Y763624D01*
X303376Y763558D01*
X303363Y763535D01*
X303345Y763516D01*
X303304Y763428D01*
X303257Y763342D01*
X303253Y763317D01*
X303242Y763293D01*
X303231Y763196D01*
X303214Y763100D01*
X303217Y763074D01*
X303215Y763049D01*
X303235Y762953D01*
X303249Y762857D01*
X303261Y762834D01*
X303267Y762808D01*
X303317Y762725D01*
X303361Y762638D01*
X303380Y762619D01*
X303393Y762597D01*
X303467Y762534D01*
X303536Y762466D01*
X303565Y762450D01*
X303580Y762437D01*
X303611Y762425D01*
X303683Y762385D01*
X306650Y761156D01*
X309356Y758450D01*
X310821Y754914D01*
X310821Y751086D01*
X309356Y747550D01*
X306650Y744844D01*
X303114Y743379D01*
X299286Y743379D01*
X295750Y744844D01*
X293044Y747550D01*
X291769Y750629D01*
X291707Y750729D01*
X291647Y750829D01*
X291642Y750833D01*
X291639Y750838D01*
X291549Y750913D01*
X291460Y750989D01*
X291454Y750991D01*
X291449Y750995D01*
X291341Y751037D01*
X291232Y751081D01*
X291224Y751082D01*
X291220Y751083D01*
X291202Y751084D01*
X291065Y751099D01*
X260203Y751099D01*
X260113Y751085D01*
X260022Y751077D01*
X259992Y751065D01*
X259960Y751060D01*
X259879Y751017D01*
X259795Y750981D01*
X259763Y750955D01*
X259743Y750944D01*
X259720Y750921D01*
X259664Y750876D01*
X172224Y663436D01*
X170887Y662099D01*
X151937Y662099D01*
X151841Y662084D01*
X151744Y662074D01*
X151720Y662064D01*
X151694Y662060D01*
X151608Y662014D01*
X151519Y661974D01*
X151500Y661957D01*
X151477Y661944D01*
X151410Y661874D01*
X151338Y661808D01*
X151325Y661785D01*
X151307Y661766D01*
X151266Y661678D01*
X151219Y661592D01*
X151215Y661567D01*
X151204Y661543D01*
X151193Y661446D01*
X151176Y661350D01*
X151180Y661324D01*
X151177Y661299D01*
X151197Y661203D01*
X151212Y661107D01*
X151223Y661084D01*
X151229Y661058D01*
X151279Y660975D01*
X151323Y660888D01*
X151342Y660869D01*
X151355Y660847D01*
X151429Y660784D01*
X151499Y660716D01*
X151527Y660700D01*
X151542Y660687D01*
X151573Y660675D01*
X151646Y660635D01*
X154250Y659556D01*
X156956Y656850D01*
X158421Y653314D01*
X158421Y649486D01*
X156956Y645950D01*
X154250Y643244D01*
X150714Y641779D01*
X146886Y641779D01*
X143350Y643244D01*
X140644Y645950D01*
X140596Y646066D01*
X140572Y646105D01*
X140556Y646148D01*
X140507Y646209D01*
X140466Y646275D01*
X140431Y646304D01*
X140402Y646340D01*
X140337Y646382D01*
X140277Y646432D01*
X140234Y646448D01*
X140196Y646473D01*
X140120Y646492D01*
X140047Y646520D01*
X140002Y646522D01*
X139957Y646533D01*
X139879Y646527D01*
X139802Y646530D01*
X139757Y646518D01*
X139712Y646514D01*
X139640Y646484D01*
X139565Y646462D01*
X139528Y646436D01*
X139485Y646418D01*
X139379Y646332D01*
X139363Y646322D01*
X139360Y646318D01*
X139354Y646313D01*
X132374Y639332D01*
X132321Y639258D01*
X132261Y639189D01*
X132249Y639159D01*
X132230Y639132D01*
X132203Y639045D01*
X132169Y638961D01*
X132165Y638920D01*
X132158Y638897D01*
X132159Y638865D01*
X132151Y638794D01*
X132151Y618206D01*
X132165Y618116D01*
X132173Y618025D01*
X132185Y617995D01*
X132190Y617963D01*
X132233Y617883D01*
X132269Y617799D01*
X132295Y617767D01*
X132306Y617746D01*
X132329Y617724D01*
X132374Y617668D01*
X140668Y609374D01*
X140742Y609321D01*
X140811Y609261D01*
X140841Y609249D01*
X140868Y609230D01*
X140955Y609203D01*
X141039Y609169D01*
X141080Y609165D01*
X141103Y609158D01*
X141135Y609159D01*
X141206Y609151D01*
X183891Y609151D01*
X185374Y607668D01*
X212952Y580090D01*
X213047Y580022D01*
X213141Y579952D01*
X213147Y579950D01*
X213152Y579946D01*
X213263Y579912D01*
X213374Y579876D01*
X213381Y579876D01*
X213387Y579874D01*
X213503Y579877D01*
X213620Y579878D01*
X213628Y579880D01*
X213633Y579880D01*
X213650Y579887D01*
X213781Y579925D01*
X214742Y580323D01*
X217258Y580323D01*
X219582Y579360D01*
X221360Y577582D01*
X222323Y575258D01*
X222323Y572742D01*
X221360Y570418D01*
X219582Y568640D01*
X217258Y567677D01*
X214742Y567677D01*
X212418Y568640D01*
X210640Y570418D01*
X209677Y572742D01*
X209677Y575258D01*
X210075Y576219D01*
X210102Y576332D01*
X210131Y576446D01*
X210130Y576452D01*
X210131Y576458D01*
X210120Y576574D01*
X210111Y576691D01*
X210109Y576697D01*
X210108Y576703D01*
X210069Y576791D01*
X210067Y576803D01*
X210056Y576820D01*
X210015Y576917D01*
X210010Y576923D01*
X210008Y576928D01*
X209996Y576941D01*
X209949Y577000D01*
X209940Y577014D01*
X209931Y577022D01*
X209910Y577048D01*
X182332Y604626D01*
X182258Y604679D01*
X182189Y604739D01*
X182159Y604751D01*
X182132Y604770D01*
X182045Y604797D01*
X181961Y604831D01*
X181920Y604835D01*
X181897Y604842D01*
X181865Y604841D01*
X181794Y604849D01*
X139109Y604849D01*
X127849Y616109D01*
X127849Y640891D01*
X138956Y651998D01*
X139009Y652072D01*
X139069Y652141D01*
X139081Y652171D01*
X139100Y652198D01*
X139127Y652285D01*
X139161Y652369D01*
X139165Y652410D01*
X139172Y652433D01*
X139171Y652465D01*
X139179Y652536D01*
X139179Y653314D01*
X140644Y656850D01*
X143350Y659556D01*
X145954Y660635D01*
X146037Y660686D01*
X146123Y660732D01*
X146141Y660751D01*
X146163Y660764D01*
X146226Y660839D01*
X146293Y660910D01*
X146304Y660934D01*
X146320Y660954D01*
X146355Y661045D01*
X146396Y661133D01*
X146399Y661159D01*
X146408Y661183D01*
X146413Y661281D01*
X146423Y661377D01*
X146418Y661403D01*
X146419Y661429D01*
X146392Y661523D01*
X146371Y661618D01*
X146358Y661640D01*
X146350Y661665D01*
X146295Y661745D01*
X146245Y661829D01*
X146225Y661846D01*
X146210Y661867D01*
X146132Y661926D01*
X146058Y661989D01*
X146034Y661999D01*
X146013Y662014D01*
X145920Y662044D01*
X145830Y662081D01*
X145797Y662084D01*
X145779Y662090D01*
X145746Y662090D01*
X145663Y662099D01*
X128103Y662099D01*
X128013Y662085D01*
X127922Y662077D01*
X127892Y662065D01*
X127860Y662060D01*
X127779Y662017D01*
X127695Y661981D01*
X127663Y661955D01*
X127643Y661944D01*
X127620Y661921D01*
X127564Y661876D01*
X78986Y613298D01*
X78919Y613204D01*
X78848Y613109D01*
X78846Y613103D01*
X78843Y613098D01*
X78809Y612988D01*
X78772Y612876D01*
X78772Y612869D01*
X78770Y612863D01*
X78773Y612747D01*
X78774Y612630D01*
X78777Y612622D01*
X78777Y612617D01*
X78783Y612600D01*
X78821Y612469D01*
X79323Y611258D01*
X79323Y608742D01*
X78821Y607531D01*
X78795Y607418D01*
X78766Y607304D01*
X78766Y607298D01*
X78765Y607292D01*
X78776Y607175D01*
X78785Y607059D01*
X78788Y607053D01*
X78788Y607047D01*
X78836Y606940D01*
X78881Y606833D01*
X78886Y606827D01*
X78888Y606822D01*
X78901Y606809D01*
X78986Y606702D01*
X83901Y601787D01*
X83901Y305103D01*
X83915Y305013D01*
X83923Y304922D01*
X83935Y304892D01*
X83940Y304860D01*
X83983Y304779D01*
X84019Y304695D01*
X84045Y304663D01*
X84056Y304643D01*
X84079Y304620D01*
X84124Y304564D01*
X106564Y282124D01*
X106638Y282071D01*
X106708Y282011D01*
X106738Y281999D01*
X106764Y281980D01*
X106851Y281953D01*
X106936Y281919D01*
X106977Y281915D01*
X106999Y281908D01*
X107031Y281909D01*
X107103Y281901D01*
X350787Y281901D01*
X391901Y240787D01*
X391901Y53213D01*
X390564Y51876D01*
X376787Y38099D01*
X341765Y38099D01*
X341650Y38080D01*
X341534Y38063D01*
X341528Y38061D01*
X341522Y38060D01*
X341420Y38005D01*
X341315Y37952D01*
X341310Y37947D01*
X341305Y37944D01*
X341225Y37860D01*
X341143Y37776D01*
X341139Y37770D01*
X341136Y37766D01*
X341128Y37749D01*
X341062Y37629D01*
X340560Y36418D01*
X338782Y34640D01*
X336458Y33677D01*
X333942Y33677D01*
G37*
%LPD*%
%LPC*%
G36*
X249742Y31077D02*
X249742Y31077D01*
X247418Y32040D01*
X245640Y33818D01*
X244677Y36142D01*
X244677Y38658D01*
X245640Y40982D01*
X247418Y42760D01*
X249742Y43723D01*
X252258Y43723D01*
X254582Y42760D01*
X256360Y40982D01*
X256862Y39771D01*
X256924Y39671D01*
X256983Y39571D01*
X256988Y39567D01*
X256991Y39562D01*
X257082Y39487D01*
X257170Y39411D01*
X257176Y39409D01*
X257181Y39405D01*
X257289Y39363D01*
X257398Y39319D01*
X257406Y39318D01*
X257410Y39317D01*
X257429Y39316D01*
X257565Y39301D01*
X307216Y39301D01*
X307236Y39304D01*
X307255Y39302D01*
X307357Y39324D01*
X307459Y39340D01*
X307476Y39350D01*
X307496Y39354D01*
X307585Y39407D01*
X307676Y39456D01*
X307690Y39470D01*
X307707Y39480D01*
X307774Y39559D01*
X307846Y39634D01*
X307854Y39652D01*
X307867Y39667D01*
X307906Y39763D01*
X307949Y39857D01*
X307951Y39877D01*
X307959Y39895D01*
X307977Y40062D01*
X307977Y41258D01*
X308940Y43582D01*
X310718Y45360D01*
X313042Y46323D01*
X315558Y46323D01*
X316769Y45821D01*
X316882Y45794D01*
X316996Y45766D01*
X317002Y45766D01*
X317008Y45765D01*
X317124Y45776D01*
X317241Y45785D01*
X317247Y45787D01*
X317253Y45788D01*
X317361Y45836D01*
X317467Y45881D01*
X317473Y45886D01*
X317478Y45888D01*
X317492Y45901D01*
X317598Y45986D01*
X332513Y60901D01*
X367897Y60901D01*
X367987Y60915D01*
X368078Y60923D01*
X368108Y60935D01*
X368140Y60940D01*
X368221Y60983D01*
X368305Y61019D01*
X368337Y61045D01*
X368357Y61056D01*
X368380Y61079D01*
X368436Y61124D01*
X374876Y67564D01*
X374929Y67638D01*
X374989Y67708D01*
X375001Y67738D01*
X375020Y67764D01*
X375047Y67851D01*
X375081Y67936D01*
X375085Y67977D01*
X375092Y67999D01*
X375091Y68031D01*
X375099Y68103D01*
X375099Y222897D01*
X375085Y222987D01*
X375077Y223078D01*
X375065Y223108D01*
X375060Y223140D01*
X375017Y223221D01*
X374981Y223305D01*
X374955Y223337D01*
X374944Y223357D01*
X374921Y223380D01*
X374876Y223436D01*
X336436Y261876D01*
X336362Y261929D01*
X336292Y261989D01*
X336262Y262001D01*
X336236Y262020D01*
X336149Y262047D01*
X336064Y262081D01*
X336023Y262085D01*
X336001Y262092D01*
X335969Y262091D01*
X335897Y262099D01*
X91213Y262099D01*
X89876Y263436D01*
X62436Y290876D01*
X61099Y292213D01*
X61099Y373787D01*
X68876Y381564D01*
X68929Y381638D01*
X68989Y381708D01*
X69001Y381738D01*
X69020Y381764D01*
X69047Y381851D01*
X69081Y381936D01*
X69085Y381977D01*
X69092Y381999D01*
X69091Y382031D01*
X69099Y382103D01*
X69099Y577897D01*
X69085Y577987D01*
X69077Y578078D01*
X69065Y578108D01*
X69060Y578140D01*
X69017Y578221D01*
X68981Y578305D01*
X68955Y578337D01*
X68944Y578357D01*
X68921Y578380D01*
X68876Y578436D01*
X55099Y592213D01*
X55099Y614435D01*
X55080Y614550D01*
X55063Y614666D01*
X55061Y614672D01*
X55060Y614678D01*
X55005Y614780D01*
X54952Y614885D01*
X54947Y614890D01*
X54944Y614895D01*
X54860Y614975D01*
X54776Y615057D01*
X54770Y615061D01*
X54766Y615064D01*
X54749Y615072D01*
X54629Y615138D01*
X53418Y615640D01*
X51640Y617418D01*
X50677Y619742D01*
X50677Y622258D01*
X51640Y624582D01*
X53418Y626360D01*
X55742Y627323D01*
X58258Y627323D01*
X60582Y626360D01*
X62360Y624582D01*
X63323Y622258D01*
X63323Y619742D01*
X62360Y617418D01*
X60582Y615640D01*
X59371Y615138D01*
X59271Y615076D01*
X59171Y615017D01*
X59167Y615012D01*
X59162Y615009D01*
X59087Y614918D01*
X59011Y614830D01*
X59009Y614824D01*
X59005Y614819D01*
X58963Y614711D01*
X58919Y614602D01*
X58918Y614594D01*
X58917Y614590D01*
X58916Y614571D01*
X58901Y614435D01*
X58901Y594103D01*
X58915Y594013D01*
X58923Y593922D01*
X58935Y593892D01*
X58940Y593860D01*
X58983Y593779D01*
X59019Y593695D01*
X59045Y593663D01*
X59056Y593643D01*
X59079Y593620D01*
X59124Y593564D01*
X72901Y579787D01*
X72901Y380213D01*
X65124Y372436D01*
X65071Y372362D01*
X65011Y372292D01*
X64999Y372262D01*
X64980Y372236D01*
X64953Y372149D01*
X64919Y372064D01*
X64915Y372023D01*
X64908Y372001D01*
X64909Y371969D01*
X64901Y371897D01*
X64901Y294103D01*
X64906Y294070D01*
X64905Y294060D01*
X64916Y294011D01*
X64923Y293922D01*
X64935Y293892D01*
X64940Y293860D01*
X64954Y293834D01*
X64957Y293820D01*
X64988Y293769D01*
X65019Y293695D01*
X65045Y293663D01*
X65056Y293643D01*
X65073Y293626D01*
X65083Y293609D01*
X65099Y293595D01*
X65124Y293564D01*
X92564Y266124D01*
X92638Y266071D01*
X92708Y266011D01*
X92738Y265999D01*
X92764Y265980D01*
X92851Y265953D01*
X92936Y265919D01*
X92977Y265915D01*
X92999Y265908D01*
X93031Y265909D01*
X93103Y265901D01*
X337787Y265901D01*
X378901Y224787D01*
X378901Y66213D01*
X377564Y64876D01*
X369787Y57099D01*
X334403Y57099D01*
X334313Y57085D01*
X334222Y57077D01*
X334192Y57065D01*
X334160Y57060D01*
X334079Y57017D01*
X333995Y56981D01*
X333963Y56955D01*
X333943Y56944D01*
X333920Y56921D01*
X333864Y56876D01*
X320286Y43298D01*
X320218Y43203D01*
X320148Y43109D01*
X320146Y43103D01*
X320143Y43098D01*
X320108Y42987D01*
X320072Y42876D01*
X320072Y42869D01*
X320070Y42863D01*
X320073Y42747D01*
X320074Y42630D01*
X320077Y42622D01*
X320077Y42617D01*
X320083Y42600D01*
X320121Y42469D01*
X320623Y41258D01*
X320623Y38742D01*
X319660Y36418D01*
X317882Y34640D01*
X315558Y33677D01*
X313042Y33677D01*
X310718Y34640D01*
X310082Y35276D01*
X310008Y35329D01*
X309939Y35389D01*
X309909Y35401D01*
X309882Y35420D01*
X309795Y35447D01*
X309710Y35481D01*
X309670Y35485D01*
X309647Y35492D01*
X309615Y35491D01*
X309544Y35499D01*
X257565Y35499D01*
X257450Y35480D01*
X257334Y35463D01*
X257328Y35461D01*
X257322Y35460D01*
X257220Y35405D01*
X257115Y35352D01*
X257110Y35347D01*
X257105Y35344D01*
X257025Y35260D01*
X256943Y35176D01*
X256939Y35170D01*
X256936Y35166D01*
X256928Y35149D01*
X256862Y35029D01*
X256360Y33818D01*
X254582Y32040D01*
X252258Y31077D01*
X249742Y31077D01*
G37*
%LPD*%
%LPC*%
G36*
X327639Y317849D02*
X327639Y317849D01*
X326009Y319479D01*
X318575Y326913D01*
X318481Y326980D01*
X318387Y327050D01*
X318381Y327052D01*
X318376Y327056D01*
X318264Y327090D01*
X318153Y327127D01*
X318146Y327127D01*
X318140Y327128D01*
X318024Y327125D01*
X317907Y327124D01*
X317900Y327122D01*
X317895Y327122D01*
X317877Y327116D01*
X317746Y327078D01*
X314539Y325749D01*
X310461Y325749D01*
X306693Y327310D01*
X303810Y330193D01*
X302249Y333961D01*
X302249Y338039D01*
X303810Y341807D01*
X306693Y344690D01*
X310461Y346251D01*
X314539Y346251D01*
X318307Y344690D01*
X321190Y341807D01*
X322751Y338039D01*
X322751Y333961D01*
X321647Y331296D01*
X321620Y331182D01*
X321592Y331069D01*
X321592Y331062D01*
X321591Y331056D01*
X321602Y330940D01*
X321611Y330824D01*
X321613Y330818D01*
X321614Y330812D01*
X321662Y330704D01*
X321707Y330597D01*
X321712Y330591D01*
X321714Y330587D01*
X321726Y330573D01*
X321812Y330466D01*
X329404Y322874D01*
X329478Y322821D01*
X329548Y322761D01*
X329578Y322749D01*
X329604Y322730D01*
X329691Y322703D01*
X329776Y322669D01*
X329817Y322665D01*
X329839Y322658D01*
X329871Y322659D01*
X329943Y322651D01*
X392940Y322651D01*
X393030Y322665D01*
X393121Y322673D01*
X393151Y322685D01*
X393183Y322690D01*
X393264Y322733D01*
X393348Y322769D01*
X393380Y322795D01*
X393400Y322806D01*
X393423Y322829D01*
X393479Y322874D01*
X437376Y366771D01*
X437429Y366845D01*
X437489Y366915D01*
X437501Y366945D01*
X437520Y366971D01*
X437547Y367058D01*
X437581Y367143D01*
X437585Y367184D01*
X437592Y367206D01*
X437591Y367238D01*
X437599Y367310D01*
X437599Y848690D01*
X437585Y848780D01*
X437577Y848871D01*
X437565Y848901D01*
X437560Y848933D01*
X437517Y849014D01*
X437481Y849098D01*
X437455Y849130D01*
X437444Y849150D01*
X437421Y849173D01*
X437376Y849229D01*
X386505Y900100D01*
X386410Y900168D01*
X386317Y900238D01*
X386311Y900240D01*
X386306Y900243D01*
X386194Y900277D01*
X386083Y900314D01*
X386076Y900314D01*
X386070Y900316D01*
X385954Y900312D01*
X385837Y900311D01*
X385830Y900309D01*
X385825Y900309D01*
X385807Y900303D01*
X385676Y900265D01*
X384258Y899677D01*
X381742Y899677D01*
X379418Y900640D01*
X377640Y902418D01*
X376677Y904742D01*
X376677Y907258D01*
X377640Y909582D01*
X379418Y911360D01*
X381742Y912323D01*
X384258Y912323D01*
X386582Y911360D01*
X388360Y909582D01*
X389323Y907258D01*
X389323Y904742D01*
X389321Y904739D01*
X389295Y904625D01*
X389266Y904511D01*
X389266Y904505D01*
X389265Y904499D01*
X389276Y904382D01*
X389285Y904266D01*
X389287Y904261D01*
X389288Y904254D01*
X389336Y904147D01*
X389381Y904040D01*
X389386Y904034D01*
X389388Y904030D01*
X389401Y904016D01*
X389486Y903909D01*
X440771Y852624D01*
X442401Y850994D01*
X442401Y365006D01*
X395244Y317849D01*
X327639Y317849D01*
G37*
%LPD*%
%LPC*%
G36*
X153742Y197677D02*
X153742Y197677D01*
X151418Y198640D01*
X149640Y200418D01*
X148677Y202742D01*
X148677Y205258D01*
X149179Y206469D01*
X149205Y206582D01*
X149234Y206696D01*
X149234Y206702D01*
X149235Y206708D01*
X149224Y206825D01*
X149215Y206941D01*
X149212Y206947D01*
X149212Y206953D01*
X149164Y207060D01*
X149119Y207167D01*
X149114Y207173D01*
X149112Y207178D01*
X149099Y207191D01*
X149014Y207298D01*
X128436Y227876D01*
X128362Y227929D01*
X128292Y227989D01*
X128262Y228001D01*
X128236Y228020D01*
X128149Y228047D01*
X128064Y228081D01*
X128023Y228085D01*
X128001Y228092D01*
X127969Y228091D01*
X127897Y228099D01*
X22213Y228099D01*
X14099Y236213D01*
X14099Y696787D01*
X26213Y708901D01*
X127097Y708901D01*
X127187Y708915D01*
X127278Y708923D01*
X127308Y708935D01*
X127340Y708940D01*
X127421Y708983D01*
X127505Y709019D01*
X127537Y709045D01*
X127557Y709056D01*
X127580Y709079D01*
X127636Y709124D01*
X140290Y721778D01*
X140357Y721872D01*
X140428Y721966D01*
X140430Y721972D01*
X140433Y721977D01*
X140467Y722088D01*
X140504Y722200D01*
X140504Y722207D01*
X140506Y722212D01*
X140503Y722329D01*
X140501Y722446D01*
X140499Y722453D01*
X140499Y722458D01*
X140493Y722476D01*
X140455Y722607D01*
X139179Y725686D01*
X139179Y729514D01*
X140644Y733050D01*
X143350Y735756D01*
X146886Y737221D01*
X150714Y737221D01*
X154250Y735756D01*
X156956Y733050D01*
X158421Y729514D01*
X158421Y725686D01*
X156956Y722150D01*
X154250Y719444D01*
X150714Y717979D01*
X146886Y717979D01*
X143807Y719255D01*
X143694Y719281D01*
X143580Y719310D01*
X143574Y719309D01*
X143568Y719311D01*
X143451Y719300D01*
X143335Y719291D01*
X143329Y719288D01*
X143323Y719288D01*
X143215Y719240D01*
X143109Y719194D01*
X143103Y719190D01*
X143098Y719188D01*
X143084Y719175D01*
X142978Y719090D01*
X130324Y706436D01*
X128987Y705099D01*
X28103Y705099D01*
X28013Y705085D01*
X27922Y705077D01*
X27892Y705065D01*
X27860Y705060D01*
X27779Y705017D01*
X27695Y704981D01*
X27663Y704955D01*
X27643Y704944D01*
X27620Y704921D01*
X27564Y704876D01*
X18124Y695436D01*
X18071Y695362D01*
X18011Y695292D01*
X17999Y695262D01*
X17980Y695236D01*
X17953Y695149D01*
X17919Y695064D01*
X17915Y695023D01*
X17908Y695001D01*
X17909Y694969D01*
X17901Y694897D01*
X17901Y238103D01*
X17915Y238013D01*
X17923Y237922D01*
X17935Y237892D01*
X17940Y237860D01*
X17983Y237779D01*
X18019Y237695D01*
X18045Y237663D01*
X18056Y237643D01*
X18079Y237620D01*
X18124Y237564D01*
X23564Y232124D01*
X23638Y232071D01*
X23708Y232011D01*
X23738Y231999D01*
X23764Y231980D01*
X23851Y231953D01*
X23936Y231919D01*
X23977Y231915D01*
X23999Y231908D01*
X24031Y231909D01*
X24103Y231901D01*
X129787Y231901D01*
X151702Y209986D01*
X151796Y209919D01*
X151891Y209848D01*
X151897Y209846D01*
X151902Y209843D01*
X152012Y209809D01*
X152124Y209772D01*
X152131Y209772D01*
X152137Y209770D01*
X152253Y209773D01*
X152370Y209774D01*
X152378Y209777D01*
X152383Y209777D01*
X152400Y209783D01*
X152531Y209821D01*
X153742Y210323D01*
X156258Y210323D01*
X158582Y209360D01*
X160360Y207582D01*
X161323Y205258D01*
X161323Y202742D01*
X160360Y200418D01*
X158582Y198640D01*
X156258Y197677D01*
X153742Y197677D01*
G37*
%LPD*%
%LPC*%
G36*
X139042Y491677D02*
X139042Y491677D01*
X136718Y492640D01*
X134940Y494418D01*
X133977Y496742D01*
X133977Y499258D01*
X134940Y501582D01*
X136718Y503360D01*
X139042Y504323D01*
X141558Y504323D01*
X142769Y503821D01*
X142882Y503794D01*
X142996Y503766D01*
X143002Y503766D01*
X143008Y503765D01*
X143124Y503776D01*
X143241Y503785D01*
X143247Y503787D01*
X143253Y503788D01*
X143361Y503836D01*
X143467Y503881D01*
X143473Y503886D01*
X143478Y503888D01*
X143492Y503901D01*
X143598Y503986D01*
X150176Y510564D01*
X151513Y511901D01*
X243797Y511901D01*
X243887Y511915D01*
X243978Y511923D01*
X244008Y511935D01*
X244040Y511940D01*
X244121Y511983D01*
X244205Y512019D01*
X244237Y512045D01*
X244257Y512056D01*
X244280Y512079D01*
X244336Y512124D01*
X347876Y615664D01*
X347929Y615738D01*
X347989Y615808D01*
X348001Y615838D01*
X348020Y615864D01*
X348047Y615951D01*
X348081Y616036D01*
X348085Y616077D01*
X348092Y616099D01*
X348091Y616131D01*
X348099Y616203D01*
X348099Y648897D01*
X348085Y648987D01*
X348077Y649078D01*
X348065Y649108D01*
X348060Y649140D01*
X348017Y649221D01*
X347981Y649305D01*
X347955Y649337D01*
X347944Y649357D01*
X347921Y649380D01*
X347876Y649436D01*
X322636Y674676D01*
X322562Y674729D01*
X322492Y674789D01*
X322462Y674801D01*
X322436Y674820D01*
X322349Y674847D01*
X322264Y674881D01*
X322223Y674885D01*
X322201Y674892D01*
X322169Y674891D01*
X322097Y674899D01*
X311335Y674899D01*
X311220Y674880D01*
X311104Y674863D01*
X311098Y674861D01*
X311092Y674860D01*
X310989Y674805D01*
X310885Y674752D01*
X310880Y674747D01*
X310875Y674744D01*
X310795Y674660D01*
X310712Y674576D01*
X310709Y674570D01*
X310705Y674566D01*
X310697Y674549D01*
X310631Y674429D01*
X309356Y671350D01*
X306650Y668644D01*
X303114Y667179D01*
X299286Y667179D01*
X295750Y668644D01*
X293044Y671350D01*
X291579Y674886D01*
X291579Y678714D01*
X293044Y682250D01*
X295750Y684956D01*
X299286Y686421D01*
X303114Y686421D01*
X306650Y684956D01*
X309356Y682250D01*
X310631Y679171D01*
X310693Y679071D01*
X310753Y678971D01*
X310758Y678967D01*
X310761Y678962D01*
X310851Y678887D01*
X310940Y678811D01*
X310946Y678809D01*
X310951Y678805D01*
X311059Y678763D01*
X311168Y678719D01*
X311176Y678718D01*
X311180Y678717D01*
X311198Y678716D01*
X311335Y678701D01*
X323987Y678701D01*
X351901Y650787D01*
X351901Y614313D01*
X245687Y508099D01*
X153403Y508099D01*
X153313Y508085D01*
X153222Y508077D01*
X153192Y508065D01*
X153160Y508060D01*
X153079Y508017D01*
X152995Y507981D01*
X152963Y507955D01*
X152943Y507944D01*
X152920Y507921D01*
X152864Y507876D01*
X146286Y501298D01*
X146218Y501203D01*
X146148Y501109D01*
X146146Y501104D01*
X146143Y501098D01*
X146108Y500987D01*
X146072Y500876D01*
X146072Y500869D01*
X146070Y500863D01*
X146073Y500747D01*
X146074Y500630D01*
X146077Y500622D01*
X146077Y500617D01*
X146083Y500600D01*
X146121Y500469D01*
X146623Y499258D01*
X146623Y496742D01*
X145660Y494418D01*
X143882Y492640D01*
X141558Y491677D01*
X139042Y491677D01*
G37*
%LPD*%
%LPC*%
G36*
X199742Y539593D02*
X199742Y539593D01*
X197418Y540556D01*
X195640Y542334D01*
X194677Y544658D01*
X194677Y547174D01*
X195640Y549498D01*
X197418Y551276D01*
X199742Y552239D01*
X202258Y552239D01*
X204582Y551276D01*
X206360Y549498D01*
X206862Y548287D01*
X206924Y548187D01*
X206983Y548087D01*
X206988Y548083D01*
X206991Y548078D01*
X207082Y548003D01*
X207170Y547927D01*
X207176Y547925D01*
X207181Y547921D01*
X207289Y547879D01*
X207398Y547835D01*
X207406Y547834D01*
X207410Y547833D01*
X207429Y547832D01*
X207565Y547817D01*
X252876Y547817D01*
X252946Y547828D01*
X253018Y547830D01*
X253067Y547848D01*
X253119Y547856D01*
X253182Y547890D01*
X253249Y547915D01*
X253290Y547947D01*
X253336Y547972D01*
X253385Y548024D01*
X253441Y548068D01*
X253469Y548112D01*
X253505Y548150D01*
X253535Y548215D01*
X253574Y548275D01*
X253587Y548326D01*
X253609Y548373D01*
X253617Y548444D01*
X253634Y548514D01*
X253630Y548566D01*
X253636Y548617D01*
X253621Y548688D01*
X253615Y548759D01*
X253595Y548807D01*
X253584Y548858D01*
X253547Y548919D01*
X253519Y548985D01*
X253474Y549041D01*
X253458Y549069D01*
X253440Y549084D01*
X253414Y549116D01*
X251640Y550890D01*
X250677Y553214D01*
X250677Y555730D01*
X251640Y558054D01*
X253418Y559832D01*
X255742Y560795D01*
X258258Y560795D01*
X260582Y559832D01*
X262360Y558054D01*
X263323Y555730D01*
X263323Y553214D01*
X262360Y550890D01*
X260586Y549116D01*
X260544Y549058D01*
X260495Y549006D01*
X260473Y548959D01*
X260442Y548917D01*
X260421Y548848D01*
X260391Y548783D01*
X260385Y548731D01*
X260370Y548681D01*
X260372Y548610D01*
X260364Y548539D01*
X260375Y548488D01*
X260376Y548436D01*
X260401Y548368D01*
X260416Y548298D01*
X260443Y548253D01*
X260461Y548205D01*
X260506Y548149D01*
X260542Y548087D01*
X260582Y548053D01*
X260615Y548013D01*
X260675Y547974D01*
X260729Y547927D01*
X260778Y547908D01*
X260821Y547880D01*
X260891Y547862D01*
X260958Y547835D01*
X261029Y547827D01*
X261060Y547819D01*
X261083Y547821D01*
X261124Y547817D01*
X268813Y547817D01*
X268903Y547831D01*
X268994Y547839D01*
X269024Y547851D01*
X269056Y547856D01*
X269137Y547899D01*
X269221Y547935D01*
X269253Y547961D01*
X269273Y547972D01*
X269296Y547995D01*
X269352Y548040D01*
X312676Y591364D01*
X312729Y591438D01*
X312789Y591508D01*
X312801Y591538D01*
X312820Y591564D01*
X312847Y591651D01*
X312881Y591736D01*
X312885Y591777D01*
X312892Y591799D01*
X312891Y591831D01*
X312899Y591903D01*
X312899Y638897D01*
X312885Y638987D01*
X312877Y639078D01*
X312865Y639108D01*
X312860Y639140D01*
X312817Y639221D01*
X312781Y639305D01*
X312755Y639337D01*
X312744Y639357D01*
X312721Y639380D01*
X312676Y639436D01*
X308297Y643815D01*
X308281Y643826D01*
X308269Y643842D01*
X308181Y643898D01*
X308097Y643958D01*
X308078Y643964D01*
X308062Y643975D01*
X307961Y644000D01*
X307862Y644031D01*
X307842Y644030D01*
X307823Y644035D01*
X307720Y644027D01*
X307616Y644024D01*
X307598Y644017D01*
X307578Y644016D01*
X307483Y643976D01*
X307385Y643940D01*
X307370Y643927D01*
X307352Y643920D01*
X307221Y643815D01*
X306650Y643244D01*
X303114Y641779D01*
X299286Y641779D01*
X295750Y643244D01*
X293044Y645950D01*
X291579Y649486D01*
X291579Y653314D01*
X293044Y656850D01*
X295750Y659556D01*
X299286Y661021D01*
X303114Y661021D01*
X306650Y659556D01*
X309356Y656850D01*
X310821Y653314D01*
X310821Y649486D01*
X310190Y647963D01*
X310163Y647849D01*
X310134Y647736D01*
X310135Y647730D01*
X310134Y647723D01*
X310145Y647607D01*
X310154Y647491D01*
X310156Y647485D01*
X310157Y647479D01*
X310204Y647371D01*
X310250Y647264D01*
X310255Y647258D01*
X310257Y647254D01*
X310269Y647240D01*
X310355Y647133D01*
X316701Y640787D01*
X316701Y590013D01*
X270703Y544015D01*
X207565Y544015D01*
X207450Y543996D01*
X207334Y543979D01*
X207328Y543977D01*
X207322Y543976D01*
X207220Y543921D01*
X207115Y543868D01*
X207110Y543863D01*
X207105Y543860D01*
X207025Y543776D01*
X206943Y543692D01*
X206939Y543686D01*
X206936Y543682D01*
X206928Y543665D01*
X206862Y543545D01*
X206360Y542334D01*
X204582Y540556D01*
X202258Y539593D01*
X199742Y539593D01*
G37*
%LPD*%
%LPC*%
G36*
X26511Y12459D02*
X26511Y12459D01*
X20064Y15130D01*
X15130Y20064D01*
X12459Y26511D01*
X12459Y33489D01*
X15130Y39936D01*
X20064Y44870D01*
X26511Y47541D01*
X33489Y47541D01*
X39936Y44870D01*
X44870Y39936D01*
X47541Y33489D01*
X47541Y26511D01*
X44870Y20064D01*
X39936Y15130D01*
X33489Y12459D01*
X26511Y12459D01*
G37*
%LPD*%
%LPC*%
G36*
X416511Y932459D02*
X416511Y932459D01*
X410064Y935130D01*
X405130Y940064D01*
X402459Y946511D01*
X402459Y953489D01*
X405130Y959936D01*
X410064Y964870D01*
X416511Y967541D01*
X423489Y967541D01*
X429936Y964870D01*
X434870Y959936D01*
X437541Y953489D01*
X437541Y946511D01*
X434870Y940064D01*
X429936Y935130D01*
X423489Y932459D01*
X416511Y932459D01*
G37*
%LPD*%
%LPC*%
G36*
X416511Y12459D02*
X416511Y12459D01*
X410064Y15130D01*
X405130Y20064D01*
X402459Y26511D01*
X402459Y33489D01*
X405130Y39936D01*
X410064Y44870D01*
X416511Y47541D01*
X423489Y47541D01*
X429936Y44870D01*
X434870Y39936D01*
X437541Y33489D01*
X437541Y26511D01*
X434870Y20064D01*
X429936Y15130D01*
X423489Y12459D01*
X416511Y12459D01*
G37*
%LPD*%
%LPC*%
G36*
X26511Y932459D02*
X26511Y932459D01*
X20064Y935130D01*
X15130Y940064D01*
X12459Y946511D01*
X12459Y953489D01*
X15130Y959936D01*
X20064Y964870D01*
X26511Y967541D01*
X33489Y967541D01*
X39936Y964870D01*
X44870Y959936D01*
X47541Y953489D01*
X47541Y946511D01*
X44870Y940064D01*
X39936Y935130D01*
X33489Y932459D01*
X26511Y932459D01*
G37*
%LPD*%
%LPC*%
G36*
X321742Y686677D02*
X321742Y686677D01*
X319418Y687640D01*
X317640Y689418D01*
X316677Y691742D01*
X316677Y694258D01*
X317640Y696582D01*
X319418Y698360D01*
X321742Y699323D01*
X324258Y699323D01*
X325219Y698925D01*
X325332Y698898D01*
X325446Y698869D01*
X325452Y698870D01*
X325458Y698869D01*
X325574Y698880D01*
X325691Y698889D01*
X325697Y698891D01*
X325703Y698892D01*
X325810Y698939D01*
X325917Y698985D01*
X325923Y698990D01*
X325928Y698992D01*
X325941Y699004D01*
X326048Y699090D01*
X332226Y705268D01*
X332279Y705342D01*
X332339Y705411D01*
X332351Y705441D01*
X332370Y705468D01*
X332397Y705555D01*
X332431Y705639D01*
X332435Y705680D01*
X332442Y705703D01*
X332441Y705735D01*
X332449Y705806D01*
X332449Y815894D01*
X332435Y815984D01*
X332427Y816075D01*
X332415Y816105D01*
X332410Y816137D01*
X332367Y816217D01*
X332331Y816301D01*
X332305Y816333D01*
X332294Y816354D01*
X332271Y816376D01*
X332226Y816432D01*
X323836Y824822D01*
X323741Y824891D01*
X323647Y824960D01*
X323641Y824962D01*
X323636Y824966D01*
X323525Y825000D01*
X323413Y825037D01*
X323407Y825036D01*
X323401Y825038D01*
X323284Y825035D01*
X323168Y825034D01*
X323160Y825032D01*
X323155Y825032D01*
X323138Y825026D01*
X323006Y824987D01*
X322258Y824677D01*
X319742Y824677D01*
X317418Y825640D01*
X315640Y827418D01*
X314677Y829742D01*
X314677Y832258D01*
X315640Y834582D01*
X317418Y836360D01*
X319742Y837323D01*
X322258Y837323D01*
X324582Y836360D01*
X326360Y834582D01*
X327323Y832258D01*
X327323Y829742D01*
X326837Y828569D01*
X326810Y828456D01*
X326782Y828342D01*
X326782Y828336D01*
X326781Y828330D01*
X326792Y828213D01*
X326801Y828097D01*
X326803Y828091D01*
X326804Y828085D01*
X326852Y827977D01*
X326897Y827871D01*
X326902Y827865D01*
X326904Y827860D01*
X326916Y827846D01*
X327002Y827740D01*
X336751Y817991D01*
X336751Y703709D01*
X335268Y702226D01*
X329090Y696048D01*
X329021Y695953D01*
X328952Y695859D01*
X328950Y695854D01*
X328946Y695848D01*
X328912Y695737D01*
X328876Y695626D01*
X328876Y695619D01*
X328874Y695613D01*
X328877Y695497D01*
X328878Y695380D01*
X328880Y695372D01*
X328880Y695367D01*
X328887Y695350D01*
X328925Y695219D01*
X329323Y694258D01*
X329323Y691742D01*
X328360Y689418D01*
X326582Y687640D01*
X324258Y686677D01*
X321742Y686677D01*
G37*
%LPD*%
%LPC*%
G36*
X146886Y895779D02*
X146886Y895779D01*
X143350Y897244D01*
X140644Y899950D01*
X139179Y903486D01*
X139179Y907314D01*
X140644Y910850D01*
X143350Y913556D01*
X146886Y915021D01*
X150714Y915021D01*
X154250Y913556D01*
X156956Y910850D01*
X158421Y907314D01*
X158421Y903486D01*
X156956Y899950D01*
X154250Y897244D01*
X150714Y895779D01*
X146886Y895779D01*
G37*
%LPD*%
%LPC*%
G36*
X299286Y895779D02*
X299286Y895779D01*
X295750Y897244D01*
X293044Y899950D01*
X291579Y903486D01*
X291579Y907314D01*
X293044Y910850D01*
X295750Y913556D01*
X299286Y915021D01*
X303114Y915021D01*
X306650Y913556D01*
X309356Y910850D01*
X310821Y907314D01*
X310821Y903486D01*
X309356Y899950D01*
X306650Y897244D01*
X303114Y895779D01*
X299286Y895779D01*
G37*
%LPD*%
%LPC*%
G36*
X299286Y921179D02*
X299286Y921179D01*
X295750Y922644D01*
X293044Y925350D01*
X291579Y928886D01*
X291579Y932714D01*
X293044Y936250D01*
X295750Y938956D01*
X299286Y940421D01*
X303114Y940421D01*
X306650Y938956D01*
X309356Y936250D01*
X310821Y932714D01*
X310821Y928886D01*
X309356Y925350D01*
X306650Y922644D01*
X303114Y921179D01*
X299286Y921179D01*
G37*
%LPD*%
%LPC*%
G36*
X299286Y870379D02*
X299286Y870379D01*
X295750Y871844D01*
X293044Y874550D01*
X291579Y878086D01*
X291579Y881914D01*
X293044Y885450D01*
X295750Y888156D01*
X299286Y889621D01*
X303114Y889621D01*
X306650Y888156D01*
X309356Y885450D01*
X310821Y881914D01*
X310821Y878086D01*
X309356Y874550D01*
X306650Y871844D01*
X303114Y870379D01*
X299286Y870379D01*
G37*
%LPD*%
%LPC*%
G36*
X146886Y870379D02*
X146886Y870379D01*
X143350Y871844D01*
X140644Y874550D01*
X139179Y878086D01*
X139179Y881914D01*
X140644Y885450D01*
X143350Y888156D01*
X146886Y889621D01*
X150714Y889621D01*
X154250Y888156D01*
X156956Y885450D01*
X158421Y881914D01*
X158421Y878086D01*
X156956Y874550D01*
X154250Y871844D01*
X150714Y870379D01*
X146886Y870379D01*
G37*
%LPD*%
%LPC*%
G36*
X248486Y616379D02*
X248486Y616379D01*
X244950Y617844D01*
X242244Y620550D01*
X240779Y624086D01*
X240779Y627914D01*
X242244Y631450D01*
X244950Y634156D01*
X248486Y635621D01*
X252314Y635621D01*
X255850Y634156D01*
X258556Y631450D01*
X260021Y627914D01*
X260021Y624086D01*
X258556Y620550D01*
X255850Y617844D01*
X252314Y616379D01*
X248486Y616379D01*
G37*
%LPD*%
%LPC*%
G36*
X299286Y616379D02*
X299286Y616379D01*
X295750Y617844D01*
X293044Y620550D01*
X291579Y624086D01*
X291579Y627914D01*
X293044Y631450D01*
X295750Y634156D01*
X299286Y635621D01*
X303114Y635621D01*
X306650Y634156D01*
X309356Y631450D01*
X310821Y627914D01*
X310821Y624086D01*
X309356Y620550D01*
X306650Y617844D01*
X303114Y616379D01*
X299286Y616379D01*
G37*
%LPD*%
%LPC*%
G36*
X146886Y844979D02*
X146886Y844979D01*
X143350Y846444D01*
X140644Y849150D01*
X139179Y852686D01*
X139179Y856514D01*
X140644Y860050D01*
X143350Y862756D01*
X146886Y864221D01*
X150714Y864221D01*
X154250Y862756D01*
X156956Y860050D01*
X158421Y856514D01*
X158421Y852686D01*
X156956Y849150D01*
X154250Y846444D01*
X150714Y844979D01*
X146886Y844979D01*
G37*
%LPD*%
%LPC*%
G36*
X146886Y819579D02*
X146886Y819579D01*
X143350Y821044D01*
X140644Y823750D01*
X139179Y827286D01*
X139179Y831114D01*
X140644Y834650D01*
X143350Y837356D01*
X146886Y838821D01*
X150714Y838821D01*
X154250Y837356D01*
X156956Y834650D01*
X158421Y831114D01*
X158421Y827286D01*
X156956Y823750D01*
X154250Y821044D01*
X150714Y819579D01*
X146886Y819579D01*
G37*
%LPD*%
%LPC*%
G36*
X299286Y819579D02*
X299286Y819579D01*
X295750Y821044D01*
X293044Y823750D01*
X291579Y827286D01*
X291579Y831114D01*
X293044Y834650D01*
X295750Y837356D01*
X299286Y838821D01*
X303114Y838821D01*
X306650Y837356D01*
X309356Y834650D01*
X310821Y831114D01*
X310821Y827286D01*
X309356Y823750D01*
X306650Y821044D01*
X303114Y819579D01*
X299286Y819579D01*
G37*
%LPD*%
%LPC*%
G36*
X273886Y616379D02*
X273886Y616379D01*
X270350Y617844D01*
X267644Y620550D01*
X266179Y624086D01*
X266179Y627914D01*
X267644Y631450D01*
X270350Y634156D01*
X273886Y635621D01*
X277714Y635621D01*
X281250Y634156D01*
X283956Y631450D01*
X285421Y627914D01*
X285421Y624086D01*
X283956Y620550D01*
X281250Y617844D01*
X277714Y616379D01*
X273886Y616379D01*
G37*
%LPD*%
%LPC*%
G36*
X146886Y794179D02*
X146886Y794179D01*
X143350Y795644D01*
X140644Y798350D01*
X139179Y801886D01*
X139179Y805714D01*
X140644Y809250D01*
X143350Y811956D01*
X146886Y813421D01*
X150714Y813421D01*
X154250Y811956D01*
X156956Y809250D01*
X158421Y805714D01*
X158421Y801886D01*
X156956Y798350D01*
X154250Y795644D01*
X150714Y794179D01*
X146886Y794179D01*
G37*
%LPD*%
%LPC*%
G36*
X299286Y794179D02*
X299286Y794179D01*
X295750Y795644D01*
X293044Y798350D01*
X291579Y801886D01*
X291579Y805714D01*
X293044Y809250D01*
X295750Y811956D01*
X299286Y813421D01*
X303114Y813421D01*
X306650Y811956D01*
X309356Y809250D01*
X310821Y805714D01*
X310821Y801886D01*
X309356Y798350D01*
X306650Y795644D01*
X303114Y794179D01*
X299286Y794179D01*
G37*
%LPD*%
%LPC*%
G36*
X146886Y616379D02*
X146886Y616379D01*
X143350Y617844D01*
X140644Y620550D01*
X139179Y624086D01*
X139179Y627914D01*
X140644Y631450D01*
X143350Y634156D01*
X146886Y635621D01*
X150714Y635621D01*
X154250Y634156D01*
X156956Y631450D01*
X158421Y627914D01*
X158421Y624086D01*
X156956Y620550D01*
X154250Y617844D01*
X150714Y616379D01*
X146886Y616379D01*
G37*
%LPD*%
%LPC*%
G36*
X299286Y946579D02*
X299286Y946579D01*
X295750Y948044D01*
X293044Y950750D01*
X291579Y954286D01*
X291579Y958114D01*
X293044Y961650D01*
X295750Y964356D01*
X299286Y965821D01*
X303114Y965821D01*
X306650Y964356D01*
X309356Y961650D01*
X310821Y958114D01*
X310821Y954286D01*
X309356Y950750D01*
X306650Y948044D01*
X303114Y946579D01*
X299286Y946579D01*
G37*
%LPD*%
%LPC*%
G36*
X172286Y616379D02*
X172286Y616379D01*
X168750Y617844D01*
X166044Y620550D01*
X164579Y624086D01*
X164579Y627914D01*
X166044Y631450D01*
X168750Y634156D01*
X172286Y635621D01*
X176114Y635621D01*
X179650Y634156D01*
X182356Y631450D01*
X183821Y627914D01*
X183821Y624086D01*
X182356Y620550D01*
X179650Y617844D01*
X176114Y616379D01*
X172286Y616379D01*
G37*
%LPD*%
%LPC*%
G36*
X197686Y616379D02*
X197686Y616379D01*
X194150Y617844D01*
X191444Y620550D01*
X189979Y624086D01*
X189979Y627914D01*
X191444Y631450D01*
X194150Y634156D01*
X197686Y635621D01*
X201514Y635621D01*
X205050Y634156D01*
X207756Y631450D01*
X209221Y627914D01*
X209221Y624086D01*
X207756Y620550D01*
X205050Y617844D01*
X201514Y616379D01*
X197686Y616379D01*
G37*
%LPD*%
%LPC*%
G36*
X299286Y717979D02*
X299286Y717979D01*
X295750Y719444D01*
X293044Y722150D01*
X291579Y725686D01*
X291579Y729514D01*
X293044Y733050D01*
X295750Y735756D01*
X299286Y737221D01*
X303114Y737221D01*
X306650Y735756D01*
X309356Y733050D01*
X310821Y729514D01*
X310821Y725686D01*
X309356Y722150D01*
X306650Y719444D01*
X303114Y717979D01*
X299286Y717979D01*
G37*
%LPD*%
%LPC*%
G36*
X223086Y616379D02*
X223086Y616379D01*
X219550Y617844D01*
X216844Y620550D01*
X215379Y624086D01*
X215379Y627914D01*
X216844Y631450D01*
X219550Y634156D01*
X223086Y635621D01*
X226914Y635621D01*
X230450Y634156D01*
X233156Y631450D01*
X234621Y627914D01*
X234621Y624086D01*
X233156Y620550D01*
X230450Y617844D01*
X226914Y616379D01*
X223086Y616379D01*
G37*
%LPD*%
%LPC*%
G36*
X146886Y692579D02*
X146886Y692579D01*
X143350Y694044D01*
X140644Y696750D01*
X139179Y700286D01*
X139179Y704114D01*
X140644Y707650D01*
X143350Y710356D01*
X146886Y711821D01*
X150714Y711821D01*
X154250Y710356D01*
X156956Y707650D01*
X158421Y704114D01*
X158421Y700286D01*
X156956Y696750D01*
X154250Y694044D01*
X150714Y692579D01*
X146886Y692579D01*
G37*
%LPD*%
%LPC*%
G36*
X146886Y921179D02*
X146886Y921179D01*
X143350Y922644D01*
X140644Y925350D01*
X139179Y928886D01*
X139179Y932714D01*
X140644Y936250D01*
X143350Y938956D01*
X146886Y940421D01*
X150714Y940421D01*
X154250Y938956D01*
X156956Y936250D01*
X158421Y932714D01*
X158421Y928886D01*
X156956Y925350D01*
X154250Y922644D01*
X150714Y921179D01*
X146886Y921179D01*
G37*
%LPD*%
%LPC*%
G36*
X178742Y514677D02*
X178742Y514677D01*
X176418Y515640D01*
X174640Y517418D01*
X173677Y519742D01*
X173677Y522258D01*
X174640Y524582D01*
X176020Y525962D01*
X176032Y525978D01*
X176047Y525990D01*
X176103Y526078D01*
X176164Y526161D01*
X176169Y526180D01*
X176180Y526197D01*
X176205Y526298D01*
X176236Y526397D01*
X176235Y526416D01*
X176240Y526436D01*
X176232Y526539D01*
X176230Y526642D01*
X176223Y526661D01*
X176221Y526681D01*
X176181Y526776D01*
X176145Y526873D01*
X176133Y526889D01*
X176125Y526907D01*
X176020Y527038D01*
X174640Y528418D01*
X173677Y530742D01*
X173677Y533258D01*
X174640Y535582D01*
X176418Y537360D01*
X178742Y538323D01*
X181258Y538323D01*
X183582Y537360D01*
X185360Y535582D01*
X186323Y533258D01*
X186323Y530742D01*
X185360Y528418D01*
X183980Y527038D01*
X183968Y527022D01*
X183953Y527010D01*
X183897Y526922D01*
X183836Y526839D01*
X183831Y526820D01*
X183820Y526803D01*
X183794Y526702D01*
X183764Y526603D01*
X183765Y526584D01*
X183760Y526564D01*
X183768Y526461D01*
X183770Y526358D01*
X183777Y526339D01*
X183779Y526319D01*
X183819Y526224D01*
X183855Y526127D01*
X183867Y526111D01*
X183875Y526093D01*
X183980Y525962D01*
X185360Y524582D01*
X186323Y522258D01*
X186323Y519742D01*
X185360Y517418D01*
X183582Y515640D01*
X181258Y514677D01*
X178742Y514677D01*
G37*
%LPD*%
%LPC*%
G36*
X39450Y472209D02*
X39450Y472209D01*
X36770Y473319D01*
X34719Y475370D01*
X33609Y478050D01*
X33609Y480950D01*
X34719Y483630D01*
X36770Y485681D01*
X39450Y486791D01*
X42350Y486791D01*
X45030Y485681D01*
X47081Y483630D01*
X48191Y480950D01*
X48191Y478050D01*
X47081Y475370D01*
X45030Y473319D01*
X42350Y472209D01*
X39450Y472209D01*
G37*
%LPD*%
%LPC*%
G36*
X39450Y540209D02*
X39450Y540209D01*
X36770Y541319D01*
X34719Y543370D01*
X33609Y546050D01*
X33609Y548950D01*
X34719Y551630D01*
X36770Y553681D01*
X39450Y554791D01*
X42350Y554791D01*
X45030Y553681D01*
X47081Y551630D01*
X48191Y548950D01*
X48191Y546050D01*
X47081Y543370D01*
X45030Y541319D01*
X42350Y540209D01*
X39450Y540209D01*
G37*
%LPD*%
%LPC*%
G36*
X47742Y752677D02*
X47742Y752677D01*
X45418Y753640D01*
X43640Y755418D01*
X42677Y757742D01*
X42677Y760258D01*
X43640Y762582D01*
X45418Y764360D01*
X47742Y765323D01*
X50258Y765323D01*
X52582Y764360D01*
X54360Y762582D01*
X55323Y760258D01*
X55323Y757742D01*
X54360Y755418D01*
X52582Y753640D01*
X50258Y752677D01*
X47742Y752677D01*
G37*
%LPD*%
%LPC*%
G36*
X80742Y773677D02*
X80742Y773677D01*
X78418Y774640D01*
X76640Y776418D01*
X75677Y778742D01*
X75677Y781258D01*
X76640Y783582D01*
X78418Y785360D01*
X80742Y786323D01*
X83258Y786323D01*
X85582Y785360D01*
X87360Y783582D01*
X88323Y781258D01*
X88323Y778742D01*
X87360Y776418D01*
X85582Y774640D01*
X83258Y773677D01*
X80742Y773677D01*
G37*
%LPD*%
%LPC*%
G36*
X423742Y143677D02*
X423742Y143677D01*
X421418Y144640D01*
X419640Y146418D01*
X418677Y148742D01*
X418677Y151258D01*
X419640Y153582D01*
X421418Y155360D01*
X423742Y156323D01*
X426258Y156323D01*
X428582Y155360D01*
X430360Y153582D01*
X431323Y151258D01*
X431323Y148742D01*
X430360Y146418D01*
X428582Y144640D01*
X426258Y143677D01*
X423742Y143677D01*
G37*
%LPD*%
%LPC*%
G36*
X46742Y781677D02*
X46742Y781677D01*
X44418Y782640D01*
X42640Y784418D01*
X41677Y786742D01*
X41677Y789258D01*
X42640Y791582D01*
X44418Y793360D01*
X46742Y794323D01*
X49258Y794323D01*
X51582Y793360D01*
X53360Y791582D01*
X54323Y789258D01*
X54323Y786742D01*
X53360Y784418D01*
X51582Y782640D01*
X49258Y781677D01*
X46742Y781677D01*
G37*
%LPD*%
%LPC*%
G36*
X62742Y905677D02*
X62742Y905677D01*
X60418Y906640D01*
X58640Y908418D01*
X57677Y910742D01*
X57677Y913258D01*
X58640Y915582D01*
X60418Y917360D01*
X62742Y918323D01*
X65258Y918323D01*
X67582Y917360D01*
X69360Y915582D01*
X70323Y913258D01*
X70323Y910742D01*
X69360Y908418D01*
X67582Y906640D01*
X65258Y905677D01*
X62742Y905677D01*
G37*
%LPD*%
%LPC*%
G36*
X108742Y858677D02*
X108742Y858677D01*
X106418Y859640D01*
X104640Y861418D01*
X103677Y863742D01*
X103677Y866258D01*
X104640Y868582D01*
X106418Y870360D01*
X108742Y871323D01*
X111258Y871323D01*
X113582Y870360D01*
X115360Y868582D01*
X116323Y866258D01*
X116323Y863742D01*
X115360Y861418D01*
X113582Y859640D01*
X111258Y858677D01*
X108742Y858677D01*
G37*
%LPD*%
%LPC*%
G36*
X108742Y873677D02*
X108742Y873677D01*
X106418Y874640D01*
X104640Y876418D01*
X103677Y878742D01*
X103677Y881258D01*
X104640Y883582D01*
X106418Y885360D01*
X108742Y886323D01*
X111258Y886323D01*
X113582Y885360D01*
X115360Y883582D01*
X116323Y881258D01*
X116323Y878742D01*
X115360Y876418D01*
X113582Y874640D01*
X111258Y873677D01*
X108742Y873677D01*
G37*
%LPD*%
%LPC*%
G36*
X190742Y554677D02*
X190742Y554677D01*
X188418Y555640D01*
X186640Y557418D01*
X185677Y559742D01*
X185677Y562258D01*
X186640Y564582D01*
X188418Y566360D01*
X190742Y567323D01*
X193258Y567323D01*
X195582Y566360D01*
X197360Y564582D01*
X198323Y562258D01*
X198323Y559742D01*
X197360Y557418D01*
X195582Y555640D01*
X193258Y554677D01*
X190742Y554677D01*
G37*
%LPD*%
%LPC*%
G36*
X249742Y47477D02*
X249742Y47477D01*
X247418Y48440D01*
X245640Y50218D01*
X244677Y52542D01*
X244677Y55058D01*
X245640Y57382D01*
X247418Y59160D01*
X249742Y60123D01*
X252258Y60123D01*
X254582Y59160D01*
X256360Y57382D01*
X257323Y55058D01*
X257323Y52542D01*
X256360Y50218D01*
X254582Y48440D01*
X252258Y47477D01*
X249742Y47477D01*
G37*
%LPD*%
%LPC*%
G36*
X126742Y668677D02*
X126742Y668677D01*
X124418Y669640D01*
X122640Y671418D01*
X121677Y673742D01*
X121677Y676258D01*
X122640Y678582D01*
X124418Y680360D01*
X126742Y681323D01*
X129258Y681323D01*
X131582Y680360D01*
X133360Y678582D01*
X134323Y676258D01*
X134323Y673742D01*
X133360Y671418D01*
X131582Y669640D01*
X129258Y668677D01*
X126742Y668677D01*
G37*
%LPD*%
%LPC*%
G36*
X108742Y398677D02*
X108742Y398677D01*
X106418Y399640D01*
X104640Y401418D01*
X103677Y403742D01*
X103677Y406258D01*
X104640Y408582D01*
X106418Y410360D01*
X108742Y411323D01*
X111258Y411323D01*
X113582Y410360D01*
X115360Y408582D01*
X116323Y406258D01*
X116323Y403742D01*
X115360Y401418D01*
X113582Y399640D01*
X111258Y398677D01*
X108742Y398677D01*
G37*
%LPD*%
%LPC*%
G36*
X134342Y438777D02*
X134342Y438777D01*
X132018Y439740D01*
X130240Y441518D01*
X129277Y443842D01*
X129277Y446358D01*
X130240Y448682D01*
X132018Y450460D01*
X134342Y451423D01*
X136858Y451423D01*
X139182Y450460D01*
X140960Y448682D01*
X141923Y446358D01*
X141923Y443842D01*
X140960Y441518D01*
X139182Y439740D01*
X136858Y438777D01*
X134342Y438777D01*
G37*
%LPD*%
%LPC*%
G36*
X321742Y437677D02*
X321742Y437677D01*
X319418Y438640D01*
X317640Y440418D01*
X316677Y442742D01*
X316677Y445258D01*
X317640Y447582D01*
X319418Y449360D01*
X321742Y450323D01*
X324258Y450323D01*
X326582Y449360D01*
X328360Y447582D01*
X329323Y445258D01*
X329323Y442742D01*
X328360Y440418D01*
X326582Y438640D01*
X324258Y437677D01*
X321742Y437677D01*
G37*
%LPD*%
%LPC*%
G36*
X207742Y419677D02*
X207742Y419677D01*
X205418Y420640D01*
X203640Y422418D01*
X202677Y424742D01*
X202677Y427258D01*
X203640Y429582D01*
X205418Y431360D01*
X207742Y432323D01*
X210258Y432323D01*
X212582Y431360D01*
X214360Y429582D01*
X215323Y427258D01*
X215323Y424742D01*
X214360Y422418D01*
X212582Y420640D01*
X210258Y419677D01*
X207742Y419677D01*
G37*
%LPD*%
%LPC*%
G36*
X58742Y398677D02*
X58742Y398677D01*
X56418Y399640D01*
X54640Y401418D01*
X53677Y403742D01*
X53677Y406258D01*
X54640Y408582D01*
X56418Y410360D01*
X58742Y411323D01*
X61258Y411323D01*
X63582Y410360D01*
X65360Y408582D01*
X66323Y406258D01*
X66323Y403742D01*
X65360Y401418D01*
X63582Y399640D01*
X61258Y398677D01*
X58742Y398677D01*
G37*
%LPD*%
%LPC*%
G36*
X208742Y398677D02*
X208742Y398677D01*
X206418Y399640D01*
X204640Y401418D01*
X203677Y403742D01*
X203677Y406258D01*
X204640Y408582D01*
X206418Y410360D01*
X208742Y411323D01*
X211258Y411323D01*
X213582Y410360D01*
X215360Y408582D01*
X216323Y406258D01*
X216323Y403742D01*
X215360Y401418D01*
X213582Y399640D01*
X211258Y398677D01*
X208742Y398677D01*
G37*
%LPD*%
%LPC*%
G36*
X313742Y198677D02*
X313742Y198677D01*
X311418Y199640D01*
X309640Y201418D01*
X308677Y203742D01*
X308677Y206258D01*
X309640Y208582D01*
X311418Y210360D01*
X313742Y211323D01*
X316258Y211323D01*
X318582Y210360D01*
X320360Y208582D01*
X321323Y206258D01*
X321323Y203742D01*
X320360Y201418D01*
X318582Y199640D01*
X316258Y198677D01*
X313742Y198677D01*
G37*
%LPD*%
%LPC*%
G36*
X158742Y398677D02*
X158742Y398677D01*
X156418Y399640D01*
X154640Y401418D01*
X153677Y403742D01*
X153677Y406258D01*
X154640Y408582D01*
X156418Y410360D01*
X158742Y411323D01*
X161258Y411323D01*
X163582Y410360D01*
X165360Y408582D01*
X166323Y406258D01*
X166323Y403742D01*
X165360Y401418D01*
X163582Y399640D01*
X161258Y398677D01*
X158742Y398677D01*
G37*
%LPD*%
%LPC*%
G36*
X333742Y198677D02*
X333742Y198677D01*
X331418Y199640D01*
X329640Y201418D01*
X328677Y203742D01*
X328677Y206258D01*
X329640Y208582D01*
X331418Y210360D01*
X333742Y211323D01*
X336258Y211323D01*
X338582Y210360D01*
X340360Y208582D01*
X341323Y206258D01*
X341323Y203742D01*
X340360Y201418D01*
X338582Y199640D01*
X336258Y198677D01*
X333742Y198677D01*
G37*
%LPD*%
%LPC*%
G36*
X403742Y143677D02*
X403742Y143677D01*
X401418Y144640D01*
X399640Y146418D01*
X398677Y148742D01*
X398677Y151258D01*
X399640Y153582D01*
X401418Y155360D01*
X403742Y156323D01*
X406258Y156323D01*
X408582Y155360D01*
X410360Y153582D01*
X411323Y151258D01*
X411323Y148742D01*
X410360Y146418D01*
X408582Y144640D01*
X406258Y143677D01*
X403742Y143677D01*
G37*
%LPD*%
%LPC*%
G36*
X223742Y153677D02*
X223742Y153677D01*
X221418Y154640D01*
X219640Y156418D01*
X218677Y158742D01*
X218677Y161258D01*
X219640Y163582D01*
X221418Y165360D01*
X223742Y166323D01*
X226258Y166323D01*
X228582Y165360D01*
X230360Y163582D01*
X231323Y161258D01*
X231323Y158742D01*
X230360Y156418D01*
X228582Y154640D01*
X226258Y153677D01*
X223742Y153677D01*
G37*
%LPD*%
%LPC*%
G36*
X93742Y206677D02*
X93742Y206677D01*
X91418Y207640D01*
X89640Y209418D01*
X88677Y211742D01*
X88677Y214258D01*
X89640Y216582D01*
X91418Y218360D01*
X93742Y219323D01*
X96258Y219323D01*
X98582Y218360D01*
X100360Y216582D01*
X101323Y214258D01*
X101323Y211742D01*
X100360Y209418D01*
X98582Y207640D01*
X96258Y206677D01*
X93742Y206677D01*
G37*
%LPD*%
%LPC*%
G36*
X73742Y206677D02*
X73742Y206677D01*
X71418Y207640D01*
X69640Y209418D01*
X68677Y211742D01*
X68677Y214258D01*
X69640Y216582D01*
X71418Y218360D01*
X73742Y219323D01*
X76258Y219323D01*
X78582Y218360D01*
X80360Y216582D01*
X81323Y214258D01*
X81323Y211742D01*
X80360Y209418D01*
X78582Y207640D01*
X76258Y206677D01*
X73742Y206677D01*
G37*
%LPD*%
%LPC*%
G36*
X148742Y313677D02*
X148742Y313677D01*
X146418Y314640D01*
X144640Y316418D01*
X143677Y318742D01*
X143677Y321258D01*
X144640Y323582D01*
X146418Y325360D01*
X148742Y326323D01*
X151258Y326323D01*
X153582Y325360D01*
X155360Y323582D01*
X156323Y321258D01*
X156323Y318742D01*
X155360Y316418D01*
X153582Y314640D01*
X151258Y313677D01*
X148742Y313677D01*
G37*
%LPD*%
%LPC*%
G36*
X198742Y313677D02*
X198742Y313677D01*
X196418Y314640D01*
X194640Y316418D01*
X193677Y318742D01*
X193677Y321258D01*
X194640Y323582D01*
X196418Y325360D01*
X198742Y326323D01*
X201258Y326323D01*
X203582Y325360D01*
X205360Y323582D01*
X206323Y321258D01*
X206323Y318742D01*
X205360Y316418D01*
X203582Y314640D01*
X201258Y313677D01*
X198742Y313677D01*
G37*
%LPD*%
%LPC*%
G36*
X98742Y313677D02*
X98742Y313677D01*
X96418Y314640D01*
X94640Y316418D01*
X93677Y318742D01*
X93677Y321258D01*
X94640Y323582D01*
X96418Y325360D01*
X98742Y326323D01*
X101258Y326323D01*
X103582Y325360D01*
X105360Y323582D01*
X106323Y321258D01*
X106323Y318742D01*
X105360Y316418D01*
X103582Y314640D01*
X101258Y313677D01*
X98742Y313677D01*
G37*
%LPD*%
%LPC*%
G36*
X293742Y306677D02*
X293742Y306677D01*
X291418Y307640D01*
X289640Y309418D01*
X288677Y311742D01*
X288677Y314258D01*
X289640Y316582D01*
X291418Y318360D01*
X293742Y319323D01*
X296258Y319323D01*
X298582Y318360D01*
X300360Y316582D01*
X301323Y314258D01*
X301323Y311742D01*
X300360Y309418D01*
X298582Y307640D01*
X296258Y306677D01*
X293742Y306677D01*
G37*
%LPD*%
%LPC*%
G36*
X133742Y298677D02*
X133742Y298677D01*
X131418Y299640D01*
X129640Y301418D01*
X128677Y303742D01*
X128677Y306258D01*
X129640Y308582D01*
X131418Y310360D01*
X133742Y311323D01*
X136258Y311323D01*
X138582Y310360D01*
X140360Y308582D01*
X141323Y306258D01*
X141323Y303742D01*
X140360Y301418D01*
X138582Y299640D01*
X136258Y298677D01*
X133742Y298677D01*
G37*
%LPD*%
%LPC*%
G36*
X113742Y298677D02*
X113742Y298677D01*
X111418Y299640D01*
X109640Y301418D01*
X108677Y303742D01*
X108677Y306258D01*
X109640Y308582D01*
X111418Y310360D01*
X113742Y311323D01*
X116258Y311323D01*
X118582Y310360D01*
X120360Y308582D01*
X121323Y306258D01*
X121323Y303742D01*
X120360Y301418D01*
X118582Y299640D01*
X116258Y298677D01*
X113742Y298677D01*
G37*
%LPD*%
%LPC*%
G36*
X373742Y288677D02*
X373742Y288677D01*
X371418Y289640D01*
X369640Y291418D01*
X368677Y293742D01*
X368677Y296258D01*
X369640Y298582D01*
X371418Y300360D01*
X373742Y301323D01*
X376258Y301323D01*
X378582Y300360D01*
X380360Y298582D01*
X381323Y296258D01*
X381323Y293742D01*
X380360Y291418D01*
X378582Y289640D01*
X376258Y288677D01*
X373742Y288677D01*
G37*
%LPD*%
%LPC*%
G36*
X344742Y219677D02*
X344742Y219677D01*
X342418Y220640D01*
X340640Y222418D01*
X339677Y224742D01*
X339677Y227258D01*
X340640Y229582D01*
X342418Y231360D01*
X344742Y232323D01*
X347258Y232323D01*
X349582Y231360D01*
X351360Y229582D01*
X352323Y227258D01*
X352323Y224742D01*
X351360Y222418D01*
X349582Y220640D01*
X347258Y219677D01*
X344742Y219677D01*
G37*
%LPD*%
%LPC*%
G36*
X349023Y337523D02*
X349023Y337523D01*
X349023Y346684D01*
X350027Y346525D01*
X351642Y346000D01*
X353155Y345229D01*
X354530Y344231D01*
X355731Y343030D01*
X356729Y341655D01*
X357500Y340142D01*
X358025Y338527D01*
X358184Y337523D01*
X349023Y337523D01*
G37*
%LPD*%
%LPC*%
G36*
X349023Y334477D02*
X349023Y334477D01*
X358184Y334477D01*
X358025Y333473D01*
X357500Y331858D01*
X356729Y330345D01*
X355731Y328970D01*
X354530Y327769D01*
X353155Y326771D01*
X351642Y326000D01*
X350027Y325475D01*
X349023Y325316D01*
X349023Y334477D01*
G37*
%LPD*%
%LPC*%
G36*
X336816Y337523D02*
X336816Y337523D01*
X336975Y338527D01*
X337500Y340142D01*
X338271Y341655D01*
X339269Y343030D01*
X340470Y344231D01*
X341845Y345229D01*
X343358Y346000D01*
X344973Y346525D01*
X345977Y346684D01*
X345977Y337523D01*
X336816Y337523D01*
G37*
%LPD*%
%LPC*%
G36*
X344973Y325475D02*
X344973Y325475D01*
X343358Y326000D01*
X341845Y326771D01*
X340470Y327769D01*
X339269Y328970D01*
X338271Y330345D01*
X337500Y331858D01*
X336975Y333473D01*
X336816Y334477D01*
X345977Y334477D01*
X345977Y325316D01*
X344973Y325475D01*
G37*
%LPD*%
%LPC*%
G36*
X150323Y957723D02*
X150323Y957723D01*
X150323Y966246D01*
X151179Y966111D01*
X152700Y965616D01*
X154125Y964890D01*
X155419Y963950D01*
X156550Y962819D01*
X157490Y961525D01*
X158216Y960100D01*
X158711Y958579D01*
X158846Y957723D01*
X150323Y957723D01*
G37*
%LPD*%
%LPC*%
G36*
X150323Y954677D02*
X150323Y954677D01*
X158846Y954677D01*
X158711Y953821D01*
X158216Y952300D01*
X157490Y950875D01*
X156550Y949581D01*
X155419Y948450D01*
X154125Y947510D01*
X152700Y946784D01*
X151179Y946289D01*
X150323Y946154D01*
X150323Y954677D01*
G37*
%LPD*%
%LPC*%
G36*
X138754Y957723D02*
X138754Y957723D01*
X138889Y958579D01*
X139384Y960100D01*
X140110Y961525D01*
X141050Y962819D01*
X142181Y963950D01*
X143475Y964890D01*
X144900Y965616D01*
X146421Y966111D01*
X147277Y966246D01*
X147277Y957723D01*
X138754Y957723D01*
G37*
%LPD*%
%LPC*%
G36*
X146421Y946289D02*
X146421Y946289D01*
X144900Y946784D01*
X143475Y947510D01*
X142181Y948450D01*
X141050Y949581D01*
X140110Y950875D01*
X139384Y952300D01*
X138889Y953821D01*
X138754Y954677D01*
X147277Y954677D01*
X147277Y946154D01*
X146421Y946289D01*
G37*
%LPD*%
%LPC*%
G36*
X347499Y335999D02*
X347499Y335999D01*
X347499Y336001D01*
X347501Y336001D01*
X347501Y335999D01*
X347499Y335999D01*
G37*
%LPD*%
%LPC*%
G36*
X148799Y956199D02*
X148799Y956199D01*
X148799Y956201D01*
X148801Y956201D01*
X148801Y956199D01*
X148799Y956199D01*
G37*
%LPD*%
D10*
X148800Y956200D03*
X148800Y930800D03*
X148800Y880000D03*
X148800Y905400D03*
X148800Y854600D03*
X148800Y829200D03*
X148800Y778400D03*
X148800Y803800D03*
X148800Y753000D03*
X148800Y727600D03*
X148800Y676800D03*
X148800Y702200D03*
X148800Y626000D03*
X148800Y651400D03*
X301200Y956200D03*
X301200Y930800D03*
X301200Y880000D03*
X301200Y905400D03*
X301200Y854600D03*
X301200Y829200D03*
X301200Y778400D03*
X301200Y803800D03*
X301200Y753000D03*
X301200Y727600D03*
X301200Y676800D03*
X301200Y702200D03*
X301200Y626000D03*
X301200Y651400D03*
X174200Y626000D03*
X199600Y626000D03*
X225000Y626000D03*
X250400Y626000D03*
X275800Y626000D03*
D11*
X312500Y336000D03*
X347500Y336000D03*
D12*
X51000Y912000D03*
X62678Y734000D03*
X56000Y780000D03*
X86000Y757000D03*
X385100Y862100D03*
X256000Y354600D03*
X93800Y25000D03*
X225000Y15000D03*
X245000Y15000D03*
X225000Y60000D03*
X199600Y35000D03*
X313600Y485100D03*
X335600Y584100D03*
X383900Y702200D03*
X68900Y697500D03*
X65700Y646800D03*
X302200Y602700D03*
X205200Y490600D03*
X270200Y425900D03*
X415100Y315300D03*
X64000Y912000D03*
X110000Y865000D03*
X82000Y780000D03*
X49000Y759000D03*
X180000Y521000D03*
X321000Y831000D03*
X323000Y693000D03*
X209000Y426000D03*
X295000Y313000D03*
D13*
X323000Y693000D02*
X334600Y704600D01*
X334600Y817100D01*
X321000Y830700D02*
X321000Y831000D01*
X321000Y830700D02*
X334600Y817100D01*
D12*
X86000Y746000D03*
D13*
X314000Y766000D02*
X321000Y759000D01*
X321000Y712000D01*
X311200Y702200D01*
X301200Y702200D01*
X314000Y766000D02*
X141000Y766000D01*
X121000Y746000D02*
X86000Y746000D01*
X121000Y746000D02*
X141000Y766000D01*
D12*
X48000Y788000D03*
X108000Y721000D03*
X180000Y532000D03*
X257000Y554472D03*
X201000Y545916D03*
D14*
X269916Y545916D01*
X314800Y590800D02*
X314800Y640000D01*
X314800Y590800D02*
X269916Y545916D01*
X314800Y640000D02*
X303400Y651400D01*
X301200Y651400D01*
D12*
X57000Y621000D03*
X314300Y40000D03*
D14*
X333300Y59000D02*
X369000Y59000D01*
X377000Y67000D01*
X92000Y264000D02*
X63000Y293000D01*
X63000Y373000D01*
X71000Y381000D01*
X71000Y579000D01*
X57000Y593000D02*
X57000Y621000D01*
X333300Y59000D02*
X314300Y40000D01*
X377000Y67000D02*
X377000Y224000D01*
X337000Y264000D01*
X92000Y264000D01*
X71000Y579000D02*
X57000Y593000D01*
D12*
X251000Y37400D03*
D14*
X311700Y37400D02*
X314300Y40000D01*
X311700Y37400D02*
X251000Y37400D01*
D12*
X95000Y213000D03*
X346000Y226000D03*
X73000Y610000D03*
D14*
X127000Y664000D01*
X170100Y664000D01*
D12*
X335200Y40000D03*
D14*
X390000Y54000D02*
X390000Y240000D01*
X350000Y280000D01*
X106000Y280000D01*
X82000Y304000D01*
X82000Y601000D02*
X73000Y610000D01*
X82000Y601000D02*
X82000Y304000D01*
D12*
X251000Y53800D03*
D14*
X335200Y40000D02*
X376000Y40000D01*
X390000Y54000D01*
X170100Y664000D02*
X259100Y753000D01*
X301200Y753000D01*
D12*
X216000Y574000D03*
D13*
X183000Y607000D01*
X140000Y607000D01*
X130000Y617000D01*
X130000Y640000D01*
X141400Y651400D01*
X148800Y651400D01*
D12*
X192000Y561000D03*
X128000Y675000D03*
X128000Y731000D03*
X86000Y734000D03*
D14*
X91000Y731000D02*
X128000Y731000D01*
X91000Y731000D02*
X86000Y734000D01*
D12*
X110000Y880000D03*
X383000Y906000D03*
D15*
X384000Y906000D01*
X440000Y850000D01*
X440000Y366000D01*
X312883Y336000D02*
X312500Y336000D01*
X312883Y336000D02*
X328633Y320250D01*
X394250Y320250D01*
X440000Y366000D01*
D12*
X60000Y405000D03*
X160000Y405000D03*
X150000Y320000D03*
X405000Y150000D03*
X110000Y405000D03*
X75000Y213000D03*
X100000Y320000D03*
X210000Y405000D03*
X200000Y320000D03*
X425000Y150000D03*
X135100Y116400D03*
D13*
X135100Y80100D01*
X210600Y4600D01*
X349900Y4600D01*
X438100Y92800D01*
X438100Y206700D01*
X344800Y300000D01*
X280000Y300000D01*
X240000Y340000D01*
X240000Y450000D01*
X301200Y854600D02*
X325400Y854600D01*
X370000Y810000D01*
X370000Y580000D01*
X240000Y450000D01*
D12*
X135000Y204000D03*
D14*
X116000Y223000D01*
X18000Y223000D01*
X10000Y231000D01*
X10000Y699000D01*
X135322Y739522D02*
X148800Y753000D01*
X135322Y739522D02*
X135322Y727967D01*
X120255Y712900D01*
X23900Y712900D01*
X10000Y699000D01*
D12*
X155000Y204000D03*
D14*
X129000Y230000D01*
X23000Y230000D01*
X16000Y237000D01*
X16000Y696000D01*
X27000Y707000D01*
X128200Y707000D02*
X148800Y727600D01*
X128200Y707000D02*
X27000Y707000D01*
D12*
X115000Y305000D03*
X135000Y305000D03*
X315000Y205000D03*
X335000Y205000D03*
X140300Y498000D03*
D14*
X152300Y510000D01*
X244900Y510000D01*
X350000Y615100D01*
X350000Y650000D01*
X323200Y676800D01*
X301200Y676800D01*
D12*
X323000Y444000D03*
X375000Y295000D03*
X135600Y445100D03*
X225000Y160000D03*
M02*
