G04 EAGLE Gerber RS-274X export*
G75*
%MOMM*%
%FSLAX34Y34*%
%LPD*%
%IN*%
%IPPOS*%
%AMOC8*
5,1,8,0,0,1.08239X$1,22.5*%
G01*
%ADD10C,0.254000*%


D10*
X0Y30000D02*
X114Y27385D01*
X456Y24791D01*
X1022Y22235D01*
X1809Y19739D01*
X2811Y17321D01*
X4019Y15000D01*
X5425Y12793D01*
X7019Y10716D01*
X8787Y8787D01*
X10716Y7019D01*
X12793Y5425D01*
X15000Y4019D01*
X17321Y2811D01*
X19739Y1809D01*
X22235Y1022D01*
X24791Y456D01*
X27385Y114D01*
X30000Y0D01*
X420000Y0D01*
X422615Y114D01*
X425209Y456D01*
X427765Y1022D01*
X430261Y1809D01*
X432679Y2811D01*
X435000Y4019D01*
X437207Y5425D01*
X439284Y7019D01*
X441213Y8787D01*
X442981Y10716D01*
X444575Y12793D01*
X445981Y15000D01*
X447189Y17321D01*
X448191Y19739D01*
X448978Y22235D01*
X449544Y24791D01*
X449886Y27385D01*
X450000Y30000D01*
X450000Y950000D01*
X449886Y952615D01*
X449544Y955209D01*
X448978Y957765D01*
X448191Y960261D01*
X447189Y962679D01*
X445981Y965000D01*
X444575Y967207D01*
X442981Y969284D01*
X441213Y971213D01*
X439284Y972981D01*
X437207Y974575D01*
X435000Y975981D01*
X432679Y977189D01*
X430261Y978191D01*
X427765Y978978D01*
X425209Y979544D01*
X422615Y979886D01*
X420000Y980000D01*
X30000Y980000D01*
X27385Y979886D01*
X24791Y979544D01*
X22235Y978978D01*
X19739Y978191D01*
X17321Y977189D01*
X15000Y975981D01*
X12793Y974575D01*
X10716Y972981D01*
X8787Y971213D01*
X7019Y969284D01*
X5425Y967207D01*
X4019Y965000D01*
X2811Y962679D01*
X1809Y960261D01*
X1022Y957765D01*
X456Y955209D01*
X114Y952615D01*
X0Y950000D01*
X0Y30000D01*
X45000Y949464D02*
X44924Y948396D01*
X44771Y947335D01*
X44543Y946288D01*
X44241Y945260D01*
X43867Y944256D01*
X43422Y943281D01*
X42908Y942341D01*
X42329Y941440D01*
X41687Y940582D01*
X40985Y939772D01*
X40228Y939015D01*
X39418Y938313D01*
X38560Y937671D01*
X37659Y937092D01*
X36719Y936578D01*
X35744Y936133D01*
X34740Y935759D01*
X33712Y935457D01*
X32665Y935229D01*
X31604Y935076D01*
X30536Y935000D01*
X29464Y935000D01*
X28396Y935076D01*
X27335Y935229D01*
X26288Y935457D01*
X25260Y935759D01*
X24256Y936133D01*
X23281Y936578D01*
X22341Y937092D01*
X21440Y937671D01*
X20582Y938313D01*
X19772Y939015D01*
X19015Y939772D01*
X18313Y940582D01*
X17671Y941440D01*
X17092Y942341D01*
X16578Y943281D01*
X16133Y944256D01*
X15759Y945260D01*
X15457Y946288D01*
X15229Y947335D01*
X15076Y948396D01*
X15000Y949464D01*
X15000Y950536D01*
X15076Y951604D01*
X15229Y952665D01*
X15457Y953712D01*
X15759Y954740D01*
X16133Y955744D01*
X16578Y956719D01*
X17092Y957659D01*
X17671Y958560D01*
X18313Y959418D01*
X19015Y960228D01*
X19772Y960985D01*
X20582Y961687D01*
X21440Y962329D01*
X22341Y962908D01*
X23281Y963422D01*
X24256Y963867D01*
X25260Y964241D01*
X26288Y964543D01*
X27335Y964771D01*
X28396Y964924D01*
X29464Y965000D01*
X30536Y965000D01*
X31604Y964924D01*
X32665Y964771D01*
X33712Y964543D01*
X34740Y964241D01*
X35744Y963867D01*
X36719Y963422D01*
X37659Y962908D01*
X38560Y962329D01*
X39418Y961687D01*
X40228Y960985D01*
X40985Y960228D01*
X41687Y959418D01*
X42329Y958560D01*
X42908Y957659D01*
X43422Y956719D01*
X43867Y955744D01*
X44241Y954740D01*
X44543Y953712D01*
X44771Y952665D01*
X44924Y951604D01*
X45000Y950536D01*
X45000Y949464D01*
X435000Y949464D02*
X434924Y948396D01*
X434771Y947335D01*
X434543Y946288D01*
X434241Y945260D01*
X433867Y944256D01*
X433422Y943281D01*
X432908Y942341D01*
X432329Y941440D01*
X431687Y940582D01*
X430985Y939772D01*
X430228Y939015D01*
X429418Y938313D01*
X428560Y937671D01*
X427659Y937092D01*
X426719Y936578D01*
X425744Y936133D01*
X424740Y935759D01*
X423712Y935457D01*
X422665Y935229D01*
X421604Y935076D01*
X420536Y935000D01*
X419464Y935000D01*
X418396Y935076D01*
X417335Y935229D01*
X416288Y935457D01*
X415260Y935759D01*
X414256Y936133D01*
X413281Y936578D01*
X412341Y937092D01*
X411440Y937671D01*
X410582Y938313D01*
X409772Y939015D01*
X409015Y939772D01*
X408313Y940582D01*
X407671Y941440D01*
X407092Y942341D01*
X406578Y943281D01*
X406133Y944256D01*
X405759Y945260D01*
X405457Y946288D01*
X405229Y947335D01*
X405076Y948396D01*
X405000Y949464D01*
X405000Y950536D01*
X405076Y951604D01*
X405229Y952665D01*
X405457Y953712D01*
X405759Y954740D01*
X406133Y955744D01*
X406578Y956719D01*
X407092Y957659D01*
X407671Y958560D01*
X408313Y959418D01*
X409015Y960228D01*
X409772Y960985D01*
X410582Y961687D01*
X411440Y962329D01*
X412341Y962908D01*
X413281Y963422D01*
X414256Y963867D01*
X415260Y964241D01*
X416288Y964543D01*
X417335Y964771D01*
X418396Y964924D01*
X419464Y965000D01*
X420536Y965000D01*
X421604Y964924D01*
X422665Y964771D01*
X423712Y964543D01*
X424740Y964241D01*
X425744Y963867D01*
X426719Y963422D01*
X427659Y962908D01*
X428560Y962329D01*
X429418Y961687D01*
X430228Y960985D01*
X430985Y960228D01*
X431687Y959418D01*
X432329Y958560D01*
X432908Y957659D01*
X433422Y956719D01*
X433867Y955744D01*
X434241Y954740D01*
X434543Y953712D01*
X434771Y952665D01*
X434924Y951604D01*
X435000Y950536D01*
X435000Y949464D01*
X435000Y29464D02*
X434924Y28396D01*
X434771Y27335D01*
X434543Y26288D01*
X434241Y25260D01*
X433867Y24256D01*
X433422Y23281D01*
X432908Y22341D01*
X432329Y21440D01*
X431687Y20582D01*
X430985Y19772D01*
X430228Y19015D01*
X429418Y18313D01*
X428560Y17671D01*
X427659Y17092D01*
X426719Y16578D01*
X425744Y16133D01*
X424740Y15759D01*
X423712Y15457D01*
X422665Y15229D01*
X421604Y15076D01*
X420536Y15000D01*
X419464Y15000D01*
X418396Y15076D01*
X417335Y15229D01*
X416288Y15457D01*
X415260Y15759D01*
X414256Y16133D01*
X413281Y16578D01*
X412341Y17092D01*
X411440Y17671D01*
X410582Y18313D01*
X409772Y19015D01*
X409015Y19772D01*
X408313Y20582D01*
X407671Y21440D01*
X407092Y22341D01*
X406578Y23281D01*
X406133Y24256D01*
X405759Y25260D01*
X405457Y26288D01*
X405229Y27335D01*
X405076Y28396D01*
X405000Y29464D01*
X405000Y30536D01*
X405076Y31604D01*
X405229Y32665D01*
X405457Y33712D01*
X405759Y34740D01*
X406133Y35744D01*
X406578Y36719D01*
X407092Y37659D01*
X407671Y38560D01*
X408313Y39418D01*
X409015Y40228D01*
X409772Y40985D01*
X410582Y41687D01*
X411440Y42329D01*
X412341Y42908D01*
X413281Y43422D01*
X414256Y43867D01*
X415260Y44241D01*
X416288Y44543D01*
X417335Y44771D01*
X418396Y44924D01*
X419464Y45000D01*
X420536Y45000D01*
X421604Y44924D01*
X422665Y44771D01*
X423712Y44543D01*
X424740Y44241D01*
X425744Y43867D01*
X426719Y43422D01*
X427659Y42908D01*
X428560Y42329D01*
X429418Y41687D01*
X430228Y40985D01*
X430985Y40228D01*
X431687Y39418D01*
X432329Y38560D01*
X432908Y37659D01*
X433422Y36719D01*
X433867Y35744D01*
X434241Y34740D01*
X434543Y33712D01*
X434771Y32665D01*
X434924Y31604D01*
X435000Y30536D01*
X435000Y29464D01*
X45000Y29464D02*
X44924Y28396D01*
X44771Y27335D01*
X44543Y26288D01*
X44241Y25260D01*
X43867Y24256D01*
X43422Y23281D01*
X42908Y22341D01*
X42329Y21440D01*
X41687Y20582D01*
X40985Y19772D01*
X40228Y19015D01*
X39418Y18313D01*
X38560Y17671D01*
X37659Y17092D01*
X36719Y16578D01*
X35744Y16133D01*
X34740Y15759D01*
X33712Y15457D01*
X32665Y15229D01*
X31604Y15076D01*
X30536Y15000D01*
X29464Y15000D01*
X28396Y15076D01*
X27335Y15229D01*
X26288Y15457D01*
X25260Y15759D01*
X24256Y16133D01*
X23281Y16578D01*
X22341Y17092D01*
X21440Y17671D01*
X20582Y18313D01*
X19772Y19015D01*
X19015Y19772D01*
X18313Y20582D01*
X17671Y21440D01*
X17092Y22341D01*
X16578Y23281D01*
X16133Y24256D01*
X15759Y25260D01*
X15457Y26288D01*
X15229Y27335D01*
X15076Y28396D01*
X15000Y29464D01*
X15000Y30536D01*
X15076Y31604D01*
X15229Y32665D01*
X15457Y33712D01*
X15759Y34740D01*
X16133Y35744D01*
X16578Y36719D01*
X17092Y37659D01*
X17671Y38560D01*
X18313Y39418D01*
X19015Y40228D01*
X19772Y40985D01*
X20582Y41687D01*
X21440Y42329D01*
X22341Y42908D01*
X23281Y43422D01*
X24256Y43867D01*
X25260Y44241D01*
X26288Y44543D01*
X27335Y44771D01*
X28396Y44924D01*
X29464Y45000D01*
X30536Y45000D01*
X31604Y44924D01*
X32665Y44771D01*
X33712Y44543D01*
X34740Y44241D01*
X35744Y43867D01*
X36719Y43422D01*
X37659Y42908D01*
X38560Y42329D01*
X39418Y41687D01*
X40228Y40985D01*
X40985Y40228D01*
X41687Y39418D01*
X42329Y38560D01*
X42908Y37659D01*
X43422Y36719D01*
X43867Y35744D01*
X44241Y34740D01*
X44543Y33712D01*
X44771Y32665D01*
X44924Y31604D01*
X45000Y30536D01*
X45000Y29464D01*
X40633Y542750D02*
X40103Y542810D01*
X39583Y542928D01*
X39079Y543105D01*
X38599Y543336D01*
X38147Y543620D01*
X37730Y543953D01*
X37353Y544330D01*
X37020Y544747D01*
X36736Y545199D01*
X36505Y545679D01*
X36328Y546183D01*
X36210Y546703D01*
X36150Y547233D01*
X36150Y547767D01*
X36210Y548297D01*
X36328Y548817D01*
X36505Y549321D01*
X36736Y549801D01*
X37020Y550253D01*
X37353Y550670D01*
X37730Y551047D01*
X38147Y551380D01*
X38599Y551664D01*
X39079Y551895D01*
X39583Y552072D01*
X40103Y552190D01*
X40633Y552250D01*
X41167Y552250D01*
X41697Y552190D01*
X42217Y552072D01*
X42721Y551895D01*
X43201Y551664D01*
X43653Y551380D01*
X44070Y551047D01*
X44447Y550670D01*
X44780Y550253D01*
X45064Y549801D01*
X45295Y549321D01*
X45472Y548817D01*
X45590Y548297D01*
X45650Y547767D01*
X45650Y547233D01*
X45590Y546703D01*
X45472Y546183D01*
X45295Y545679D01*
X45064Y545199D01*
X44780Y544747D01*
X44447Y544330D01*
X44070Y543953D01*
X43653Y543620D01*
X43201Y543336D01*
X42721Y543105D01*
X42217Y542928D01*
X41697Y542810D01*
X41167Y542750D01*
X40633Y542750D01*
X40633Y474750D02*
X40103Y474810D01*
X39583Y474928D01*
X39079Y475105D01*
X38599Y475336D01*
X38147Y475620D01*
X37730Y475953D01*
X37353Y476330D01*
X37020Y476747D01*
X36736Y477199D01*
X36505Y477679D01*
X36328Y478183D01*
X36210Y478703D01*
X36150Y479233D01*
X36150Y479767D01*
X36210Y480297D01*
X36328Y480817D01*
X36505Y481321D01*
X36736Y481801D01*
X37020Y482253D01*
X37353Y482670D01*
X37730Y483047D01*
X38147Y483380D01*
X38599Y483664D01*
X39079Y483895D01*
X39583Y484072D01*
X40103Y484190D01*
X40633Y484250D01*
X41167Y484250D01*
X41697Y484190D01*
X42217Y484072D01*
X42721Y483895D01*
X43201Y483664D01*
X43653Y483380D01*
X44070Y483047D01*
X44447Y482670D01*
X44780Y482253D01*
X45064Y481801D01*
X45295Y481321D01*
X45472Y480817D01*
X45590Y480297D01*
X45650Y479767D01*
X45650Y479233D01*
X45590Y478703D01*
X45472Y478183D01*
X45295Y477679D01*
X45064Y477199D01*
X44780Y476747D01*
X44447Y476330D01*
X44070Y475953D01*
X43653Y475620D01*
X43201Y475336D01*
X42721Y475105D01*
X42217Y474928D01*
X41697Y474810D01*
X41167Y474750D01*
X40633Y474750D01*
M02*
