G04 EAGLE Gerber RS-274X export*
G75*
%MOMM*%
%FSLAX34Y34*%
%LPD*%
%INSilkscreen Bottom*%
%IPPOS*%
%AMOC8*
5,1,8,0,0,1.08239X$1,22.5*%
G01*
%ADD10C,0.300000*%
%ADD11C,0.152400*%


D10*
X3000Y950000D02*
X3008Y950663D01*
X3033Y951325D01*
X3073Y951986D01*
X3130Y952646D01*
X3203Y953305D01*
X3292Y953962D01*
X3398Y954616D01*
X3519Y955267D01*
X3656Y955916D01*
X3809Y956560D01*
X3978Y957201D01*
X4163Y957838D01*
X4363Y958469D01*
X4578Y959096D01*
X4809Y959717D01*
X5055Y960332D01*
X5316Y960942D01*
X5592Y961544D01*
X5883Y962140D01*
X6188Y962728D01*
X6508Y963308D01*
X6841Y963881D01*
X7189Y964445D01*
X7550Y965000D01*
X7925Y965547D01*
X8313Y966084D01*
X8715Y966611D01*
X9129Y967129D01*
X9555Y967636D01*
X9994Y968132D01*
X10445Y968618D01*
X10908Y969092D01*
X11382Y969555D01*
X11868Y970006D01*
X12364Y970445D01*
X12871Y970871D01*
X13389Y971285D01*
X13916Y971687D01*
X14453Y972075D01*
X15000Y972450D01*
X15555Y972811D01*
X16119Y973159D01*
X16692Y973492D01*
X17272Y973812D01*
X17860Y974117D01*
X18456Y974408D01*
X19058Y974684D01*
X19668Y974945D01*
X20283Y975191D01*
X20904Y975422D01*
X21531Y975637D01*
X22162Y975837D01*
X22799Y976022D01*
X23440Y976191D01*
X24084Y976344D01*
X24733Y976481D01*
X25384Y976602D01*
X26038Y976708D01*
X26695Y976797D01*
X27354Y976870D01*
X28014Y976927D01*
X28675Y976967D01*
X29337Y976992D01*
X30000Y977000D01*
X30663Y976992D01*
X31325Y976967D01*
X31986Y976927D01*
X32646Y976870D01*
X33305Y976797D01*
X33962Y976708D01*
X34616Y976602D01*
X35267Y976481D01*
X35916Y976344D01*
X36560Y976191D01*
X37201Y976022D01*
X37838Y975837D01*
X38469Y975637D01*
X39096Y975422D01*
X39717Y975191D01*
X40332Y974945D01*
X40942Y974684D01*
X41544Y974408D01*
X42140Y974117D01*
X42728Y973812D01*
X43308Y973492D01*
X43881Y973159D01*
X44445Y972811D01*
X45000Y972450D01*
X45547Y972075D01*
X46084Y971687D01*
X46611Y971285D01*
X47129Y970871D01*
X47636Y970445D01*
X48132Y970006D01*
X48618Y969555D01*
X49092Y969092D01*
X49555Y968618D01*
X50006Y968132D01*
X50445Y967636D01*
X50871Y967129D01*
X51285Y966611D01*
X51687Y966084D01*
X52075Y965547D01*
X52450Y965000D01*
X52811Y964445D01*
X53159Y963881D01*
X53492Y963308D01*
X53812Y962728D01*
X54117Y962140D01*
X54408Y961544D01*
X54684Y960942D01*
X54945Y960332D01*
X55191Y959717D01*
X55422Y959096D01*
X55637Y958469D01*
X55837Y957838D01*
X56022Y957201D01*
X56191Y956560D01*
X56344Y955916D01*
X56481Y955267D01*
X56602Y954616D01*
X56708Y953962D01*
X56797Y953305D01*
X56870Y952646D01*
X56927Y951986D01*
X56967Y951325D01*
X56992Y950663D01*
X57000Y950000D01*
X56992Y949337D01*
X56967Y948675D01*
X56927Y948014D01*
X56870Y947354D01*
X56797Y946695D01*
X56708Y946038D01*
X56602Y945384D01*
X56481Y944733D01*
X56344Y944084D01*
X56191Y943440D01*
X56022Y942799D01*
X55837Y942162D01*
X55637Y941531D01*
X55422Y940904D01*
X55191Y940283D01*
X54945Y939668D01*
X54684Y939058D01*
X54408Y938456D01*
X54117Y937860D01*
X53812Y937272D01*
X53492Y936692D01*
X53159Y936119D01*
X52811Y935555D01*
X52450Y935000D01*
X52075Y934453D01*
X51687Y933916D01*
X51285Y933389D01*
X50871Y932871D01*
X50445Y932364D01*
X50006Y931868D01*
X49555Y931382D01*
X49092Y930908D01*
X48618Y930445D01*
X48132Y929994D01*
X47636Y929555D01*
X47129Y929129D01*
X46611Y928715D01*
X46084Y928313D01*
X45547Y927925D01*
X45000Y927550D01*
X44445Y927189D01*
X43881Y926841D01*
X43308Y926508D01*
X42728Y926188D01*
X42140Y925883D01*
X41544Y925592D01*
X40942Y925316D01*
X40332Y925055D01*
X39717Y924809D01*
X39096Y924578D01*
X38469Y924363D01*
X37838Y924163D01*
X37201Y923978D01*
X36560Y923809D01*
X35916Y923656D01*
X35267Y923519D01*
X34616Y923398D01*
X33962Y923292D01*
X33305Y923203D01*
X32646Y923130D01*
X31986Y923073D01*
X31325Y923033D01*
X30663Y923008D01*
X30000Y923000D01*
X29337Y923008D01*
X28675Y923033D01*
X28014Y923073D01*
X27354Y923130D01*
X26695Y923203D01*
X26038Y923292D01*
X25384Y923398D01*
X24733Y923519D01*
X24084Y923656D01*
X23440Y923809D01*
X22799Y923978D01*
X22162Y924163D01*
X21531Y924363D01*
X20904Y924578D01*
X20283Y924809D01*
X19668Y925055D01*
X19058Y925316D01*
X18456Y925592D01*
X17860Y925883D01*
X17272Y926188D01*
X16692Y926508D01*
X16119Y926841D01*
X15555Y927189D01*
X15000Y927550D01*
X14453Y927925D01*
X13916Y928313D01*
X13389Y928715D01*
X12871Y929129D01*
X12364Y929555D01*
X11868Y929994D01*
X11382Y930445D01*
X10908Y930908D01*
X10445Y931382D01*
X9994Y931868D01*
X9555Y932364D01*
X9129Y932871D01*
X8715Y933389D01*
X8313Y933916D01*
X7925Y934453D01*
X7550Y935000D01*
X7189Y935555D01*
X6841Y936119D01*
X6508Y936692D01*
X6188Y937272D01*
X5883Y937860D01*
X5592Y938456D01*
X5316Y939058D01*
X5055Y939668D01*
X4809Y940283D01*
X4578Y940904D01*
X4363Y941531D01*
X4163Y942162D01*
X3978Y942799D01*
X3809Y943440D01*
X3656Y944084D01*
X3519Y944733D01*
X3398Y945384D01*
X3292Y946038D01*
X3203Y946695D01*
X3130Y947354D01*
X3073Y948014D01*
X3033Y948675D01*
X3008Y949337D01*
X3000Y950000D01*
X393000Y30000D02*
X393008Y30663D01*
X393033Y31325D01*
X393073Y31986D01*
X393130Y32646D01*
X393203Y33305D01*
X393292Y33962D01*
X393398Y34616D01*
X393519Y35267D01*
X393656Y35916D01*
X393809Y36560D01*
X393978Y37201D01*
X394163Y37838D01*
X394363Y38469D01*
X394578Y39096D01*
X394809Y39717D01*
X395055Y40332D01*
X395316Y40942D01*
X395592Y41544D01*
X395883Y42140D01*
X396188Y42728D01*
X396508Y43308D01*
X396841Y43881D01*
X397189Y44445D01*
X397550Y45000D01*
X397925Y45547D01*
X398313Y46084D01*
X398715Y46611D01*
X399129Y47129D01*
X399555Y47636D01*
X399994Y48132D01*
X400445Y48618D01*
X400908Y49092D01*
X401382Y49555D01*
X401868Y50006D01*
X402364Y50445D01*
X402871Y50871D01*
X403389Y51285D01*
X403916Y51687D01*
X404453Y52075D01*
X405000Y52450D01*
X405555Y52811D01*
X406119Y53159D01*
X406692Y53492D01*
X407272Y53812D01*
X407860Y54117D01*
X408456Y54408D01*
X409058Y54684D01*
X409668Y54945D01*
X410283Y55191D01*
X410904Y55422D01*
X411531Y55637D01*
X412162Y55837D01*
X412799Y56022D01*
X413440Y56191D01*
X414084Y56344D01*
X414733Y56481D01*
X415384Y56602D01*
X416038Y56708D01*
X416695Y56797D01*
X417354Y56870D01*
X418014Y56927D01*
X418675Y56967D01*
X419337Y56992D01*
X420000Y57000D01*
X420663Y56992D01*
X421325Y56967D01*
X421986Y56927D01*
X422646Y56870D01*
X423305Y56797D01*
X423962Y56708D01*
X424616Y56602D01*
X425267Y56481D01*
X425916Y56344D01*
X426560Y56191D01*
X427201Y56022D01*
X427838Y55837D01*
X428469Y55637D01*
X429096Y55422D01*
X429717Y55191D01*
X430332Y54945D01*
X430942Y54684D01*
X431544Y54408D01*
X432140Y54117D01*
X432728Y53812D01*
X433308Y53492D01*
X433881Y53159D01*
X434445Y52811D01*
X435000Y52450D01*
X435547Y52075D01*
X436084Y51687D01*
X436611Y51285D01*
X437129Y50871D01*
X437636Y50445D01*
X438132Y50006D01*
X438618Y49555D01*
X439092Y49092D01*
X439555Y48618D01*
X440006Y48132D01*
X440445Y47636D01*
X440871Y47129D01*
X441285Y46611D01*
X441687Y46084D01*
X442075Y45547D01*
X442450Y45000D01*
X442811Y44445D01*
X443159Y43881D01*
X443492Y43308D01*
X443812Y42728D01*
X444117Y42140D01*
X444408Y41544D01*
X444684Y40942D01*
X444945Y40332D01*
X445191Y39717D01*
X445422Y39096D01*
X445637Y38469D01*
X445837Y37838D01*
X446022Y37201D01*
X446191Y36560D01*
X446344Y35916D01*
X446481Y35267D01*
X446602Y34616D01*
X446708Y33962D01*
X446797Y33305D01*
X446870Y32646D01*
X446927Y31986D01*
X446967Y31325D01*
X446992Y30663D01*
X447000Y30000D01*
X446992Y29337D01*
X446967Y28675D01*
X446927Y28014D01*
X446870Y27354D01*
X446797Y26695D01*
X446708Y26038D01*
X446602Y25384D01*
X446481Y24733D01*
X446344Y24084D01*
X446191Y23440D01*
X446022Y22799D01*
X445837Y22162D01*
X445637Y21531D01*
X445422Y20904D01*
X445191Y20283D01*
X444945Y19668D01*
X444684Y19058D01*
X444408Y18456D01*
X444117Y17860D01*
X443812Y17272D01*
X443492Y16692D01*
X443159Y16119D01*
X442811Y15555D01*
X442450Y15000D01*
X442075Y14453D01*
X441687Y13916D01*
X441285Y13389D01*
X440871Y12871D01*
X440445Y12364D01*
X440006Y11868D01*
X439555Y11382D01*
X439092Y10908D01*
X438618Y10445D01*
X438132Y9994D01*
X437636Y9555D01*
X437129Y9129D01*
X436611Y8715D01*
X436084Y8313D01*
X435547Y7925D01*
X435000Y7550D01*
X434445Y7189D01*
X433881Y6841D01*
X433308Y6508D01*
X432728Y6188D01*
X432140Y5883D01*
X431544Y5592D01*
X430942Y5316D01*
X430332Y5055D01*
X429717Y4809D01*
X429096Y4578D01*
X428469Y4363D01*
X427838Y4163D01*
X427201Y3978D01*
X426560Y3809D01*
X425916Y3656D01*
X425267Y3519D01*
X424616Y3398D01*
X423962Y3292D01*
X423305Y3203D01*
X422646Y3130D01*
X421986Y3073D01*
X421325Y3033D01*
X420663Y3008D01*
X420000Y3000D01*
X419337Y3008D01*
X418675Y3033D01*
X418014Y3073D01*
X417354Y3130D01*
X416695Y3203D01*
X416038Y3292D01*
X415384Y3398D01*
X414733Y3519D01*
X414084Y3656D01*
X413440Y3809D01*
X412799Y3978D01*
X412162Y4163D01*
X411531Y4363D01*
X410904Y4578D01*
X410283Y4809D01*
X409668Y5055D01*
X409058Y5316D01*
X408456Y5592D01*
X407860Y5883D01*
X407272Y6188D01*
X406692Y6508D01*
X406119Y6841D01*
X405555Y7189D01*
X405000Y7550D01*
X404453Y7925D01*
X403916Y8313D01*
X403389Y8715D01*
X402871Y9129D01*
X402364Y9555D01*
X401868Y9994D01*
X401382Y10445D01*
X400908Y10908D01*
X400445Y11382D01*
X399994Y11868D01*
X399555Y12364D01*
X399129Y12871D01*
X398715Y13389D01*
X398313Y13916D01*
X397925Y14453D01*
X397550Y15000D01*
X397189Y15555D01*
X396841Y16119D01*
X396508Y16692D01*
X396188Y17272D01*
X395883Y17860D01*
X395592Y18456D01*
X395316Y19058D01*
X395055Y19668D01*
X394809Y20283D01*
X394578Y20904D01*
X394363Y21531D01*
X394163Y22162D01*
X393978Y22799D01*
X393809Y23440D01*
X393656Y24084D01*
X393519Y24733D01*
X393398Y25384D01*
X393292Y26038D01*
X393203Y26695D01*
X393130Y27354D01*
X393073Y28014D01*
X393033Y28675D01*
X393008Y29337D01*
X393000Y30000D01*
X3000Y30000D02*
X3008Y30663D01*
X3033Y31325D01*
X3073Y31986D01*
X3130Y32646D01*
X3203Y33305D01*
X3292Y33962D01*
X3398Y34616D01*
X3519Y35267D01*
X3656Y35916D01*
X3809Y36560D01*
X3978Y37201D01*
X4163Y37838D01*
X4363Y38469D01*
X4578Y39096D01*
X4809Y39717D01*
X5055Y40332D01*
X5316Y40942D01*
X5592Y41544D01*
X5883Y42140D01*
X6188Y42728D01*
X6508Y43308D01*
X6841Y43881D01*
X7189Y44445D01*
X7550Y45000D01*
X7925Y45547D01*
X8313Y46084D01*
X8715Y46611D01*
X9129Y47129D01*
X9555Y47636D01*
X9994Y48132D01*
X10445Y48618D01*
X10908Y49092D01*
X11382Y49555D01*
X11868Y50006D01*
X12364Y50445D01*
X12871Y50871D01*
X13389Y51285D01*
X13916Y51687D01*
X14453Y52075D01*
X15000Y52450D01*
X15555Y52811D01*
X16119Y53159D01*
X16692Y53492D01*
X17272Y53812D01*
X17860Y54117D01*
X18456Y54408D01*
X19058Y54684D01*
X19668Y54945D01*
X20283Y55191D01*
X20904Y55422D01*
X21531Y55637D01*
X22162Y55837D01*
X22799Y56022D01*
X23440Y56191D01*
X24084Y56344D01*
X24733Y56481D01*
X25384Y56602D01*
X26038Y56708D01*
X26695Y56797D01*
X27354Y56870D01*
X28014Y56927D01*
X28675Y56967D01*
X29337Y56992D01*
X30000Y57000D01*
X30663Y56992D01*
X31325Y56967D01*
X31986Y56927D01*
X32646Y56870D01*
X33305Y56797D01*
X33962Y56708D01*
X34616Y56602D01*
X35267Y56481D01*
X35916Y56344D01*
X36560Y56191D01*
X37201Y56022D01*
X37838Y55837D01*
X38469Y55637D01*
X39096Y55422D01*
X39717Y55191D01*
X40332Y54945D01*
X40942Y54684D01*
X41544Y54408D01*
X42140Y54117D01*
X42728Y53812D01*
X43308Y53492D01*
X43881Y53159D01*
X44445Y52811D01*
X45000Y52450D01*
X45547Y52075D01*
X46084Y51687D01*
X46611Y51285D01*
X47129Y50871D01*
X47636Y50445D01*
X48132Y50006D01*
X48618Y49555D01*
X49092Y49092D01*
X49555Y48618D01*
X50006Y48132D01*
X50445Y47636D01*
X50871Y47129D01*
X51285Y46611D01*
X51687Y46084D01*
X52075Y45547D01*
X52450Y45000D01*
X52811Y44445D01*
X53159Y43881D01*
X53492Y43308D01*
X53812Y42728D01*
X54117Y42140D01*
X54408Y41544D01*
X54684Y40942D01*
X54945Y40332D01*
X55191Y39717D01*
X55422Y39096D01*
X55637Y38469D01*
X55837Y37838D01*
X56022Y37201D01*
X56191Y36560D01*
X56344Y35916D01*
X56481Y35267D01*
X56602Y34616D01*
X56708Y33962D01*
X56797Y33305D01*
X56870Y32646D01*
X56927Y31986D01*
X56967Y31325D01*
X56992Y30663D01*
X57000Y30000D01*
X56992Y29337D01*
X56967Y28675D01*
X56927Y28014D01*
X56870Y27354D01*
X56797Y26695D01*
X56708Y26038D01*
X56602Y25384D01*
X56481Y24733D01*
X56344Y24084D01*
X56191Y23440D01*
X56022Y22799D01*
X55837Y22162D01*
X55637Y21531D01*
X55422Y20904D01*
X55191Y20283D01*
X54945Y19668D01*
X54684Y19058D01*
X54408Y18456D01*
X54117Y17860D01*
X53812Y17272D01*
X53492Y16692D01*
X53159Y16119D01*
X52811Y15555D01*
X52450Y15000D01*
X52075Y14453D01*
X51687Y13916D01*
X51285Y13389D01*
X50871Y12871D01*
X50445Y12364D01*
X50006Y11868D01*
X49555Y11382D01*
X49092Y10908D01*
X48618Y10445D01*
X48132Y9994D01*
X47636Y9555D01*
X47129Y9129D01*
X46611Y8715D01*
X46084Y8313D01*
X45547Y7925D01*
X45000Y7550D01*
X44445Y7189D01*
X43881Y6841D01*
X43308Y6508D01*
X42728Y6188D01*
X42140Y5883D01*
X41544Y5592D01*
X40942Y5316D01*
X40332Y5055D01*
X39717Y4809D01*
X39096Y4578D01*
X38469Y4363D01*
X37838Y4163D01*
X37201Y3978D01*
X36560Y3809D01*
X35916Y3656D01*
X35267Y3519D01*
X34616Y3398D01*
X33962Y3292D01*
X33305Y3203D01*
X32646Y3130D01*
X31986Y3073D01*
X31325Y3033D01*
X30663Y3008D01*
X30000Y3000D01*
X29337Y3008D01*
X28675Y3033D01*
X28014Y3073D01*
X27354Y3130D01*
X26695Y3203D01*
X26038Y3292D01*
X25384Y3398D01*
X24733Y3519D01*
X24084Y3656D01*
X23440Y3809D01*
X22799Y3978D01*
X22162Y4163D01*
X21531Y4363D01*
X20904Y4578D01*
X20283Y4809D01*
X19668Y5055D01*
X19058Y5316D01*
X18456Y5592D01*
X17860Y5883D01*
X17272Y6188D01*
X16692Y6508D01*
X16119Y6841D01*
X15555Y7189D01*
X15000Y7550D01*
X14453Y7925D01*
X13916Y8313D01*
X13389Y8715D01*
X12871Y9129D01*
X12364Y9555D01*
X11868Y9994D01*
X11382Y10445D01*
X10908Y10908D01*
X10445Y11382D01*
X9994Y11868D01*
X9555Y12364D01*
X9129Y12871D01*
X8715Y13389D01*
X8313Y13916D01*
X7925Y14453D01*
X7550Y15000D01*
X7189Y15555D01*
X6841Y16119D01*
X6508Y16692D01*
X6188Y17272D01*
X5883Y17860D01*
X5592Y18456D01*
X5316Y19058D01*
X5055Y19668D01*
X4809Y20283D01*
X4578Y20904D01*
X4363Y21531D01*
X4163Y22162D01*
X3978Y22799D01*
X3809Y23440D01*
X3656Y24084D01*
X3519Y24733D01*
X3398Y25384D01*
X3292Y26038D01*
X3203Y26695D01*
X3130Y27354D01*
X3073Y28014D01*
X3033Y28675D01*
X3008Y29337D01*
X3000Y30000D01*
X393000Y950000D02*
X393008Y950663D01*
X393033Y951325D01*
X393073Y951986D01*
X393130Y952646D01*
X393203Y953305D01*
X393292Y953962D01*
X393398Y954616D01*
X393519Y955267D01*
X393656Y955916D01*
X393809Y956560D01*
X393978Y957201D01*
X394163Y957838D01*
X394363Y958469D01*
X394578Y959096D01*
X394809Y959717D01*
X395055Y960332D01*
X395316Y960942D01*
X395592Y961544D01*
X395883Y962140D01*
X396188Y962728D01*
X396508Y963308D01*
X396841Y963881D01*
X397189Y964445D01*
X397550Y965000D01*
X397925Y965547D01*
X398313Y966084D01*
X398715Y966611D01*
X399129Y967129D01*
X399555Y967636D01*
X399994Y968132D01*
X400445Y968618D01*
X400908Y969092D01*
X401382Y969555D01*
X401868Y970006D01*
X402364Y970445D01*
X402871Y970871D01*
X403389Y971285D01*
X403916Y971687D01*
X404453Y972075D01*
X405000Y972450D01*
X405555Y972811D01*
X406119Y973159D01*
X406692Y973492D01*
X407272Y973812D01*
X407860Y974117D01*
X408456Y974408D01*
X409058Y974684D01*
X409668Y974945D01*
X410283Y975191D01*
X410904Y975422D01*
X411531Y975637D01*
X412162Y975837D01*
X412799Y976022D01*
X413440Y976191D01*
X414084Y976344D01*
X414733Y976481D01*
X415384Y976602D01*
X416038Y976708D01*
X416695Y976797D01*
X417354Y976870D01*
X418014Y976927D01*
X418675Y976967D01*
X419337Y976992D01*
X420000Y977000D01*
X420663Y976992D01*
X421325Y976967D01*
X421986Y976927D01*
X422646Y976870D01*
X423305Y976797D01*
X423962Y976708D01*
X424616Y976602D01*
X425267Y976481D01*
X425916Y976344D01*
X426560Y976191D01*
X427201Y976022D01*
X427838Y975837D01*
X428469Y975637D01*
X429096Y975422D01*
X429717Y975191D01*
X430332Y974945D01*
X430942Y974684D01*
X431544Y974408D01*
X432140Y974117D01*
X432728Y973812D01*
X433308Y973492D01*
X433881Y973159D01*
X434445Y972811D01*
X435000Y972450D01*
X435547Y972075D01*
X436084Y971687D01*
X436611Y971285D01*
X437129Y970871D01*
X437636Y970445D01*
X438132Y970006D01*
X438618Y969555D01*
X439092Y969092D01*
X439555Y968618D01*
X440006Y968132D01*
X440445Y967636D01*
X440871Y967129D01*
X441285Y966611D01*
X441687Y966084D01*
X442075Y965547D01*
X442450Y965000D01*
X442811Y964445D01*
X443159Y963881D01*
X443492Y963308D01*
X443812Y962728D01*
X444117Y962140D01*
X444408Y961544D01*
X444684Y960942D01*
X444945Y960332D01*
X445191Y959717D01*
X445422Y959096D01*
X445637Y958469D01*
X445837Y957838D01*
X446022Y957201D01*
X446191Y956560D01*
X446344Y955916D01*
X446481Y955267D01*
X446602Y954616D01*
X446708Y953962D01*
X446797Y953305D01*
X446870Y952646D01*
X446927Y951986D01*
X446967Y951325D01*
X446992Y950663D01*
X447000Y950000D01*
X446992Y949337D01*
X446967Y948675D01*
X446927Y948014D01*
X446870Y947354D01*
X446797Y946695D01*
X446708Y946038D01*
X446602Y945384D01*
X446481Y944733D01*
X446344Y944084D01*
X446191Y943440D01*
X446022Y942799D01*
X445837Y942162D01*
X445637Y941531D01*
X445422Y940904D01*
X445191Y940283D01*
X444945Y939668D01*
X444684Y939058D01*
X444408Y938456D01*
X444117Y937860D01*
X443812Y937272D01*
X443492Y936692D01*
X443159Y936119D01*
X442811Y935555D01*
X442450Y935000D01*
X442075Y934453D01*
X441687Y933916D01*
X441285Y933389D01*
X440871Y932871D01*
X440445Y932364D01*
X440006Y931868D01*
X439555Y931382D01*
X439092Y930908D01*
X438618Y930445D01*
X438132Y929994D01*
X437636Y929555D01*
X437129Y929129D01*
X436611Y928715D01*
X436084Y928313D01*
X435547Y927925D01*
X435000Y927550D01*
X434445Y927189D01*
X433881Y926841D01*
X433308Y926508D01*
X432728Y926188D01*
X432140Y925883D01*
X431544Y925592D01*
X430942Y925316D01*
X430332Y925055D01*
X429717Y924809D01*
X429096Y924578D01*
X428469Y924363D01*
X427838Y924163D01*
X427201Y923978D01*
X426560Y923809D01*
X425916Y923656D01*
X425267Y923519D01*
X424616Y923398D01*
X423962Y923292D01*
X423305Y923203D01*
X422646Y923130D01*
X421986Y923073D01*
X421325Y923033D01*
X420663Y923008D01*
X420000Y923000D01*
X419337Y923008D01*
X418675Y923033D01*
X418014Y923073D01*
X417354Y923130D01*
X416695Y923203D01*
X416038Y923292D01*
X415384Y923398D01*
X414733Y923519D01*
X414084Y923656D01*
X413440Y923809D01*
X412799Y923978D01*
X412162Y924163D01*
X411531Y924363D01*
X410904Y924578D01*
X410283Y924809D01*
X409668Y925055D01*
X409058Y925316D01*
X408456Y925592D01*
X407860Y925883D01*
X407272Y926188D01*
X406692Y926508D01*
X406119Y926841D01*
X405555Y927189D01*
X405000Y927550D01*
X404453Y927925D01*
X403916Y928313D01*
X403389Y928715D01*
X402871Y929129D01*
X402364Y929555D01*
X401868Y929994D01*
X401382Y930445D01*
X400908Y930908D01*
X400445Y931382D01*
X399994Y931868D01*
X399555Y932364D01*
X399129Y932871D01*
X398715Y933389D01*
X398313Y933916D01*
X397925Y934453D01*
X397550Y935000D01*
X397189Y935555D01*
X396841Y936119D01*
X396508Y936692D01*
X396188Y937272D01*
X395883Y937860D01*
X395592Y938456D01*
X395316Y939058D01*
X395055Y939668D01*
X394809Y940283D01*
X394578Y940904D01*
X394363Y941531D01*
X394163Y942162D01*
X393978Y942799D01*
X393809Y943440D01*
X393656Y944084D01*
X393519Y944733D01*
X393398Y945384D01*
X393292Y946038D01*
X393203Y946695D01*
X393130Y947354D01*
X393073Y948014D01*
X393033Y948675D01*
X393008Y949337D01*
X393000Y950000D01*
D11*
X318038Y354484D02*
X307201Y354484D01*
X312619Y349065D02*
X312619Y359902D01*
X343001Y354584D02*
X353838Y354584D01*
M02*
