G04 EAGLE Gerber RS-274X export*
G75*
%MOMM*%
%FSLAX34Y34*%
%LPD*%
%INSoldermask Top*%
%IPPOS*%
%AMOC8*
5,1,8,0,0,1.08239X$1,22.5*%
G01*
%ADD10C,3.203200*%
%ADD11R,0.663200X0.503200*%
%ADD12R,0.503200X0.663200*%
%ADD13R,1.703200X1.503200*%
%ADD14R,1.503200X1.703200*%
%ADD15R,1.603200X0.823200*%
%ADD16C,1.153200*%
%ADD17R,2.603200X1.303200*%
%ADD18C,2.108200*%
%ADD19R,0.503200X0.603200*%
%ADD20R,0.603200X0.503200*%
%ADD21C,0.305366*%
%ADD22R,5.003200X6.203200*%
%ADD23R,2.703200X2.703200*%
%ADD24R,1.603200X1.203200*%
%ADD25R,1.403200X1.403200*%
%ADD26R,1.092200X0.990600*%
%ADD27R,1.203200X1.603200*%
%ADD28R,1.803200X3.203200*%
%ADD29R,1.203200X5.703200*%
%ADD30R,2.203200X2.203200*%
%ADD31R,0.736600X2.184400*%
%ADD32R,1.803200X2.003200*%
%ADD33R,5.283200X1.981200*%
%ADD34R,2.303200X1.603200*%
%ADD35R,2.553200X2.653200*%
%ADD36R,2.616200X5.537200*%
%ADD37C,0.426347*%
%ADD38R,2.003200X1.803200*%
%ADD39R,1.473200X0.838200*%
%ADD40R,0.453200X0.478200*%
%ADD41R,0.478200X0.453200*%
%ADD42C,0.959600*%


D10*
X30000Y950000D03*
X420000Y950000D03*
X420000Y30000D03*
X30000Y30000D03*
D11*
X77850Y747750D03*
X77850Y752250D03*
X62150Y747750D03*
X62150Y752250D03*
D12*
X74500Y742150D03*
X70000Y742150D03*
X65500Y742150D03*
X74500Y757850D03*
X70000Y757850D03*
X65500Y757850D03*
D13*
X105000Y759500D03*
X105000Y740500D03*
X35000Y759500D03*
X35000Y740500D03*
X283000Y568600D03*
X283000Y587600D03*
X235000Y568500D03*
X235000Y587500D03*
X259000Y568500D03*
X259000Y587500D03*
D14*
X258600Y522700D03*
X277600Y522700D03*
X79500Y800000D03*
X60500Y800000D03*
D15*
X155100Y487700D03*
X155100Y498700D03*
X155100Y509700D03*
X155100Y520700D03*
X155100Y531700D03*
X155100Y542700D03*
X155100Y553700D03*
X155100Y564700D03*
X155100Y575700D03*
D16*
X40900Y547500D03*
X40900Y479500D03*
D17*
X45100Y589500D03*
X135100Y589500D03*
X135100Y428000D03*
X45100Y428000D03*
D18*
X148800Y956200D03*
X148800Y930800D03*
X148800Y880000D03*
X148800Y905400D03*
X148800Y854600D03*
X148800Y829200D03*
X148800Y778400D03*
X148800Y803800D03*
X148800Y753000D03*
X148800Y727600D03*
X148800Y676800D03*
X148800Y702200D03*
X148800Y626000D03*
X148800Y651400D03*
X301200Y956200D03*
X301200Y930800D03*
X301200Y880000D03*
X301200Y905400D03*
X301200Y854600D03*
X301200Y829200D03*
X301200Y778400D03*
X301200Y803800D03*
X301200Y753000D03*
X301200Y727600D03*
X301200Y676800D03*
X301200Y702200D03*
X301200Y626000D03*
X301200Y651400D03*
X174200Y626000D03*
X199600Y626000D03*
X225000Y626000D03*
X250400Y626000D03*
X275800Y626000D03*
D19*
X235000Y546650D03*
X230000Y546650D03*
X225000Y546650D03*
X220000Y546650D03*
X215000Y546650D03*
X215000Y521350D03*
X220000Y521350D03*
X225000Y521350D03*
X230000Y521350D03*
X235000Y521350D03*
D20*
X212350Y539000D03*
X212350Y534000D03*
X212350Y529000D03*
X237650Y529000D03*
X237650Y534000D03*
X237650Y539000D03*
D21*
X87461Y894961D02*
X87461Y903039D01*
X90639Y903039D01*
X90639Y894961D01*
X87461Y894961D01*
X87461Y897862D02*
X90639Y897862D01*
X90639Y900763D02*
X87461Y900763D01*
X74761Y903039D02*
X74761Y894961D01*
X74761Y903039D02*
X77939Y903039D01*
X77939Y894961D01*
X74761Y894961D01*
X74761Y897862D02*
X77939Y897862D01*
X77939Y900763D02*
X74761Y900763D01*
X62061Y903039D02*
X62061Y894961D01*
X62061Y903039D02*
X65239Y903039D01*
X65239Y894961D01*
X62061Y894961D01*
X62061Y897862D02*
X65239Y897862D01*
X65239Y900763D02*
X62061Y900763D01*
X49361Y903039D02*
X49361Y894961D01*
X49361Y903039D02*
X52539Y903039D01*
X52539Y894961D01*
X49361Y894961D01*
X49361Y897862D02*
X52539Y897862D01*
X52539Y900763D02*
X49361Y900763D01*
X49361Y825039D02*
X49361Y816961D01*
X49361Y825039D02*
X52539Y825039D01*
X52539Y816961D01*
X49361Y816961D01*
X49361Y819862D02*
X52539Y819862D01*
X52539Y822763D02*
X49361Y822763D01*
X62061Y825039D02*
X62061Y816961D01*
X62061Y825039D02*
X65239Y825039D01*
X65239Y816961D01*
X62061Y816961D01*
X62061Y819862D02*
X65239Y819862D01*
X65239Y822763D02*
X62061Y822763D01*
X74761Y825039D02*
X74761Y816961D01*
X74761Y825039D02*
X77939Y825039D01*
X77939Y816961D01*
X74761Y816961D01*
X74761Y819862D02*
X77939Y819862D01*
X77939Y822763D02*
X74761Y822763D01*
X87461Y825039D02*
X87461Y816961D01*
X87461Y825039D02*
X90639Y825039D01*
X90639Y816961D01*
X87461Y816961D01*
X87461Y819862D02*
X90639Y819862D01*
X90639Y822763D02*
X87461Y822763D01*
D22*
X70000Y860000D03*
D23*
X416000Y696000D03*
X416000Y626000D03*
X346000Y626000D03*
X346000Y696000D03*
D24*
X411000Y736000D03*
X389000Y726500D03*
X389000Y745500D03*
D14*
X359500Y740000D03*
X340500Y740000D03*
D25*
X410500Y830000D03*
X389500Y830000D03*
X410500Y800000D03*
X389500Y800000D03*
D14*
X359500Y830000D03*
X340500Y830000D03*
X359500Y800000D03*
X340500Y800000D03*
D25*
X410500Y770000D03*
X389500Y770000D03*
D14*
X359500Y770000D03*
X340500Y770000D03*
D26*
X350160Y945094D03*
X350160Y964398D03*
X329840Y954746D03*
D14*
X359500Y920000D03*
X340500Y920000D03*
D27*
X50000Y339000D03*
X40500Y361000D03*
X59500Y361000D03*
D14*
X40500Y390000D03*
X59500Y390000D03*
D27*
X150000Y339000D03*
X140500Y361000D03*
X159500Y361000D03*
D14*
X140500Y390000D03*
X159500Y390000D03*
D27*
X100000Y339000D03*
X90500Y361000D03*
X109500Y361000D03*
D14*
X90500Y390000D03*
X109500Y390000D03*
D27*
X200000Y339000D03*
X190500Y361000D03*
X209500Y361000D03*
D14*
X190500Y390000D03*
X209500Y390000D03*
D28*
X51000Y282500D03*
D29*
X75000Y260000D03*
X95000Y260000D03*
X115000Y260000D03*
X135000Y260000D03*
X155000Y260000D03*
X175000Y260000D03*
D28*
X199000Y282500D03*
X251000Y102500D03*
D29*
X275000Y80000D03*
X295000Y80000D03*
X315000Y80000D03*
X335000Y80000D03*
X355000Y80000D03*
X375000Y80000D03*
D28*
X399000Y102500D03*
X251000Y192500D03*
D29*
X275000Y170000D03*
X295000Y170000D03*
X315000Y170000D03*
X335000Y170000D03*
X355000Y170000D03*
X375000Y170000D03*
D28*
X399000Y192500D03*
X51000Y192500D03*
D29*
X75000Y170000D03*
X95000Y170000D03*
X115000Y170000D03*
X135000Y170000D03*
X155000Y170000D03*
X175000Y170000D03*
D28*
X199000Y192500D03*
X51000Y102500D03*
D29*
X75000Y80000D03*
X95000Y80000D03*
X115000Y80000D03*
X135000Y80000D03*
X155000Y80000D03*
X175000Y80000D03*
D28*
X199000Y102500D03*
X251000Y282500D03*
D29*
X275000Y260000D03*
X295000Y260000D03*
X315000Y260000D03*
X335000Y260000D03*
X355000Y260000D03*
X375000Y260000D03*
D28*
X399000Y282500D03*
D30*
X312500Y336000D03*
X347500Y336000D03*
D31*
X310950Y373362D03*
X323650Y373362D03*
X336350Y373362D03*
X349050Y373362D03*
X349050Y422638D03*
X336350Y422638D03*
X323650Y422638D03*
X310950Y422638D03*
D14*
X279500Y444000D03*
X260500Y444000D03*
X279500Y408000D03*
X260500Y408000D03*
D32*
X284000Y372000D03*
X256000Y372000D03*
X284000Y336000D03*
X256000Y336000D03*
D33*
X403000Y408020D03*
X403000Y341980D03*
D34*
X315000Y464000D03*
X315000Y508000D03*
D35*
X422000Y570000D03*
X360000Y570000D03*
D36*
X354805Y491000D03*
X427195Y491000D03*
D14*
X340500Y890000D03*
X359500Y890000D03*
X359500Y860000D03*
X340500Y860000D03*
D37*
X244035Y450335D02*
X228165Y450335D01*
X244035Y450335D02*
X244035Y443665D01*
X228165Y443665D01*
X228165Y450335D01*
X228165Y447715D02*
X244035Y447715D01*
X244035Y473335D02*
X228165Y473335D01*
X244035Y473335D02*
X244035Y466665D01*
X228165Y466665D01*
X228165Y473335D01*
X228165Y470715D02*
X244035Y470715D01*
X244035Y496335D02*
X228165Y496335D01*
X244035Y496335D02*
X244035Y489665D01*
X228165Y489665D01*
X228165Y496335D01*
X228165Y493715D02*
X244035Y493715D01*
X183835Y473335D02*
X167965Y473335D01*
X183835Y473335D02*
X183835Y466665D01*
X167965Y466665D01*
X167965Y473335D01*
X167965Y470715D02*
X183835Y470715D01*
D13*
X259000Y489500D03*
X259000Y470500D03*
D38*
X282000Y496000D03*
X282000Y468000D03*
D39*
X95400Y646600D03*
X95400Y659300D03*
X95400Y672000D03*
X95400Y684700D03*
X47350Y684700D03*
X47350Y672000D03*
X47350Y659300D03*
X47350Y646600D03*
D13*
X23000Y650500D03*
X23000Y669500D03*
D40*
X232500Y37625D03*
X227500Y37625D03*
X222500Y37625D03*
X217500Y37625D03*
D41*
X217375Y32500D03*
X217375Y27500D03*
D40*
X217500Y22375D03*
X222500Y22375D03*
X227500Y22375D03*
X232500Y22375D03*
D41*
X232625Y27500D03*
X232625Y32500D03*
D14*
X134500Y25000D03*
X115500Y25000D03*
X184500Y25000D03*
X165500Y25000D03*
X265500Y25000D03*
X284500Y25000D03*
X334500Y25000D03*
X315500Y25000D03*
D42*
X51000Y912000D03*
X62678Y734000D03*
X56000Y780000D03*
X86000Y757000D03*
X385100Y862100D03*
X256000Y354600D03*
X93800Y25000D03*
X225000Y15000D03*
X245000Y15000D03*
X225000Y60000D03*
X199600Y35000D03*
X313600Y485100D03*
X335600Y584100D03*
X383900Y702200D03*
X68900Y697500D03*
X65700Y646800D03*
X302200Y602700D03*
X205200Y490600D03*
X270200Y425900D03*
X415100Y315300D03*
X64000Y912000D03*
X110000Y865000D03*
X82000Y780000D03*
X49000Y759000D03*
X180000Y521000D03*
X321000Y831000D03*
X323000Y693000D03*
X209000Y426000D03*
X295000Y313000D03*
X86000Y746000D03*
X48000Y788000D03*
X108000Y721000D03*
X180000Y532000D03*
X257000Y554472D03*
X201000Y545916D03*
X57000Y621000D03*
X314300Y40000D03*
X251000Y37400D03*
X95000Y213000D03*
X346000Y226000D03*
X73000Y610000D03*
X335200Y40000D03*
X251000Y53800D03*
X216000Y574000D03*
X192000Y561000D03*
X128000Y675000D03*
X128000Y731000D03*
X86000Y734000D03*
X110000Y880000D03*
X383000Y906000D03*
X60000Y405000D03*
X160000Y405000D03*
X150000Y320000D03*
X405000Y150000D03*
X110000Y405000D03*
X75000Y213000D03*
X100000Y320000D03*
X210000Y405000D03*
X200000Y320000D03*
X425000Y150000D03*
X135100Y116400D03*
X135000Y204000D03*
X155000Y204000D03*
X115000Y305000D03*
X135000Y305000D03*
X315000Y205000D03*
X335000Y205000D03*
X140300Y498000D03*
X323000Y444000D03*
X375000Y295000D03*
X135600Y445100D03*
X225000Y160000D03*
M02*
