G04 EAGLE Gerber RS-274X export*
G75*
%MOMM*%
%FSLAX34Y34*%
%LPD*%
%INSolderpaste Top*%
%IPPOS*%
%AMOC8*
5,1,8,0,0,1.08239X$1,22.5*%
G01*
%ADD10R,0.460000X0.300000*%
%ADD11R,0.300000X0.460000*%
%ADD12R,1.500000X1.300000*%
%ADD13R,1.300000X1.500000*%
%ADD14R,1.400000X0.620000*%
%ADD15R,2.400000X1.100000*%
%ADD16R,0.300000X0.400000*%
%ADD17R,0.400000X0.300000*%
%ADD18R,1.520000X1.900000*%
%ADD19C,0.105000*%
%ADD20R,2.500000X2.500000*%
%ADD21R,1.400000X1.000000*%
%ADD22R,1.200000X1.200000*%
%ADD23R,0.889000X0.787400*%
%ADD24R,1.000000X1.400000*%
%ADD25R,1.600000X3.000000*%
%ADD26R,1.000000X5.500000*%
%ADD27R,0.533400X1.981200*%
%ADD28R,1.600000X1.800000*%
%ADD29R,5.080000X1.778000*%
%ADD30R,1.900000X1.200000*%
%ADD31R,2.350000X2.450000*%
%ADD32R,2.413000X5.334000*%
%ADD33C,0.222500*%
%ADD34R,1.800000X1.600000*%
%ADD35R,1.270000X0.635000*%
%ADD36R,0.250000X0.275000*%
%ADD37R,0.275000X0.250000*%


D10*
X77850Y747750D03*
X77850Y752250D03*
X62150Y747750D03*
X62150Y752250D03*
D11*
X74500Y742150D03*
X70000Y742150D03*
X65500Y742150D03*
X74500Y757850D03*
X70000Y757850D03*
X65500Y757850D03*
D12*
X105000Y759500D03*
X105000Y740500D03*
X35000Y759500D03*
X35000Y740500D03*
X283000Y568600D03*
X283000Y587600D03*
X235000Y568500D03*
X235000Y587500D03*
X259000Y568500D03*
X259000Y587500D03*
D13*
X258600Y522700D03*
X277600Y522700D03*
X79500Y800000D03*
X60500Y800000D03*
D14*
X155100Y487700D03*
X155100Y498700D03*
X155100Y509700D03*
X155100Y520700D03*
X155100Y531700D03*
X155100Y542700D03*
X155100Y553700D03*
X155100Y564700D03*
X155100Y575700D03*
D15*
X45100Y589500D03*
X135100Y589500D03*
X135100Y428000D03*
X45100Y428000D03*
D16*
X235000Y546650D03*
X230000Y546650D03*
X225000Y546650D03*
X220000Y546650D03*
X215000Y546650D03*
X215000Y521350D03*
X220000Y521350D03*
X225000Y521350D03*
X230000Y521350D03*
X235000Y521350D03*
D17*
X212350Y539000D03*
X212350Y534000D03*
X212350Y529000D03*
X237650Y529000D03*
X237650Y534000D03*
X237650Y539000D03*
D18*
X82000Y875000D03*
X82000Y845000D03*
X58000Y875000D03*
X58000Y845000D03*
D19*
X87475Y894975D02*
X87475Y903025D01*
X90625Y903025D01*
X90625Y894975D01*
X87475Y894975D01*
X87475Y895972D02*
X90625Y895972D01*
X90625Y896969D02*
X87475Y896969D01*
X87475Y897966D02*
X90625Y897966D01*
X90625Y898963D02*
X87475Y898963D01*
X87475Y899960D02*
X90625Y899960D01*
X90625Y900957D02*
X87475Y900957D01*
X87475Y901954D02*
X90625Y901954D01*
X90625Y902951D02*
X87475Y902951D01*
X74775Y903025D02*
X74775Y894975D01*
X74775Y903025D02*
X77925Y903025D01*
X77925Y894975D01*
X74775Y894975D01*
X74775Y895972D02*
X77925Y895972D01*
X77925Y896969D02*
X74775Y896969D01*
X74775Y897966D02*
X77925Y897966D01*
X77925Y898963D02*
X74775Y898963D01*
X74775Y899960D02*
X77925Y899960D01*
X77925Y900957D02*
X74775Y900957D01*
X74775Y901954D02*
X77925Y901954D01*
X77925Y902951D02*
X74775Y902951D01*
X62075Y903025D02*
X62075Y894975D01*
X62075Y903025D02*
X65225Y903025D01*
X65225Y894975D01*
X62075Y894975D01*
X62075Y895972D02*
X65225Y895972D01*
X65225Y896969D02*
X62075Y896969D01*
X62075Y897966D02*
X65225Y897966D01*
X65225Y898963D02*
X62075Y898963D01*
X62075Y899960D02*
X65225Y899960D01*
X65225Y900957D02*
X62075Y900957D01*
X62075Y901954D02*
X65225Y901954D01*
X65225Y902951D02*
X62075Y902951D01*
X49375Y903025D02*
X49375Y894975D01*
X49375Y903025D02*
X52525Y903025D01*
X52525Y894975D01*
X49375Y894975D01*
X49375Y895972D02*
X52525Y895972D01*
X52525Y896969D02*
X49375Y896969D01*
X49375Y897966D02*
X52525Y897966D01*
X52525Y898963D02*
X49375Y898963D01*
X49375Y899960D02*
X52525Y899960D01*
X52525Y900957D02*
X49375Y900957D01*
X49375Y901954D02*
X52525Y901954D01*
X52525Y902951D02*
X49375Y902951D01*
X49375Y825025D02*
X49375Y816975D01*
X49375Y825025D02*
X52525Y825025D01*
X52525Y816975D01*
X49375Y816975D01*
X49375Y817972D02*
X52525Y817972D01*
X52525Y818969D02*
X49375Y818969D01*
X49375Y819966D02*
X52525Y819966D01*
X52525Y820963D02*
X49375Y820963D01*
X49375Y821960D02*
X52525Y821960D01*
X52525Y822957D02*
X49375Y822957D01*
X49375Y823954D02*
X52525Y823954D01*
X52525Y824951D02*
X49375Y824951D01*
X62075Y825025D02*
X62075Y816975D01*
X62075Y825025D02*
X65225Y825025D01*
X65225Y816975D01*
X62075Y816975D01*
X62075Y817972D02*
X65225Y817972D01*
X65225Y818969D02*
X62075Y818969D01*
X62075Y819966D02*
X65225Y819966D01*
X65225Y820963D02*
X62075Y820963D01*
X62075Y821960D02*
X65225Y821960D01*
X65225Y822957D02*
X62075Y822957D01*
X62075Y823954D02*
X65225Y823954D01*
X65225Y824951D02*
X62075Y824951D01*
X74775Y825025D02*
X74775Y816975D01*
X74775Y825025D02*
X77925Y825025D01*
X77925Y816975D01*
X74775Y816975D01*
X74775Y817972D02*
X77925Y817972D01*
X77925Y818969D02*
X74775Y818969D01*
X74775Y819966D02*
X77925Y819966D01*
X77925Y820963D02*
X74775Y820963D01*
X74775Y821960D02*
X77925Y821960D01*
X77925Y822957D02*
X74775Y822957D01*
X74775Y823954D02*
X77925Y823954D01*
X77925Y824951D02*
X74775Y824951D01*
X87475Y825025D02*
X87475Y816975D01*
X87475Y825025D02*
X90625Y825025D01*
X90625Y816975D01*
X87475Y816975D01*
X87475Y817972D02*
X90625Y817972D01*
X90625Y818969D02*
X87475Y818969D01*
X87475Y819966D02*
X90625Y819966D01*
X90625Y820963D02*
X87475Y820963D01*
X87475Y821960D02*
X90625Y821960D01*
X90625Y822957D02*
X87475Y822957D01*
X87475Y823954D02*
X90625Y823954D01*
X90625Y824951D02*
X87475Y824951D01*
D20*
X416000Y696000D03*
X416000Y626000D03*
X346000Y626000D03*
X346000Y696000D03*
D21*
X411000Y736000D03*
X389000Y726500D03*
X389000Y745500D03*
D13*
X359500Y740000D03*
X340500Y740000D03*
D22*
X410500Y830000D03*
X389500Y830000D03*
X410500Y800000D03*
X389500Y800000D03*
D13*
X359500Y830000D03*
X340500Y830000D03*
X359500Y800000D03*
X340500Y800000D03*
D22*
X410500Y770000D03*
X389500Y770000D03*
D13*
X359500Y770000D03*
X340500Y770000D03*
D23*
X350160Y945094D03*
X350160Y964398D03*
X329840Y954746D03*
D13*
X359500Y920000D03*
X340500Y920000D03*
D24*
X50000Y339000D03*
X40500Y361000D03*
X59500Y361000D03*
D13*
X40500Y390000D03*
X59500Y390000D03*
D24*
X150000Y339000D03*
X140500Y361000D03*
X159500Y361000D03*
D13*
X140500Y390000D03*
X159500Y390000D03*
D24*
X100000Y339000D03*
X90500Y361000D03*
X109500Y361000D03*
D13*
X90500Y390000D03*
X109500Y390000D03*
D24*
X200000Y339000D03*
X190500Y361000D03*
X209500Y361000D03*
D13*
X190500Y390000D03*
X209500Y390000D03*
D25*
X51000Y282500D03*
D26*
X75000Y260000D03*
X95000Y260000D03*
X115000Y260000D03*
X135000Y260000D03*
X155000Y260000D03*
X175000Y260000D03*
D25*
X199000Y282500D03*
X251000Y102500D03*
D26*
X275000Y80000D03*
X295000Y80000D03*
X315000Y80000D03*
X335000Y80000D03*
X355000Y80000D03*
X375000Y80000D03*
D25*
X399000Y102500D03*
X251000Y192500D03*
D26*
X275000Y170000D03*
X295000Y170000D03*
X315000Y170000D03*
X335000Y170000D03*
X355000Y170000D03*
X375000Y170000D03*
D25*
X399000Y192500D03*
X51000Y192500D03*
D26*
X75000Y170000D03*
X95000Y170000D03*
X115000Y170000D03*
X135000Y170000D03*
X155000Y170000D03*
X175000Y170000D03*
D25*
X199000Y192500D03*
X51000Y102500D03*
D26*
X75000Y80000D03*
X95000Y80000D03*
X115000Y80000D03*
X135000Y80000D03*
X155000Y80000D03*
X175000Y80000D03*
D25*
X199000Y102500D03*
X251000Y282500D03*
D26*
X275000Y260000D03*
X295000Y260000D03*
X315000Y260000D03*
X335000Y260000D03*
X355000Y260000D03*
X375000Y260000D03*
D25*
X399000Y282500D03*
D27*
X310950Y373362D03*
X323650Y373362D03*
X336350Y373362D03*
X349050Y373362D03*
X349050Y422638D03*
X336350Y422638D03*
X323650Y422638D03*
X310950Y422638D03*
D13*
X279500Y444000D03*
X260500Y444000D03*
X279500Y408000D03*
X260500Y408000D03*
D28*
X284000Y372000D03*
X256000Y372000D03*
X284000Y336000D03*
X256000Y336000D03*
D29*
X403000Y408020D03*
X403000Y341980D03*
D30*
X315000Y464000D03*
X315000Y508000D03*
D31*
X422000Y570000D03*
X360000Y570000D03*
D32*
X354805Y491000D03*
X427195Y491000D03*
D13*
X340500Y890000D03*
X359500Y890000D03*
X359500Y860000D03*
X340500Y860000D03*
D33*
X244038Y450338D02*
X228162Y450338D01*
X244038Y450338D02*
X244038Y443662D01*
X228162Y443662D01*
X228162Y450338D01*
X228162Y445776D02*
X244038Y445776D01*
X244038Y447890D02*
X228162Y447890D01*
X228162Y450004D02*
X244038Y450004D01*
X244038Y473338D02*
X228162Y473338D01*
X244038Y473338D02*
X244038Y466662D01*
X228162Y466662D01*
X228162Y473338D01*
X228162Y468776D02*
X244038Y468776D01*
X244038Y470890D02*
X228162Y470890D01*
X228162Y473004D02*
X244038Y473004D01*
X244038Y496338D02*
X228162Y496338D01*
X244038Y496338D02*
X244038Y489662D01*
X228162Y489662D01*
X228162Y496338D01*
X228162Y491776D02*
X244038Y491776D01*
X244038Y493890D02*
X228162Y493890D01*
X228162Y496004D02*
X244038Y496004D01*
X183838Y473338D02*
X167962Y473338D01*
X183838Y473338D02*
X183838Y466662D01*
X167962Y466662D01*
X167962Y473338D01*
X167962Y468776D02*
X183838Y468776D01*
X183838Y470890D02*
X167962Y470890D01*
X167962Y473004D02*
X183838Y473004D01*
D12*
X259000Y489500D03*
X259000Y470500D03*
D34*
X282000Y496000D03*
X282000Y468000D03*
D35*
X95400Y646600D03*
X95400Y659300D03*
X95400Y672000D03*
X95400Y684700D03*
X47350Y684700D03*
X47350Y672000D03*
X47350Y659300D03*
X47350Y646600D03*
D12*
X23000Y650500D03*
X23000Y669500D03*
D36*
X232500Y37625D03*
X227500Y37625D03*
X222500Y37625D03*
X217500Y37625D03*
D37*
X217375Y32500D03*
X217375Y27500D03*
D36*
X217500Y22375D03*
X222500Y22375D03*
X227500Y22375D03*
X232500Y22375D03*
D37*
X232625Y27500D03*
X232625Y32500D03*
D13*
X134500Y25000D03*
X115500Y25000D03*
X184500Y25000D03*
X165500Y25000D03*
X265500Y25000D03*
X284500Y25000D03*
X334500Y25000D03*
X315500Y25000D03*
M02*
