M48
;GenerationSoftware,Autodesk,EAGLE,9.5.1*%
;CreationDate,2021-11-20T17:19:53Z*%
FMAT,2
ICI,OFF
METRIC,TZ,000.000
T5C0.350
T4C0.950
T3C1.016
T2C1.100
T1C3.000
%
G90
M71
T1
X3000Y95000
X42000Y95000
X42000Y3000
X3000Y3000
T2
X34750Y33600
X31250Y33600
T3
X17420Y62600
X30120Y65140
X30120Y62600
X30120Y70220
X30120Y67680
X30120Y72760
X30120Y75300
X30120Y80380
X30120Y77840
X30120Y82920
X30120Y85460
X30120Y90540
X30120Y88000
X30120Y93080
X30120Y95620
X14880Y65140
X14880Y62600
X14880Y70220
X14880Y67680
X14880Y72760
X14880Y75300
X14880Y80380
X14880Y77840
X14880Y82920
X14880Y85460
X14880Y90540
X14880Y88000
X14880Y93080
X14880Y95620
X19960Y62600
X22500Y62600
X25040Y62600
X27580Y62600
T4
X4090Y47950
X4090Y54750
T5
X33520Y4000
X25100Y5380
X21600Y57400
X19200Y56100
X12800Y67500
X12800Y73100
X8600Y73400
X11000Y88000
X38300Y90600
X6000Y40500
X16000Y40500
X15000Y32000
X40500Y15000
X11000Y40500
X7500Y21300
X5100Y91200
X21000Y40500
X20000Y32000
X42500Y15000
X13510Y11640
X13500Y20400
X15500Y20400
X11500Y30500
X13500Y30500
X31500Y20500
X33500Y20500
X14030Y49800
X32300Y44400
X37500Y29500
X13560Y44510
X22500Y16000
X7300Y61000
X34600Y22600
X9500Y21300
X25100Y3740
X31430Y4000
X5700Y62100
X20100Y54592
X25700Y55447
X18000Y53200
X10800Y72100
X4800Y78800
X8600Y74600
X29500Y31300
X20900Y42600
X32300Y69300
X32100Y83100
X18000Y52100
X4900Y75900
X8200Y78000
X11000Y86500
X6400Y91200
X41510Y31530
X27020Y42590
X20520Y49060
X30220Y60270
X6570Y64680
X6890Y69750
X38390Y70220
X33560Y58410
X31360Y48510
X19960Y3500
X22500Y6000
X24500Y1500
X22500Y1500
X9380Y2500
X25600Y35460
X38510Y86210
X8600Y75700
X5600Y78000
X6268Y73400
X10000Y32000
M30